<svg width="1363" height="163" viewBox="0 0 1363 163" fill="none" xmlns="http://www.w3.org/2000/svg">
<path d="M0 15C0 6.71573 6.71573 0 15 0H37V163H15C6.71573 163 0 156.284 0 148V15Z" fill="#424242"/>
<rect width="1097" height="163" transform="translate(37)" fill="#F0F0F0"/>
<path d="M101.906 53.9219L94.3945 51.2383V48.0859L104.602 52.375V54.6367L101.906 53.9219ZM94.3945 56.1719L101.918 53.4297L104.602 52.7852V55.0352L94.3945 59.3242V56.1719ZM112.898 43.9375H119.262C120.566 43.9375 121.688 44.1328 122.625 44.5234C123.57 44.9141 124.297 45.4922 124.805 46.2578C125.312 47.0234 125.566 47.9648 125.566 49.082C125.566 49.9961 125.41 50.7812 125.098 51.4375C124.793 52.0859 124.359 52.6289 123.797 53.0664C123.242 53.4961 122.59 53.8398 121.84 54.0977L120.727 54.6836H115.195L115.172 51.9414H119.285C119.902 51.9414 120.414 51.832 120.82 51.6133C121.227 51.3945 121.531 51.0898 121.734 50.6992C121.945 50.3086 122.051 49.8555 122.051 49.3398C122.051 48.793 121.949 48.3203 121.746 47.9219C121.543 47.5234 121.234 47.2188 120.82 47.0078C120.406 46.7969 119.887 46.6914 119.262 46.6914H116.414V61H112.898V43.9375ZM122.438 61L118.547 53.3945L122.262 53.3711L126.199 60.8359V61H122.438ZM133.898 61.2344C132.914 61.2344 132.031 61.0781 131.25 60.7656C130.469 60.4453 129.805 60.0039 129.258 59.4414C128.719 58.8789 128.305 58.2266 128.016 57.4844C127.727 56.7344 127.582 55.9375 127.582 55.0938V54.625C127.582 53.6641 127.719 52.7852 127.992 51.9883C128.266 51.1914 128.656 50.5 129.164 49.9141C129.68 49.3281 130.305 48.8789 131.039 48.5664C131.773 48.2461 132.602 48.0859 133.523 48.0859C134.422 48.0859 135.219 48.2344 135.914 48.5312C136.609 48.8281 137.191 49.25 137.66 49.7969C138.137 50.3438 138.496 51 138.738 51.7656C138.98 52.5234 139.102 53.3672 139.102 54.2969V55.7031H129.023V53.4531H135.785V53.1953C135.785 52.7266 135.699 52.3086 135.527 51.9414C135.363 51.5664 135.113 51.2695 134.777 51.0508C134.441 50.832 134.012 50.7227 133.488 50.7227C133.043 50.7227 132.66 50.8203 132.34 51.0156C132.02 51.2109 131.758 51.4844 131.555 51.8359C131.359 52.1875 131.211 52.6016 131.109 53.0781C131.016 53.5469 130.969 54.0625 130.969 54.625V55.0938C130.969 55.6016 131.039 56.0703 131.18 56.5C131.328 56.9297 131.535 57.3008 131.801 57.6133C132.074 57.9258 132.402 58.168 132.785 58.3398C133.176 58.5117 133.617 58.5977 134.109 58.5977C134.719 58.5977 135.285 58.4805 135.809 58.2461C136.34 58.0039 136.797 57.6406 137.18 57.1562L138.82 58.9375C138.555 59.3203 138.191 59.6875 137.73 60.0391C137.277 60.3906 136.73 60.6797 136.09 60.9062C135.449 61.125 134.719 61.2344 133.898 61.2344ZM141.211 48.3203H144.598V61.7617C144.598 62.6992 144.426 63.4922 144.082 64.1406C143.738 64.7891 143.242 65.2812 142.594 65.6172C141.945 65.9531 141.16 66.1211 140.238 66.1211C139.949 66.1211 139.668 66.1055 139.395 66.0742C139.113 66.043 138.824 65.9922 138.527 65.9219L138.539 63.332C138.727 63.3633 138.91 63.3867 139.09 63.4023C139.262 63.4258 139.438 63.4375 139.617 63.4375C139.969 63.4375 140.262 63.3789 140.496 63.2617C140.73 63.1445 140.906 62.9609 141.023 62.7109C141.148 62.4688 141.211 62.1523 141.211 61.7617V48.3203ZM140.941 45.0156C140.941 44.5234 141.113 44.1172 141.457 43.7969C141.809 43.4766 142.27 43.3164 142.84 43.3164C143.418 43.3164 143.879 43.4766 144.223 43.7969C144.566 44.1172 144.738 44.5234 144.738 45.0156C144.738 45.5078 144.566 45.9141 144.223 46.2344C143.879 46.5547 143.418 46.7148 142.84 46.7148C142.27 46.7148 141.809 46.5547 141.457 46.2344C141.113 45.9141 140.941 45.5078 140.941 45.0156ZM153.117 61.2344C152.133 61.2344 151.25 61.0781 150.469 60.7656C149.688 60.4453 149.023 60.0039 148.477 59.4414C147.938 58.8789 147.523 58.2266 147.234 57.4844C146.945 56.7344 146.801 55.9375 146.801 55.0938V54.625C146.801 53.6641 146.938 52.7852 147.211 51.9883C147.484 51.1914 147.875 50.5 148.383 49.9141C148.898 49.3281 149.523 48.8789 150.258 48.5664C150.992 48.2461 151.82 48.0859 152.742 48.0859C153.641 48.0859 154.438 48.2344 155.133 48.5312C155.828 48.8281 156.41 49.25 156.879 49.7969C157.355 50.3438 157.715 51 157.957 51.7656C158.199 52.5234 158.32 53.3672 158.32 54.2969V55.7031H148.242V53.4531H155.004V53.1953C155.004 52.7266 154.918 52.3086 154.746 51.9414C154.582 51.5664 154.332 51.2695 153.996 51.0508C153.66 50.832 153.23 50.7227 152.707 50.7227C152.262 50.7227 151.879 50.8203 151.559 51.0156C151.238 51.2109 150.977 51.4844 150.773 51.8359C150.578 52.1875 150.43 52.6016 150.328 53.0781C150.234 53.5469 150.188 54.0625 150.188 54.625V55.0938C150.188 55.6016 150.258 56.0703 150.398 56.5C150.547 56.9297 150.754 57.3008 151.02 57.6133C151.293 57.9258 151.621 58.168 152.004 58.3398C152.395 58.5117 152.836 58.5977 153.328 58.5977C153.938 58.5977 154.504 58.4805 155.027 58.2461C155.559 58.0039 156.016 57.6406 156.398 57.1562L158.039 58.9375C157.773 59.3203 157.41 59.6875 156.949 60.0391C156.496 60.3906 155.949 60.6797 155.309 60.9062C154.668 61.125 153.938 61.2344 153.117 61.2344ZM165.48 58.5977C165.895 58.5977 166.262 58.5195 166.582 58.3633C166.902 58.1992 167.152 57.9727 167.332 57.6836C167.52 57.3867 167.617 57.0391 167.625 56.6406H170.801C170.793 57.5312 170.555 58.3242 170.086 59.0195C169.617 59.707 168.988 60.25 168.199 60.6484C167.41 61.0391 166.527 61.2344 165.551 61.2344C164.566 61.2344 163.707 61.0703 162.973 60.7422C162.246 60.4141 161.641 59.9609 161.156 59.3828C160.672 58.7969 160.309 58.1172 160.066 57.3438C159.824 56.5625 159.703 55.7266 159.703 54.8359V54.4961C159.703 53.5977 159.824 52.7617 160.066 51.9883C160.309 51.207 160.672 50.5273 161.156 49.9492C161.641 49.3633 162.246 48.9062 162.973 48.5781C163.699 48.25 164.551 48.0859 165.527 48.0859C166.566 48.0859 167.477 48.2852 168.258 48.6836C169.047 49.082 169.664 49.6523 170.109 50.3945C170.562 51.1289 170.793 52 170.801 53.0078H167.625C167.617 52.5859 167.527 52.2031 167.355 51.8594C167.191 51.5156 166.949 51.2422 166.629 51.0391C166.316 50.8281 165.93 50.7227 165.469 50.7227C164.977 50.7227 164.574 50.8281 164.262 51.0391C163.949 51.2422 163.707 51.5234 163.535 51.8828C163.363 52.2344 163.242 52.6367 163.172 53.0898C163.109 53.5352 163.078 54.0039 163.078 54.4961V54.8359C163.078 55.3281 163.109 55.8008 163.172 56.2539C163.234 56.707 163.352 57.1094 163.523 57.4609C163.703 57.8125 163.949 58.0898 164.262 58.293C164.574 58.4961 164.98 58.5977 165.48 58.5977ZM178.969 48.3203V50.7109H171.586V48.3203H178.969ZM173.414 45.1914H176.789V57.1797C176.789 57.5469 176.836 57.8281 176.93 58.0234C177.031 58.2188 177.18 58.3555 177.375 58.4336C177.57 58.5039 177.816 58.5391 178.113 58.5391C178.324 58.5391 178.512 58.5312 178.676 58.5156C178.848 58.4922 178.992 58.4688 179.109 58.4453L179.121 60.9297C178.832 61.0234 178.52 61.0977 178.184 61.1523C177.848 61.207 177.477 61.2344 177.07 61.2344C176.328 61.2344 175.68 61.1133 175.125 60.8711C174.578 60.6211 174.156 60.2227 173.859 59.6758C173.562 59.1289 173.414 58.4102 173.414 57.5195V45.1914ZM186.727 61.2344C185.742 61.2344 184.859 61.0781 184.078 60.7656C183.297 60.4453 182.633 60.0039 182.086 59.4414C181.547 58.8789 181.133 58.2266 180.844 57.4844C180.555 56.7344 180.41 55.9375 180.41 55.0938V54.625C180.41 53.6641 180.547 52.7852 180.82 51.9883C181.094 51.1914 181.484 50.5 181.992 49.9141C182.508 49.3281 183.133 48.8789 183.867 48.5664C184.602 48.2461 185.43 48.0859 186.352 48.0859C187.25 48.0859 188.047 48.2344 188.742 48.5312C189.438 48.8281 190.02 49.25 190.488 49.7969C190.965 50.3438 191.324 51 191.566 51.7656C191.809 52.5234 191.93 53.3672 191.93 54.2969V55.7031H181.852V53.4531H188.613V53.1953C188.613 52.7266 188.527 52.3086 188.355 51.9414C188.191 51.5664 187.941 51.2695 187.605 51.0508C187.27 50.832 186.84 50.7227 186.316 50.7227C185.871 50.7227 185.488 50.8203 185.168 51.0156C184.848 51.2109 184.586 51.4844 184.383 51.8359C184.188 52.1875 184.039 52.6016 183.938 53.0781C183.844 53.5469 183.797 54.0625 183.797 54.625V55.0938C183.797 55.6016 183.867 56.0703 184.008 56.5C184.156 56.9297 184.363 57.3008 184.629 57.6133C184.902 57.9258 185.23 58.168 185.613 58.3398C186.004 58.5117 186.445 58.5977 186.938 58.5977C187.547 58.5977 188.113 58.4805 188.637 58.2461C189.168 58.0039 189.625 57.6406 190.008 57.1562L191.648 58.9375C191.383 59.3203 191.02 59.6875 190.559 60.0391C190.105 60.3906 189.559 60.6797 188.918 60.9062C188.277 61.125 187.547 61.2344 186.727 61.2344ZM201.34 58.2344V43H204.738V61H201.68L201.34 58.2344ZM193.324 54.8125V54.5664C193.324 53.5977 193.434 52.7188 193.652 51.9297C193.871 51.1328 194.191 50.4492 194.613 49.8789C195.035 49.3086 195.555 48.8672 196.172 48.5547C196.789 48.2422 197.492 48.0859 198.281 48.0859C199.023 48.0859 199.672 48.2422 200.227 48.5547C200.789 48.8672 201.266 49.3125 201.656 49.8906C202.055 50.4609 202.375 51.1367 202.617 51.918C202.859 52.6914 203.035 53.5391 203.145 54.4609V55C203.035 55.8828 202.859 56.7031 202.617 57.4609C202.375 58.2188 202.055 58.8828 201.656 59.4531C201.266 60.0156 200.789 60.4531 200.227 60.7656C199.664 61.0781 199.008 61.2344 198.258 61.2344C197.469 61.2344 196.766 61.0742 196.148 60.7539C195.539 60.4336 195.023 59.9844 194.602 59.4062C194.188 58.8281 193.871 58.1484 193.652 57.3672C193.434 56.5859 193.324 55.7344 193.324 54.8125ZM196.699 54.5664V54.8125C196.699 55.3359 196.738 55.8242 196.816 56.2773C196.902 56.7305 197.039 57.1328 197.227 57.4844C197.422 57.8281 197.672 58.0977 197.977 58.293C198.289 58.4805 198.668 58.5742 199.113 58.5742C199.691 58.5742 200.168 58.4453 200.543 58.1875C200.918 57.9219 201.203 57.5586 201.398 57.0977C201.602 56.6367 201.719 56.1055 201.75 55.5039V53.9688C201.727 53.4766 201.656 53.0352 201.539 52.6445C201.43 52.2461 201.266 51.9062 201.047 51.625C200.836 51.3438 200.57 51.125 200.25 50.9688C199.938 50.8125 199.566 50.7344 199.137 50.7344C198.699 50.7344 198.324 50.8359 198.012 51.0391C197.699 51.2344 197.445 51.5039 197.25 51.8477C197.062 52.1914 196.922 52.5977 196.828 53.0664C196.742 53.5273 196.699 54.0273 196.699 54.5664ZM210.938 43V61H207.551V43H210.938ZM217.488 59.5703L220.852 48.3203H224.473L219.375 62.9102C219.266 63.2305 219.117 63.5742 218.93 63.9414C218.75 64.3086 218.504 64.6562 218.191 64.9844C217.887 65.3203 217.5 65.5938 217.031 65.8047C216.57 66.0156 216.004 66.1211 215.332 66.1211C215.012 66.1211 214.75 66.1016 214.547 66.0625C214.344 66.0234 214.102 65.9688 213.82 65.8984V63.4258C213.906 63.4258 213.996 63.4258 214.09 63.4258C214.184 63.4336 214.273 63.4375 214.359 63.4375C214.805 63.4375 215.168 63.3867 215.449 63.2852C215.73 63.1836 215.957 63.0273 216.129 62.8164C216.301 62.6133 216.438 62.3477 216.539 62.0195L217.488 59.5703ZM216.082 48.3203L218.836 57.5078L219.316 61.082L217.02 61.3281L212.461 48.3203H216.082Z" fill="#888888"/>
<path d="M118.594 98.4219V104.75H101.086V98.4219H118.594ZM103.828 84.875V119H95.6016V84.875H103.828ZM124.125 84.875V119H115.922V84.875H124.125ZM127.992 106.578V106.086C127.992 104.227 128.258 102.516 128.789 100.953C129.32 99.375 130.102 98.0078 131.133 96.8516C132.164 95.6953 133.438 94.7969 134.953 94.1562C136.469 93.5 138.219 93.1719 140.203 93.1719C142.203 93.1719 143.961 93.5 145.477 94.1562C147.008 94.7969 148.289 95.6953 149.32 96.8516C150.352 98.0078 151.133 99.375 151.664 100.953C152.195 102.516 152.461 104.227 152.461 106.086V106.578C152.461 108.422 152.195 110.133 151.664 111.711C151.133 113.273 150.352 114.641 149.32 115.812C148.289 116.969 147.016 117.867 145.5 118.508C143.984 119.148 142.234 119.469 140.25 119.469C138.266 119.469 136.508 119.148 134.977 118.508C133.445 117.867 132.164 116.969 131.133 115.812C130.102 114.641 129.32 113.273 128.789 111.711C128.258 110.133 127.992 108.422 127.992 106.578ZM135.891 106.086V106.578C135.891 107.531 135.961 108.422 136.102 109.25C136.242 110.078 136.477 110.805 136.805 111.43C137.133 112.039 137.578 112.516 138.141 112.859C138.703 113.203 139.406 113.375 140.25 113.375C141.078 113.375 141.766 113.203 142.312 112.859C142.875 112.516 143.32 112.039 143.648 111.43C143.977 110.805 144.211 110.078 144.352 109.25C144.492 108.422 144.562 107.531 144.562 106.578V106.086C144.562 105.164 144.492 104.297 144.352 103.484C144.211 102.656 143.977 101.93 143.648 101.305C143.32 100.664 142.875 100.164 142.312 99.8047C141.75 99.4453 141.047 99.2656 140.203 99.2656C139.375 99.2656 138.68 99.4453 138.117 99.8047C137.57 100.164 137.133 100.664 136.805 101.305C136.477 101.93 136.242 102.656 136.102 103.484C135.961 104.297 135.891 105.164 135.891 106.086ZM163.688 111.453L168.375 93.6406H173.32L171.562 102.57L166.922 119H162.961L163.688 111.453ZM161.836 93.6406L164.742 111.312L165.07 119H160.266L154.266 93.6406H161.836ZM177.492 110.938L180.422 93.6406H187.992L182.039 119H177.234L177.492 110.938ZM173.883 93.6406L178.617 111.406L179.344 119H175.336L170.789 102.617L169.102 93.6406H173.883ZM218.297 84.875V119H210.07V84.875H218.297ZM228.562 84.875V91.2266H200.039V84.875H228.562ZM225.773 106.578V106.086C225.773 104.227 226.039 102.516 226.57 100.953C227.102 99.375 227.883 98.0078 228.914 96.8516C229.945 95.6953 231.219 94.7969 232.734 94.1562C234.25 93.5 236 93.1719 237.984 93.1719C239.984 93.1719 241.742 93.5 243.258 94.1562C244.789 94.7969 246.07 95.6953 247.102 96.8516C248.133 98.0078 248.914 99.375 249.445 100.953C249.977 102.516 250.242 104.227 250.242 106.086V106.578C250.242 108.422 249.977 110.133 249.445 111.711C248.914 113.273 248.133 114.641 247.102 115.812C246.07 116.969 244.797 117.867 243.281 118.508C241.766 119.148 240.016 119.469 238.031 119.469C236.047 119.469 234.289 119.148 232.758 118.508C231.227 117.867 229.945 116.969 228.914 115.812C227.883 114.641 227.102 113.273 226.57 111.711C226.039 110.133 225.773 108.422 225.773 106.578ZM233.672 106.086V106.578C233.672 107.531 233.742 108.422 233.883 109.25C234.023 110.078 234.258 110.805 234.586 111.43C234.914 112.039 235.359 112.516 235.922 112.859C236.484 113.203 237.188 113.375 238.031 113.375C238.859 113.375 239.547 113.203 240.094 112.859C240.656 112.516 241.102 112.039 241.43 111.43C241.758 110.805 241.992 110.078 242.133 109.25C242.273 108.422 242.344 107.531 242.344 106.578V106.086C242.344 105.164 242.273 104.297 242.133 103.484C241.992 102.656 241.758 101.93 241.43 101.305C241.102 100.664 240.656 100.164 240.094 99.8047C239.531 99.4453 238.828 99.2656 237.984 99.2656C237.156 99.2656 236.461 99.4453 235.898 99.8047C235.352 100.164 234.914 100.664 234.586 101.305C234.258 101.93 234.023 102.656 233.883 103.484C233.742 104.297 233.672 105.164 233.672 106.086ZM266.086 84.875H279.516C282.141 84.875 284.422 85.2656 286.359 86.0469C288.297 86.8281 289.789 87.9844 290.836 89.5156C291.898 91.0469 292.43 92.9375 292.43 95.1875C292.43 97.1406 292.125 98.7734 291.516 100.086C290.906 101.398 290.055 102.484 288.961 103.344C287.883 104.188 286.625 104.883 285.188 105.43L282.492 106.953H271.219L271.172 100.602H279.516C280.562 100.602 281.43 100.414 282.117 100.039C282.805 99.6641 283.32 99.1328 283.664 98.4453C284.023 97.7422 284.203 96.9062 284.203 95.9375C284.203 94.9531 284.023 94.1094 283.664 93.4062C283.305 92.7031 282.773 92.1641 282.07 91.7891C281.383 91.4141 280.531 91.2266 279.516 91.2266H274.312V119H266.086V84.875ZM284.766 119L277.219 103.906L285.938 103.859L293.578 118.648V119H284.766ZM311.836 112.836V93.6406H319.758V119H312.352L311.836 112.836ZM312.586 107.68L314.648 107.633C314.648 109.336 314.445 110.914 314.039 112.367C313.633 113.805 313.031 115.055 312.234 116.117C311.453 117.18 310.484 118.008 309.328 118.602C308.188 119.18 306.867 119.469 305.367 119.469C304.117 119.469 302.969 119.297 301.922 118.953C300.891 118.594 300 118.039 299.25 117.289C298.5 116.523 297.914 115.547 297.492 114.359C297.086 113.156 296.883 111.719 296.883 110.047V93.6406H304.781V110.094C304.781 110.656 304.852 111.141 304.992 111.547C305.133 111.953 305.336 112.297 305.602 112.578C305.867 112.844 306.195 113.047 306.586 113.188C306.992 113.312 307.453 113.375 307.969 113.375C309.156 113.375 310.086 113.125 310.758 112.625C311.43 112.125 311.898 111.445 312.164 110.586C312.445 109.727 312.586 108.758 312.586 107.68ZM331.875 99.0547V119H323.977V93.6406H331.383L331.875 99.0547ZM330.938 105.453L329.086 105.5C329.086 103.562 329.32 101.836 329.789 100.32C330.258 98.7891 330.922 97.4922 331.781 96.4297C332.641 95.3672 333.664 94.5625 334.852 94.0156C336.055 93.4531 337.391 93.1719 338.859 93.1719C340.031 93.1719 341.102 93.3438 342.07 93.6875C343.055 94.0312 343.898 94.5859 344.602 95.3516C345.32 96.1172 345.867 97.1328 346.242 98.3984C346.633 99.6484 346.828 101.195 346.828 103.039V119H338.883V103.016C338.883 102 338.742 101.227 338.461 100.695C338.18 100.148 337.773 99.7734 337.242 99.5703C336.711 99.3672 336.062 99.2656 335.297 99.2656C334.484 99.2656 333.797 99.4219 333.234 99.7344C332.672 100.047 332.219 100.484 331.875 101.047C331.547 101.594 331.305 102.242 331.148 102.992C331.008 103.742 330.938 104.562 330.938 105.453ZM363.773 108.195H357.047C357.047 106.82 357.141 105.609 357.328 104.562C357.531 103.5 357.875 102.547 358.359 101.703C358.844 100.859 359.5 100.078 360.328 99.3594C361.062 98.75 361.695 98.1641 362.227 97.6016C362.758 97.0391 363.164 96.4688 363.445 95.8906C363.727 95.3125 363.867 94.6953 363.867 94.0391C363.867 93.2266 363.75 92.5625 363.516 92.0469C363.297 91.5312 362.961 91.1484 362.508 90.8984C362.07 90.6328 361.516 90.5 360.844 90.5C360.297 90.5 359.781 90.6328 359.297 90.8984C358.828 91.1641 358.445 91.5781 358.148 92.1406C357.852 92.6875 357.688 93.4141 357.656 94.3203H349.711C349.758 91.9922 350.273 90.1016 351.258 88.6484C352.258 87.1797 353.586 86.1094 355.242 85.4375C356.914 84.75 358.781 84.4062 360.844 84.4062C363.125 84.4062 365.086 84.7578 366.727 85.4609C368.367 86.1641 369.625 87.2109 370.5 88.6016C371.375 89.9766 371.812 91.6719 371.812 93.6875C371.812 95.0312 371.555 96.2031 371.039 97.2031C370.539 98.1875 369.859 99.1094 369 99.9688C368.156 100.812 367.211 101.719 366.164 102.688C365.258 103.484 364.641 104.297 364.312 105.125C363.984 105.938 363.805 106.961 363.773 108.195ZM356.086 115.32C356.086 114.195 356.492 113.258 357.305 112.508C358.117 111.742 359.172 111.359 360.469 111.359C361.766 111.359 362.82 111.742 363.633 112.508C364.445 113.258 364.852 114.195 364.852 115.32C364.852 116.445 364.445 117.391 363.633 118.156C362.82 118.906 361.766 119.281 360.469 119.281C359.172 119.281 358.117 118.906 357.305 118.156C356.492 117.391 356.086 116.445 356.086 115.32Z" fill="black"/>
<path d="M1134 0H1348C1356.28 0 1363 6.71573 1363 15V148C1363 156.284 1356.28 163 1348 163H1134V0Z" fill="#2BC55F"/>
<path d="M1260.62 78.8078C1263.81 78.8078 1266.93 79.7552 1269.59 81.5302C1272.25 83.3052 1274.32 85.8281 1275.54 88.7798C1276.76 91.7315 1277.08 94.9795 1276.46 98.1131C1275.84 101.247 1274.3 104.125 1272.04 106.384C1269.78 108.643 1266.9 110.182 1263.77 110.805C1260.63 111.428 1257.39 111.108 1254.43 109.886C1251.48 108.663 1248.96 106.593 1247.18 103.936C1245.41 101.28 1244.46 98.1565 1244.46 94.9616C1244.46 90.6774 1246.16 86.5686 1249.19 83.5392C1252.22 80.5097 1256.33 78.8078 1260.62 78.8078V78.8078ZM1260.62 73.4232C1256.36 73.4232 1252.19 74.6864 1248.65 77.0531C1245.11 79.4198 1242.35 82.7836 1240.72 86.7192C1239.09 90.6549 1238.66 94.9855 1239.49 99.1636C1240.32 103.342 1242.37 107.179 1245.39 110.192C1248.4 113.204 1252.24 115.255 1256.41 116.086C1260.59 116.917 1264.92 116.491 1268.86 114.861C1272.79 113.23 1276.16 110.47 1278.52 106.928C1280.89 103.386 1282.15 99.2215 1282.15 94.9616C1282.15 89.2493 1279.88 83.7709 1275.85 79.7317C1271.81 75.6924 1266.33 73.4232 1260.62 73.4232Z" fill="white"/>
<path d="M1274.08 46.4999H1220.23C1218.8 46.4999 1217.43 47.0672 1216.42 48.0771C1215.41 49.0869 1214.85 50.4565 1214.85 51.8845V105.731C1214.85 107.159 1215.41 108.528 1216.42 109.538C1217.43 110.548 1218.8 111.115 1220.23 111.115H1231V105.731H1220.23V68.0383H1279.46V51.8845C1279.46 50.4565 1278.89 49.0869 1277.88 48.0771C1276.87 47.0672 1275.5 46.4999 1274.08 46.4999V46.4999ZM1220.23 62.6537V51.8845H1274.08V62.6537H1220.23Z" fill="white"/>
<path d="M1255.23 86.8848V103.039L1268.69 94.9617L1255.23 86.8848Z" fill="white"/>
</svg>
