<svg width="1363" height="163" viewBox="0 0 1363 163" fill="none" xmlns="http://www.w3.org/2000/svg">
<path d="M0 15C0 6.71573 6.71573 0 15 0H37V163H15C6.71573 163 0 156.284 0 148V15Z" fill="#424242"/>
<rect width="1097" height="163" transform="translate(37)" fill="#F0F0F0"/>
<path d="M101.906 53.9219L94.3945 51.2383V48.0859L104.602 52.375V54.6367L101.906 53.9219ZM94.3945 56.1719L101.918 53.4297L104.602 52.7852V55.0352L94.3945 59.3242V56.1719ZM112.898 43.9375H119.262C120.566 43.9375 121.688 44.1328 122.625 44.5234C123.57 44.9141 124.297 45.4922 124.805 46.2578C125.312 47.0234 125.566 47.9648 125.566 49.082C125.566 49.9961 125.41 50.7812 125.098 51.4375C124.793 52.0859 124.359 52.6289 123.797 53.0664C123.242 53.4961 122.59 53.8398 121.84 54.0977L120.727 54.6836H115.195L115.172 51.9414H119.285C119.902 51.9414 120.414 51.832 120.82 51.6133C121.227 51.3945 121.531 51.0898 121.734 50.6992C121.945 50.3086 122.051 49.8555 122.051 49.3398C122.051 48.793 121.949 48.3203 121.746 47.9219C121.543 47.5234 121.234 47.2188 120.82 47.0078C120.406 46.7969 119.887 46.6914 119.262 46.6914H116.414V61H112.898V43.9375ZM122.438 61L118.547 53.3945L122.262 53.3711L126.199 60.8359V61H122.438ZM133.898 61.2344C132.914 61.2344 132.031 61.0781 131.25 60.7656C130.469 60.4453 129.805 60.0039 129.258 59.4414C128.719 58.8789 128.305 58.2266 128.016 57.4844C127.727 56.7344 127.582 55.9375 127.582 55.0938V54.625C127.582 53.6641 127.719 52.7852 127.992 51.9883C128.266 51.1914 128.656 50.5 129.164 49.9141C129.68 49.3281 130.305 48.8789 131.039 48.5664C131.773 48.2461 132.602 48.0859 133.523 48.0859C134.422 48.0859 135.219 48.2344 135.914 48.5312C136.609 48.8281 137.191 49.25 137.66 49.7969C138.137 50.3438 138.496 51 138.738 51.7656C138.98 52.5234 139.102 53.3672 139.102 54.2969V55.7031H129.023V53.4531H135.785V53.1953C135.785 52.7266 135.699 52.3086 135.527 51.9414C135.363 51.5664 135.113 51.2695 134.777 51.0508C134.441 50.832 134.012 50.7227 133.488 50.7227C133.043 50.7227 132.66 50.8203 132.34 51.0156C132.02 51.2109 131.758 51.4844 131.555 51.8359C131.359 52.1875 131.211 52.6016 131.109 53.0781C131.016 53.5469 130.969 54.0625 130.969 54.625V55.0938C130.969 55.6016 131.039 56.0703 131.18 56.5C131.328 56.9297 131.535 57.3008 131.801 57.6133C132.074 57.9258 132.402 58.168 132.785 58.3398C133.176 58.5117 133.617 58.5977 134.109 58.5977C134.719 58.5977 135.285 58.4805 135.809 58.2461C136.34 58.0039 136.797 57.6406 137.18 57.1562L138.82 58.9375C138.555 59.3203 138.191 59.6875 137.73 60.0391C137.277 60.3906 136.73 60.6797 136.09 60.9062C135.449 61.125 134.719 61.2344 133.898 61.2344ZM141.211 48.3203H144.598V61.7617C144.598 62.6992 144.426 63.4922 144.082 64.1406C143.738 64.7891 143.242 65.2812 142.594 65.6172C141.945 65.9531 141.16 66.1211 140.238 66.1211C139.949 66.1211 139.668 66.1055 139.395 66.0742C139.113 66.043 138.824 65.9922 138.527 65.9219L138.539 63.332C138.727 63.3633 138.91 63.3867 139.09 63.4023C139.262 63.4258 139.438 63.4375 139.617 63.4375C139.969 63.4375 140.262 63.3789 140.496 63.2617C140.73 63.1445 140.906 62.9609 141.023 62.7109C141.148 62.4688 141.211 62.1523 141.211 61.7617V48.3203ZM140.941 45.0156C140.941 44.5234 141.113 44.1172 141.457 43.7969C141.809 43.4766 142.27 43.3164 142.84 43.3164C143.418 43.3164 143.879 43.4766 144.223 43.7969C144.566 44.1172 144.738 44.5234 144.738 45.0156C144.738 45.5078 144.566 45.9141 144.223 46.2344C143.879 46.5547 143.418 46.7148 142.84 46.7148C142.27 46.7148 141.809 46.5547 141.457 46.2344C141.113 45.9141 140.941 45.5078 140.941 45.0156ZM153.117 61.2344C152.133 61.2344 151.25 61.0781 150.469 60.7656C149.688 60.4453 149.023 60.0039 148.477 59.4414C147.938 58.8789 147.523 58.2266 147.234 57.4844C146.945 56.7344 146.801 55.9375 146.801 55.0938V54.625C146.801 53.6641 146.938 52.7852 147.211 51.9883C147.484 51.1914 147.875 50.5 148.383 49.9141C148.898 49.3281 149.523 48.8789 150.258 48.5664C150.992 48.2461 151.82 48.0859 152.742 48.0859C153.641 48.0859 154.438 48.2344 155.133 48.5312C155.828 48.8281 156.41 49.25 156.879 49.7969C157.355 50.3438 157.715 51 157.957 51.7656C158.199 52.5234 158.32 53.3672 158.32 54.2969V55.7031H148.242V53.4531H155.004V53.1953C155.004 52.7266 154.918 52.3086 154.746 51.9414C154.582 51.5664 154.332 51.2695 153.996 51.0508C153.66 50.832 153.23 50.7227 152.707 50.7227C152.262 50.7227 151.879 50.8203 151.559 51.0156C151.238 51.2109 150.977 51.4844 150.773 51.8359C150.578 52.1875 150.43 52.6016 150.328 53.0781C150.234 53.5469 150.188 54.0625 150.188 54.625V55.0938C150.188 55.6016 150.258 56.0703 150.398 56.5C150.547 56.9297 150.754 57.3008 151.02 57.6133C151.293 57.9258 151.621 58.168 152.004 58.3398C152.395 58.5117 152.836 58.5977 153.328 58.5977C153.938 58.5977 154.504 58.4805 155.027 58.2461C155.559 58.0039 156.016 57.6406 156.398 57.1562L158.039 58.9375C157.773 59.3203 157.41 59.6875 156.949 60.0391C156.496 60.3906 155.949 60.6797 155.309 60.9062C154.668 61.125 153.938 61.2344 153.117 61.2344ZM165.48 58.5977C165.895 58.5977 166.262 58.5195 166.582 58.3633C166.902 58.1992 167.152 57.9727 167.332 57.6836C167.52 57.3867 167.617 57.0391 167.625 56.6406H170.801C170.793 57.5312 170.555 58.3242 170.086 59.0195C169.617 59.707 168.988 60.25 168.199 60.6484C167.41 61.0391 166.527 61.2344 165.551 61.2344C164.566 61.2344 163.707 61.0703 162.973 60.7422C162.246 60.4141 161.641 59.9609 161.156 59.3828C160.672 58.7969 160.309 58.1172 160.066 57.3438C159.824 56.5625 159.703 55.7266 159.703 54.8359V54.4961C159.703 53.5977 159.824 52.7617 160.066 51.9883C160.309 51.207 160.672 50.5273 161.156 49.9492C161.641 49.3633 162.246 48.9062 162.973 48.5781C163.699 48.25 164.551 48.0859 165.527 48.0859C166.566 48.0859 167.477 48.2852 168.258 48.6836C169.047 49.082 169.664 49.6523 170.109 50.3945C170.562 51.1289 170.793 52 170.801 53.0078H167.625C167.617 52.5859 167.527 52.2031 167.355 51.8594C167.191 51.5156 166.949 51.2422 166.629 51.0391C166.316 50.8281 165.93 50.7227 165.469 50.7227C164.977 50.7227 164.574 50.8281 164.262 51.0391C163.949 51.2422 163.707 51.5234 163.535 51.8828C163.363 52.2344 163.242 52.6367 163.172 53.0898C163.109 53.5352 163.078 54.0039 163.078 54.4961V54.8359C163.078 55.3281 163.109 55.8008 163.172 56.2539C163.234 56.707 163.352 57.1094 163.523 57.4609C163.703 57.8125 163.949 58.0898 164.262 58.293C164.574 58.4961 164.98 58.5977 165.48 58.5977ZM178.969 48.3203V50.7109H171.586V48.3203H178.969ZM173.414 45.1914H176.789V57.1797C176.789 57.5469 176.836 57.8281 176.93 58.0234C177.031 58.2188 177.18 58.3555 177.375 58.4336C177.57 58.5039 177.816 58.5391 178.113 58.5391C178.324 58.5391 178.512 58.5312 178.676 58.5156C178.848 58.4922 178.992 58.4688 179.109 58.4453L179.121 60.9297C178.832 61.0234 178.52 61.0977 178.184 61.1523C177.848 61.207 177.477 61.2344 177.07 61.2344C176.328 61.2344 175.68 61.1133 175.125 60.8711C174.578 60.6211 174.156 60.2227 173.859 59.6758C173.562 59.1289 173.414 58.4102 173.414 57.5195V45.1914ZM186.727 61.2344C185.742 61.2344 184.859 61.0781 184.078 60.7656C183.297 60.4453 182.633 60.0039 182.086 59.4414C181.547 58.8789 181.133 58.2266 180.844 57.4844C180.555 56.7344 180.41 55.9375 180.41 55.0938V54.625C180.41 53.6641 180.547 52.7852 180.82 51.9883C181.094 51.1914 181.484 50.5 181.992 49.9141C182.508 49.3281 183.133 48.8789 183.867 48.5664C184.602 48.2461 185.43 48.0859 186.352 48.0859C187.25 48.0859 188.047 48.2344 188.742 48.5312C189.438 48.8281 190.02 49.25 190.488 49.7969C190.965 50.3438 191.324 51 191.566 51.7656C191.809 52.5234 191.93 53.3672 191.93 54.2969V55.7031H181.852V53.4531H188.613V53.1953C188.613 52.7266 188.527 52.3086 188.355 51.9414C188.191 51.5664 187.941 51.2695 187.605 51.0508C187.27 50.832 186.84 50.7227 186.316 50.7227C185.871 50.7227 185.488 50.8203 185.168 51.0156C184.848 51.2109 184.586 51.4844 184.383 51.8359C184.188 52.1875 184.039 52.6016 183.938 53.0781C183.844 53.5469 183.797 54.0625 183.797 54.625V55.0938C183.797 55.6016 183.867 56.0703 184.008 56.5C184.156 56.9297 184.363 57.3008 184.629 57.6133C184.902 57.9258 185.23 58.168 185.613 58.3398C186.004 58.5117 186.445 58.5977 186.938 58.5977C187.547 58.5977 188.113 58.4805 188.637 58.2461C189.168 58.0039 189.625 57.6406 190.008 57.1562L191.648 58.9375C191.383 59.3203 191.02 59.6875 190.559 60.0391C190.105 60.3906 189.559 60.6797 188.918 60.9062C188.277 61.125 187.547 61.2344 186.727 61.2344ZM201.34 58.2344V43H204.738V61H201.68L201.34 58.2344ZM193.324 54.8125V54.5664C193.324 53.5977 193.434 52.7188 193.652 51.9297C193.871 51.1328 194.191 50.4492 194.613 49.8789C195.035 49.3086 195.555 48.8672 196.172 48.5547C196.789 48.2422 197.492 48.0859 198.281 48.0859C199.023 48.0859 199.672 48.2422 200.227 48.5547C200.789 48.8672 201.266 49.3125 201.656 49.8906C202.055 50.4609 202.375 51.1367 202.617 51.918C202.859 52.6914 203.035 53.5391 203.145 54.4609V55C203.035 55.8828 202.859 56.7031 202.617 57.4609C202.375 58.2188 202.055 58.8828 201.656 59.4531C201.266 60.0156 200.789 60.4531 200.227 60.7656C199.664 61.0781 199.008 61.2344 198.258 61.2344C197.469 61.2344 196.766 61.0742 196.148 60.7539C195.539 60.4336 195.023 59.9844 194.602 59.4062C194.188 58.8281 193.871 58.1484 193.652 57.3672C193.434 56.5859 193.324 55.7344 193.324 54.8125ZM196.699 54.5664V54.8125C196.699 55.3359 196.738 55.8242 196.816 56.2773C196.902 56.7305 197.039 57.1328 197.227 57.4844C197.422 57.8281 197.672 58.0977 197.977 58.293C198.289 58.4805 198.668 58.5742 199.113 58.5742C199.691 58.5742 200.168 58.4453 200.543 58.1875C200.918 57.9219 201.203 57.5586 201.398 57.0977C201.602 56.6367 201.719 56.1055 201.75 55.5039V53.9688C201.727 53.4766 201.656 53.0352 201.539 52.6445C201.43 52.2461 201.266 51.9062 201.047 51.625C200.836 51.3438 200.57 51.125 200.25 50.9688C199.938 50.8125 199.566 50.7344 199.137 50.7344C198.699 50.7344 198.324 50.8359 198.012 51.0391C197.699 51.2344 197.445 51.5039 197.25 51.8477C197.062 52.1914 196.922 52.5977 196.828 53.0664C196.742 53.5273 196.699 54.0273 196.699 54.5664ZM210.938 43V61H207.551V43H210.938ZM217.488 59.5703L220.852 48.3203H224.473L219.375 62.9102C219.266 63.2305 219.117 63.5742 218.93 63.9414C218.75 64.3086 218.504 64.6562 218.191 64.9844C217.887 65.3203 217.5 65.5938 217.031 65.8047C216.57 66.0156 216.004 66.1211 215.332 66.1211C215.012 66.1211 214.75 66.1016 214.547 66.0625C214.344 66.0234 214.102 65.9688 213.82 65.8984V63.4258C213.906 63.4258 213.996 63.4258 214.09 63.4258C214.184 63.4336 214.273 63.4375 214.359 63.4375C214.805 63.4375 215.168 63.3867 215.449 63.2852C215.73 63.1836 215.957 63.0273 216.129 62.8164C216.301 62.6133 216.438 62.3477 216.539 62.0195L217.488 59.5703ZM216.082 48.3203L218.836 57.5078L219.316 61.082L217.02 61.3281L212.461 48.3203H216.082Z" fill="#888888"/>
<path d="M109.219 107.422H100.734V101.07H109.219C110.375 101.07 111.312 100.875 112.031 100.484C112.75 100.094 113.273 99.5547 113.602 98.8672C113.945 98.1641 114.117 97.375 114.117 96.5C114.117 95.5625 113.945 94.6953 113.602 93.8984C113.273 93.1016 112.75 92.4609 112.031 91.9766C111.312 91.4766 110.375 91.2266 109.219 91.2266H103.828V119H95.6016V84.875H109.219C111.953 84.875 114.305 85.375 116.273 86.375C118.258 87.375 119.781 88.75 120.844 90.5C121.906 92.2344 122.438 94.2188 122.438 96.4531C122.438 98.6562 121.906 100.578 120.844 102.219C119.781 103.859 118.258 105.141 116.273 106.062C114.305 106.969 111.953 107.422 109.219 107.422ZM134.461 99.9219V119H126.562V93.6406H133.945L134.461 99.9219ZM141.961 93.4531L141.82 100.789C141.508 100.758 141.086 100.719 140.555 100.672C140.023 100.625 139.578 100.602 139.219 100.602C138.297 100.602 137.5 100.711 136.828 100.93C136.172 101.133 135.625 101.445 135.188 101.867C134.766 102.273 134.453 102.789 134.25 103.414C134.062 104.039 133.977 104.766 133.992 105.594L132.562 104.656C132.562 102.953 132.727 101.406 133.055 100.016C133.398 98.6094 133.883 97.3984 134.508 96.3828C135.133 95.3516 135.891 94.5625 136.781 94.0156C137.672 93.4531 138.672 93.1719 139.781 93.1719C140.172 93.1719 140.555 93.1953 140.93 93.2422C141.32 93.2891 141.664 93.3594 141.961 93.4531ZM142.852 106.578V106.086C142.852 104.227 143.117 102.516 143.648 100.953C144.18 99.375 144.961 98.0078 145.992 96.8516C147.023 95.6953 148.297 94.7969 149.812 94.1562C151.328 93.5 153.078 93.1719 155.062 93.1719C157.062 93.1719 158.82 93.5 160.336 94.1562C161.867 94.7969 163.148 95.6953 164.18 96.8516C165.211 98.0078 165.992 99.375 166.523 100.953C167.055 102.516 167.32 104.227 167.32 106.086V106.578C167.32 108.422 167.055 110.133 166.523 111.711C165.992 113.273 165.211 114.641 164.18 115.812C163.148 116.969 161.875 117.867 160.359 118.508C158.844 119.148 157.094 119.469 155.109 119.469C153.125 119.469 151.367 119.148 149.836 118.508C148.305 117.867 147.023 116.969 145.992 115.812C144.961 114.641 144.18 113.273 143.648 111.711C143.117 110.133 142.852 108.422 142.852 106.578ZM150.75 106.086V106.578C150.75 107.531 150.82 108.422 150.961 109.25C151.102 110.078 151.336 110.805 151.664 111.43C151.992 112.039 152.438 112.516 153 112.859C153.562 113.203 154.266 113.375 155.109 113.375C155.938 113.375 156.625 113.203 157.172 112.859C157.734 112.516 158.18 112.039 158.508 111.43C158.836 110.805 159.07 110.078 159.211 109.25C159.352 108.422 159.422 107.531 159.422 106.578V106.086C159.422 105.164 159.352 104.297 159.211 103.484C159.07 102.656 158.836 101.93 158.508 101.305C158.18 100.664 157.734 100.164 157.172 99.8047C156.609 99.4453 155.906 99.2656 155.062 99.2656C154.234 99.2656 153.539 99.4453 152.977 99.8047C152.43 100.164 151.992 100.664 151.664 101.305C151.336 101.93 151.102 102.656 150.961 103.484C150.82 104.297 150.75 105.164 150.75 106.086ZM184.195 93.6406V99.125H168.914V93.6406H184.195ZM172.125 87.3359H180.023V110.727C180.023 111.398 180.102 111.922 180.258 112.297C180.414 112.656 180.68 112.914 181.055 113.07C181.445 113.211 181.961 113.281 182.602 113.281C183.055 113.281 183.43 113.273 183.727 113.258C184.023 113.227 184.305 113.188 184.57 113.141V118.789C183.898 119.008 183.195 119.172 182.461 119.281C181.727 119.406 180.945 119.469 180.117 119.469C178.43 119.469 176.984 119.203 175.781 118.672C174.594 118.141 173.688 117.305 173.062 116.164C172.438 115.023 172.125 113.539 172.125 111.711V87.3359ZM185.648 106.578V106.086C185.648 104.227 185.914 102.516 186.445 100.953C186.977 99.375 187.758 98.0078 188.789 96.8516C189.82 95.6953 191.094 94.7969 192.609 94.1562C194.125 93.5 195.875 93.1719 197.859 93.1719C199.859 93.1719 201.617 93.5 203.133 94.1562C204.664 94.7969 205.945 95.6953 206.977 96.8516C208.008 98.0078 208.789 99.375 209.32 100.953C209.852 102.516 210.117 104.227 210.117 106.086V106.578C210.117 108.422 209.852 110.133 209.32 111.711C208.789 113.273 208.008 114.641 206.977 115.812C205.945 116.969 204.672 117.867 203.156 118.508C201.641 119.148 199.891 119.469 197.906 119.469C195.922 119.469 194.164 119.148 192.633 118.508C191.102 117.867 189.82 116.969 188.789 115.812C187.758 114.641 186.977 113.273 186.445 111.711C185.914 110.133 185.648 108.422 185.648 106.578ZM193.547 106.086V106.578C193.547 107.531 193.617 108.422 193.758 109.25C193.898 110.078 194.133 110.805 194.461 111.43C194.789 112.039 195.234 112.516 195.797 112.859C196.359 113.203 197.062 113.375 197.906 113.375C198.734 113.375 199.422 113.203 199.969 112.859C200.531 112.516 200.977 112.039 201.305 111.43C201.633 110.805 201.867 110.078 202.008 109.25C202.148 108.422 202.219 107.531 202.219 106.578V106.086C202.219 105.164 202.148 104.297 202.008 103.484C201.867 102.656 201.633 101.93 201.305 101.305C200.977 100.664 200.531 100.164 199.969 99.8047C199.406 99.4453 198.703 99.2656 197.859 99.2656C197.031 99.2656 196.336 99.4453 195.773 99.8047C195.227 100.164 194.789 100.664 194.461 101.305C194.133 101.93 193.898 102.656 193.758 103.484C193.617 104.297 193.547 105.164 193.547 106.086ZM226.992 93.6406V99.125H211.711V93.6406H226.992ZM214.922 87.3359H222.82V110.727C222.82 111.398 222.898 111.922 223.055 112.297C223.211 112.656 223.477 112.914 223.852 113.07C224.242 113.211 224.758 113.281 225.398 113.281C225.852 113.281 226.227 113.273 226.523 113.258C226.82 113.227 227.102 113.188 227.367 113.141V118.789C226.695 119.008 225.992 119.172 225.258 119.281C224.523 119.406 223.742 119.469 222.914 119.469C221.227 119.469 219.781 119.203 218.578 118.672C217.391 118.141 216.484 117.305 215.859 116.164C215.234 115.023 214.922 113.539 214.922 111.711V87.3359ZM237.914 116.023L244.477 93.6406H252.961L242.766 122.773C242.547 123.414 242.258 124.102 241.898 124.836C241.539 125.586 241.047 126.297 240.422 126.969C239.797 127.641 238.992 128.188 238.008 128.609C237.039 129.031 235.836 129.242 234.398 129.242C233.633 129.242 233.07 129.203 232.711 129.125C232.367 129.062 231.836 128.945 231.117 128.773V123.125C231.32 123.125 231.492 123.125 231.633 123.125C231.789 123.125 231.961 123.125 232.148 123.125C232.992 123.125 233.664 123.039 234.164 122.867C234.68 122.695 235.07 122.445 235.336 122.117C235.617 121.789 235.836 121.391 235.992 120.922L237.914 116.023ZM236.25 93.6406L241.242 111.383L242.109 119.75H236.812L227.789 93.6406H236.25ZM262.992 98.5156V128.75H255.094V93.6406H262.453L262.992 98.5156ZM278.555 106.016V106.508C278.555 108.352 278.344 110.062 277.922 111.641C277.5 113.219 276.875 114.594 276.047 115.766C275.219 116.938 274.188 117.852 272.953 118.508C271.734 119.148 270.32 119.469 268.711 119.469C267.195 119.469 265.891 119.133 264.797 118.461C263.703 117.789 262.789 116.859 262.055 115.672C261.32 114.484 260.727 113.125 260.273 111.594C259.82 110.062 259.461 108.445 259.195 106.742V106.109C259.461 104.281 259.82 102.586 260.273 101.023C260.727 99.4453 261.32 98.0703 262.055 96.8984C262.789 95.7266 263.695 94.8125 264.773 94.1562C265.867 93.5 267.172 93.1719 268.688 93.1719C270.297 93.1719 271.711 93.4766 272.93 94.0859C274.164 94.6953 275.195 95.5703 276.023 96.7109C276.867 97.8359 277.5 99.1875 277.922 100.766C278.344 102.344 278.555 104.094 278.555 106.016ZM270.656 106.508V106.016C270.656 105.031 270.586 104.133 270.445 103.32C270.305 102.492 270.078 101.773 269.766 101.164C269.469 100.555 269.07 100.086 268.57 99.7578C268.07 99.4297 267.453 99.2656 266.719 99.2656C265.875 99.2656 265.164 99.3984 264.586 99.6641C264.023 99.9141 263.57 100.305 263.227 100.836C262.898 101.352 262.664 102 262.523 102.781C262.398 103.547 262.344 104.445 262.359 105.477V107.398C262.328 108.586 262.445 109.633 262.711 110.539C262.977 111.43 263.438 112.125 264.094 112.625C264.75 113.125 265.641 113.375 266.766 113.375C267.516 113.375 268.141 113.203 268.641 112.859C269.141 112.5 269.539 112.008 269.836 111.383C270.133 110.742 270.344 110.008 270.469 109.18C270.594 108.352 270.656 107.461 270.656 106.508ZM290.414 93.6406V119H282.492V93.6406H290.414ZM282.023 87.1016C282.023 85.9766 282.43 85.0547 283.242 84.3359C284.055 83.6172 285.109 83.2578 286.406 83.2578C287.703 83.2578 288.758 83.6172 289.57 84.3359C290.383 85.0547 290.789 85.9766 290.789 87.1016C290.789 88.2266 290.383 89.1484 289.57 89.8672C288.758 90.5859 287.703 90.9453 286.406 90.9453C285.109 90.9453 284.055 90.5859 283.242 89.8672C282.43 89.1484 282.023 88.2266 282.023 87.1016ZM303.047 99.0547V119H295.148V93.6406H302.555L303.047 99.0547ZM302.109 105.453L300.258 105.5C300.258 103.562 300.492 101.836 300.961 100.32C301.43 98.7891 302.094 97.4922 302.953 96.4297C303.812 95.3672 304.836 94.5625 306.023 94.0156C307.227 93.4531 308.562 93.1719 310.031 93.1719C311.203 93.1719 312.273 93.3438 313.242 93.6875C314.227 94.0312 315.07 94.5859 315.773 95.3516C316.492 96.1172 317.039 97.1328 317.414 98.3984C317.805 99.6484 318 101.195 318 103.039V119H310.055V103.016C310.055 102 309.914 101.227 309.633 100.695C309.352 100.148 308.945 99.7734 308.414 99.5703C307.883 99.3672 307.234 99.2656 306.469 99.2656C305.656 99.2656 304.969 99.4219 304.406 99.7344C303.844 100.047 303.391 100.484 303.047 101.047C302.719 101.594 302.477 102.242 302.32 102.992C302.18 103.742 302.109 104.562 302.109 105.453ZM338.32 93.6406H345.492V118.016C345.492 120.359 344.953 122.344 343.875 123.969C342.797 125.609 341.289 126.852 339.352 127.695C337.43 128.555 335.18 128.984 332.602 128.984C331.461 128.984 330.297 128.836 329.109 128.539C327.922 128.258 326.812 127.836 325.781 127.273C324.75 126.711 323.883 126.016 323.18 125.188L326.484 120.547C327.125 121.266 327.93 121.875 328.898 122.375C329.867 122.891 331.008 123.148 332.32 123.148C333.461 123.148 334.414 122.945 335.18 122.539C335.961 122.133 336.555 121.539 336.961 120.758C337.367 119.992 337.57 119.062 337.57 117.969V99.6406L338.32 93.6406ZM321.469 106.625V106.133C321.469 104.211 321.703 102.461 322.172 100.883C322.656 99.2891 323.344 97.9219 324.234 96.7812C325.141 95.625 326.234 94.7344 327.516 94.1094C328.797 93.4844 330.242 93.1719 331.852 93.1719C333.586 93.1719 335.008 93.5078 336.117 94.1797C337.242 94.8359 338.141 95.7578 338.812 96.9453C339.5 98.1328 340.031 99.5234 340.406 101.117C340.797 102.695 341.125 104.398 341.391 106.227V106.812C341.125 108.531 340.758 110.156 340.289 111.688C339.836 113.203 339.242 114.547 338.508 115.719C337.773 116.891 336.852 117.812 335.742 118.484C334.648 119.141 333.336 119.469 331.805 119.469C330.211 119.469 328.773 119.148 327.492 118.508C326.227 117.867 325.141 116.969 324.234 115.812C323.344 114.656 322.656 113.297 322.172 111.734C321.703 110.172 321.469 108.469 321.469 106.625ZM329.367 106.133V106.625C329.367 107.578 329.453 108.461 329.625 109.273C329.812 110.086 330.094 110.805 330.469 111.43C330.844 112.039 331.305 112.516 331.852 112.859C332.414 113.203 333.07 113.375 333.82 113.375C334.961 113.375 335.883 113.133 336.586 112.648C337.289 112.164 337.797 111.477 338.109 110.586C338.422 109.695 338.555 108.648 338.508 107.445V105.594C338.539 104.562 338.469 103.656 338.297 102.875C338.125 102.078 337.852 101.414 337.477 100.883C337.117 100.352 336.633 99.9531 336.023 99.6875C335.43 99.4062 334.711 99.2656 333.867 99.2656C333.133 99.2656 332.484 99.4375 331.922 99.7812C331.359 100.125 330.891 100.609 330.516 101.234C330.141 101.844 329.852 102.57 329.648 103.414C329.461 104.242 329.367 105.148 329.367 106.133Z" fill="black"/>
<path d="M1134 0H1348C1356.28 0 1363 6.71573 1363 15V148C1363 156.284 1356.28 163 1348 163H1134V0Z" fill="#2BC55F"/>
<path fill-rule="evenodd" clip-rule="evenodd" d="M1202.75 46.5018C1202.75 45.3973 1203.65 44.5018 1204.75 44.5018H1292.25C1293.35 44.5018 1294.25 45.3973 1294.25 46.5018V116.498C1294.25 117.603 1293.35 118.498 1292.25 118.498H1204.75C1203.65 118.498 1202.75 117.603 1202.75 116.498V46.5018ZM1206.75 48.5018V52.9963H1290.25V48.5018H1206.75ZM1290.25 56.9963H1235.19V114.498H1290.25V56.9963ZM1231.19 114.498V56.9963H1206.75V114.498H1231.19Z" fill="white"/>
<path fill-rule="evenodd" clip-rule="evenodd" d="M1209.72 62.3022C1209.72 61.1976 1210.62 60.3022 1211.72 60.3022H1225.72C1226.83 60.3022 1227.72 61.1976 1227.72 62.3022V81.6974C1227.72 82.802 1226.83 83.6974 1225.72 83.6974H1211.72C1210.62 83.6974 1209.72 82.802 1209.72 81.6974V62.3022ZM1213.72 64.3022V79.6974H1223.72V64.3022H1213.72ZM1239.33 63.1982C1239.33 62.0936 1240.22 61.1982 1241.33 61.1982H1284.25C1285.36 61.1982 1286.25 62.0936 1286.25 63.1982V109.407C1286.25 110.511 1285.36 111.407 1284.25 111.407H1241.33C1240.22 111.407 1239.33 110.511 1239.33 109.407V63.1982ZM1243.33 65.1982V107.407H1282.25V65.1982H1243.33ZM1209.56 93.4381C1209.56 92.3336 1210.46 91.4381 1211.56 91.4381H1220.48C1221.59 91.4381 1222.48 92.3336 1222.48 93.4381C1222.48 94.5427 1221.59 95.4381 1220.48 95.4381H1211.56C1210.46 95.4381 1209.56 94.5427 1209.56 93.4381ZM1209.56 100.438C1209.56 99.3335 1210.46 98.4381 1211.56 98.4381H1226.1C1227.21 98.4381 1228.1 99.3335 1228.1 100.438C1228.1 101.543 1227.21 102.438 1226.1 102.438H1211.56C1210.46 102.438 1209.56 101.543 1209.56 100.438ZM1209.56 107.438C1209.56 106.334 1210.46 105.438 1211.56 105.438H1220.48C1221.59 105.438 1222.48 106.334 1222.48 107.438C1222.48 108.543 1221.59 109.438 1220.48 109.438H1211.56C1210.46 109.438 1209.56 108.543 1209.56 107.438Z" fill="white"/>
</svg>
