<svg width="1363" height="297" viewBox="0 0 1363 297" fill="none" xmlns="http://www.w3.org/2000/svg">
<path d="M0 15C0 6.71573 6.71573 0 15 0H37V297H15C6.71573 297 0 290.284 0 282V15Z" fill="#2BC55F"/>
<path d="M37 0H1066V297H37V0Z" fill="#F0F0F0"/>
<path d="M95.2852 49.4062H104.83C106.787 49.4062 108.469 49.6992 109.875 50.2852C111.293 50.8711 112.383 51.7383 113.145 52.8867C113.906 54.0352 114.287 55.4473 114.287 57.123C114.287 58.4941 114.053 59.6719 113.584 60.6562C113.127 61.6289 112.477 62.4434 111.633 63.0996C110.801 63.7441 109.822 64.2598 108.697 64.6465L107.027 65.5254H98.7305L98.6953 61.4121H104.865C105.791 61.4121 106.559 61.248 107.168 60.9199C107.777 60.5918 108.234 60.1348 108.539 59.5488C108.855 58.9629 109.014 58.2832 109.014 57.5098C109.014 56.6895 108.861 55.9805 108.557 55.3828C108.252 54.7852 107.789 54.3281 107.168 54.0117C106.547 53.6953 105.768 53.5371 104.83 53.5371H100.559V75H95.2852V49.4062ZM109.594 75L103.758 63.5918L109.33 63.5566L115.236 74.7539V75H109.594ZM123.375 55.9805V75H118.295V55.9805H123.375ZM117.979 51.0234C117.979 50.2852 118.236 49.6758 118.752 49.1953C119.268 48.7148 119.959 48.4746 120.826 48.4746C121.682 48.4746 122.367 48.7148 122.883 49.1953C123.41 49.6758 123.674 50.2852 123.674 51.0234C123.674 51.7617 123.41 52.3711 122.883 52.8516C122.367 53.332 121.682 53.5723 120.826 53.5723C119.959 53.5723 119.268 53.332 118.752 52.8516C118.236 52.3711 117.979 51.7617 117.979 51.0234ZM132.621 59.918V75H127.541V55.9805H132.305L132.621 59.918ZM131.918 64.8223H130.512C130.512 63.498 130.67 62.2793 130.986 61.166C131.314 60.041 131.789 59.0684 132.41 58.248C133.043 57.416 133.822 56.7715 134.748 56.3145C135.674 55.8574 136.746 55.6289 137.965 55.6289C138.809 55.6289 139.582 55.7578 140.285 56.0156C140.988 56.2617 141.592 56.6543 142.096 57.1934C142.611 57.7207 143.01 58.4121 143.291 59.2676C143.572 60.1113 143.713 61.125 143.713 62.3086V75H138.65V62.8711C138.65 62.0039 138.533 61.3359 138.299 60.8672C138.064 60.3984 137.73 60.0703 137.297 59.8828C136.875 59.6953 136.365 59.6016 135.768 59.6016C135.111 59.6016 134.537 59.7363 134.045 60.0059C133.564 60.2754 133.166 60.6504 132.85 61.1309C132.533 61.5996 132.299 62.1504 132.146 62.7832C131.994 63.416 131.918 64.0957 131.918 64.8223ZM143.238 64.2422L141.428 64.4707C141.428 63.2285 141.58 62.0742 141.885 61.0078C142.201 59.9414 142.664 59.0039 143.273 58.1953C143.895 57.3867 144.662 56.7598 145.576 56.3145C146.49 55.8574 147.545 55.6289 148.74 55.6289C149.654 55.6289 150.486 55.7637 151.236 56.0332C151.986 56.291 152.625 56.707 153.152 57.2812C153.691 57.8438 154.102 58.582 154.383 59.4961C154.676 60.4102 154.822 61.5293 154.822 62.8535V75H149.742V62.8535C149.742 61.9746 149.625 61.3066 149.391 60.8496C149.168 60.3809 148.84 60.0586 148.406 59.8828C147.984 59.6953 147.48 59.6016 146.895 59.6016C146.285 59.6016 145.752 59.7246 145.295 59.9707C144.838 60.2051 144.457 60.5332 144.152 60.9551C143.848 61.377 143.619 61.8691 143.467 62.4316C143.314 62.9824 143.238 63.5859 143.238 64.2422ZM169.008 70.7109V62.2383C169.008 61.6289 168.908 61.1074 168.709 60.6738C168.51 60.2285 168.199 59.8828 167.777 59.6367C167.367 59.3906 166.834 59.2676 166.178 59.2676C165.615 59.2676 165.129 59.3672 164.719 59.5664C164.309 59.7539 163.992 60.0293 163.77 60.3926C163.547 60.7441 163.436 61.1602 163.436 61.6406H158.373C158.373 60.832 158.561 60.0645 158.936 59.3379C159.311 58.6113 159.855 57.9727 160.57 57.4219C161.285 56.8594 162.135 56.4199 163.119 56.1035C164.115 55.7871 165.229 55.6289 166.459 55.6289C167.936 55.6289 169.248 55.875 170.396 56.3672C171.545 56.8594 172.447 57.5977 173.104 58.582C173.771 59.5664 174.105 60.7969 174.105 62.2734V70.4121C174.105 71.4551 174.17 72.3105 174.299 72.9785C174.428 73.6348 174.615 74.209 174.861 74.7012V75H169.746C169.5 74.4844 169.312 73.8398 169.184 73.0664C169.066 72.2812 169.008 71.4961 169.008 70.7109ZM169.676 63.416L169.711 66.2812H166.881C166.213 66.2812 165.633 66.3574 165.141 66.5098C164.648 66.6621 164.244 66.8789 163.928 67.1602C163.611 67.4297 163.377 67.7461 163.225 68.1094C163.084 68.4727 163.014 68.8711 163.014 69.3047C163.014 69.7383 163.113 70.1309 163.312 70.4824C163.512 70.8223 163.799 71.0918 164.174 71.291C164.549 71.4785 164.988 71.5723 165.492 71.5723C166.254 71.5723 166.916 71.4199 167.479 71.1152C168.041 70.8105 168.475 70.4355 168.779 69.9902C169.096 69.5449 169.26 69.123 169.271 68.7246L170.607 70.8691C170.42 71.3496 170.162 71.8477 169.834 72.3633C169.518 72.8789 169.113 73.3652 168.621 73.8223C168.129 74.2676 167.537 74.6367 166.846 74.9297C166.154 75.2109 165.334 75.3516 164.385 75.3516C163.178 75.3516 162.082 75.1113 161.098 74.6309C160.125 74.1387 159.352 73.4648 158.777 72.6094C158.215 71.7422 157.934 70.7578 157.934 69.6562C157.934 68.6602 158.121 67.7754 158.496 67.002C158.871 66.2285 159.422 65.5781 160.148 65.0508C160.887 64.5117 161.807 64.1074 162.908 63.8379C164.01 63.5566 165.287 63.416 166.74 63.416H169.676ZM197.695 53.7832L190.734 75H185.127L194.637 49.4062H198.205L197.695 53.7832ZM203.479 75L196.5 53.7832L195.938 49.4062H199.541L209.104 75H203.479ZM203.162 65.4727V69.6035H189.645V65.4727H203.162ZM211.16 48H216.223V70.6406L215.713 75H211.16V48ZM228.264 65.2969V65.666C228.264 67.084 228.111 68.3848 227.807 69.5684C227.514 70.752 227.057 71.7773 226.436 72.6445C225.814 73.5 225.041 74.168 224.115 74.6484C223.201 75.1172 222.123 75.3516 220.881 75.3516C219.721 75.3516 218.713 75.1172 217.857 74.6484C217.014 74.1797 216.305 73.5176 215.73 72.6621C215.156 71.8066 214.693 70.8047 214.342 69.6562C213.99 68.5078 213.727 67.2539 213.551 65.8945V65.0859C213.727 63.7266 213.99 62.4727 214.342 61.3242C214.693 60.1758 215.156 59.1738 215.73 58.3184C216.305 57.4629 217.014 56.8008 217.857 56.332C218.701 55.8633 219.697 55.6289 220.846 55.6289C222.1 55.6289 223.189 55.8691 224.115 56.3496C225.053 56.8184 225.826 57.4863 226.436 58.3535C227.057 59.209 227.514 60.2285 227.807 61.4121C228.111 62.584 228.264 63.8789 228.264 65.2969ZM223.201 65.666V65.2969C223.201 64.5234 223.143 63.7969 223.025 63.1172C222.92 62.4258 222.732 61.8223 222.463 61.3066C222.193 60.7793 221.824 60.3633 221.355 60.0586C220.898 59.7539 220.307 59.6016 219.58 59.6016C218.889 59.6016 218.303 59.7188 217.822 59.9531C217.342 60.1875 216.943 60.5156 216.627 60.9375C216.322 61.3594 216.094 61.8633 215.941 62.4492C215.789 63.0234 215.695 63.6562 215.66 64.3477V66.6504C215.695 67.5762 215.848 68.3965 216.117 69.1113C216.398 69.8145 216.82 70.3711 217.383 70.7812C217.957 71.1797 218.701 71.3789 219.615 71.3789C220.33 71.3789 220.922 71.2383 221.391 70.957C221.859 70.6758 222.223 70.2773 222.48 69.7617C222.75 69.2461 222.938 68.6426 223.043 67.9512C223.148 67.248 223.201 66.4863 223.201 65.666ZM230.602 65.6836V65.3145C230.602 63.9199 230.801 62.6367 231.199 61.4648C231.598 60.2812 232.178 59.2559 232.939 58.3887C233.701 57.5215 234.639 56.8477 235.752 56.3672C236.865 55.875 238.143 55.6289 239.584 55.6289C241.025 55.6289 242.309 55.875 243.434 56.3672C244.559 56.8477 245.502 57.5215 246.264 58.3887C247.037 59.2559 247.623 60.2812 248.021 61.4648C248.42 62.6367 248.619 63.9199 248.619 65.3145V65.6836C248.619 67.0664 248.42 68.3496 248.021 69.5332C247.623 70.7051 247.037 71.7305 246.264 72.6094C245.502 73.4766 244.564 74.1504 243.451 74.6309C242.338 75.1113 241.061 75.3516 239.619 75.3516C238.178 75.3516 236.895 75.1113 235.77 74.6309C234.656 74.1504 233.713 73.4766 232.939 72.6094C232.178 71.7305 231.598 70.7051 231.199 69.5332C230.801 68.3496 230.602 67.0664 230.602 65.6836ZM235.664 65.3145V65.6836C235.664 66.4805 235.734 67.2246 235.875 67.916C236.016 68.6074 236.238 69.2168 236.543 69.7441C236.859 70.2598 237.27 70.6641 237.773 70.957C238.277 71.25 238.893 71.3965 239.619 71.3965C240.322 71.3965 240.926 71.25 241.43 70.957C241.934 70.6641 242.338 70.2598 242.643 69.7441C242.947 69.2168 243.17 68.6074 243.311 67.916C243.463 67.2246 243.539 66.4805 243.539 65.6836V65.3145C243.539 64.541 243.463 63.8145 243.311 63.1348C243.17 62.4434 242.941 61.834 242.625 61.3066C242.32 60.7676 241.916 60.3457 241.412 60.041C240.908 59.7363 240.299 59.584 239.584 59.584C238.869 59.584 238.26 59.7363 237.756 60.041C237.264 60.3457 236.859 60.7676 236.543 61.3066C236.238 61.834 236.016 62.4434 235.875 63.1348C235.734 63.8145 235.664 64.541 235.664 65.3145ZM262.98 70.4473V55.9805H268.043V75H263.279L262.98 70.4473ZM263.543 66.5449L265.037 66.5098C265.037 67.7754 264.891 68.9531 264.598 70.043C264.305 71.1211 263.865 72.0586 263.279 72.8555C262.693 73.6406 261.955 74.2559 261.064 74.7012C260.174 75.1348 259.125 75.3516 257.918 75.3516C256.992 75.3516 256.137 75.2227 255.352 74.9648C254.578 74.6953 253.91 74.2793 253.348 73.7168C252.797 73.1426 252.363 72.4102 252.047 71.5195C251.742 70.6172 251.59 69.5332 251.59 68.2676V55.9805H256.652V68.3027C256.652 68.8652 256.717 69.3398 256.846 69.7266C256.986 70.1133 257.18 70.4297 257.426 70.6758C257.672 70.9219 257.959 71.0977 258.287 71.2031C258.627 71.3086 259.002 71.3613 259.412 71.3613C260.455 71.3613 261.275 71.1504 261.873 70.7285C262.482 70.3066 262.91 69.7324 263.156 69.0059C263.414 68.2676 263.543 67.4473 263.543 66.5449ZM296.027 66.5098H301.283C301.178 68.2324 300.703 69.7617 299.859 71.0977C299.027 72.4336 297.861 73.4766 296.361 74.2266C294.873 74.9766 293.08 75.3516 290.982 75.3516C289.342 75.3516 287.871 75.0703 286.57 74.5078C285.27 73.9336 284.156 73.1133 283.23 72.0469C282.316 70.9805 281.619 69.6914 281.139 68.1797C280.658 66.668 280.418 64.9746 280.418 63.0996V61.3242C280.418 59.4492 280.664 57.7559 281.156 56.2441C281.66 54.7207 282.375 53.4258 283.301 52.3594C284.238 51.293 285.357 50.4727 286.658 49.8984C287.959 49.3242 289.412 49.0371 291.018 49.0371C293.15 49.0371 294.949 49.4238 296.414 50.1973C297.891 50.9707 299.033 52.0371 299.842 53.3965C300.662 54.7559 301.154 56.3027 301.318 58.0371H296.045C295.986 57.0059 295.781 56.1328 295.43 55.418C295.078 54.6914 294.545 54.1465 293.83 53.7832C293.127 53.4082 292.189 53.2207 291.018 53.2207C290.139 53.2207 289.371 53.3848 288.715 53.7129C288.059 54.041 287.508 54.5391 287.062 55.207C286.617 55.875 286.283 56.7188 286.061 57.7383C285.85 58.7461 285.744 59.9297 285.744 61.2891V63.0996C285.744 64.4238 285.844 65.5898 286.043 66.5977C286.242 67.5938 286.547 68.4375 286.957 69.1289C287.379 69.8086 287.918 70.3242 288.574 70.6758C289.242 71.0156 290.045 71.1855 290.982 71.1855C292.084 71.1855 292.992 71.0098 293.707 70.6582C294.422 70.3066 294.967 69.7852 295.342 69.0938C295.729 68.4023 295.957 67.541 296.027 66.5098ZM309.369 48V75H304.307V48H309.369ZM308.648 64.8223H307.26C307.271 63.498 307.447 62.2793 307.787 61.166C308.127 60.041 308.613 59.0684 309.246 58.248C309.879 57.416 310.635 56.7715 311.514 56.3145C312.404 55.8574 313.389 55.6289 314.467 55.6289C315.404 55.6289 316.254 55.7637 317.016 56.0332C317.789 56.291 318.451 56.7129 319.002 57.2988C319.564 57.873 319.998 58.6289 320.303 59.5664C320.607 60.5039 320.76 61.6406 320.76 62.9766V75H315.662V62.9414C315.662 62.0977 315.539 61.4355 315.293 60.9551C315.059 60.4629 314.713 60.1172 314.256 59.918C313.811 59.707 313.26 59.6016 312.604 59.6016C311.877 59.6016 311.256 59.7363 310.74 60.0059C310.236 60.2754 309.832 60.6504 309.527 61.1309C309.223 61.5996 309 62.1504 308.859 62.7832C308.719 63.416 308.648 64.0957 308.648 64.8223ZM334.875 70.7109V62.2383C334.875 61.6289 334.775 61.1074 334.576 60.6738C334.377 60.2285 334.066 59.8828 333.645 59.6367C333.234 59.3906 332.701 59.2676 332.045 59.2676C331.482 59.2676 330.996 59.3672 330.586 59.5664C330.176 59.7539 329.859 60.0293 329.637 60.3926C329.414 60.7441 329.303 61.1602 329.303 61.6406H324.24C324.24 60.832 324.428 60.0645 324.803 59.3379C325.178 58.6113 325.723 57.9727 326.438 57.4219C327.152 56.8594 328.002 56.4199 328.986 56.1035C329.982 55.7871 331.096 55.6289 332.326 55.6289C333.803 55.6289 335.115 55.875 336.264 56.3672C337.412 56.8594 338.314 57.5977 338.971 58.582C339.639 59.5664 339.973 60.7969 339.973 62.2734V70.4121C339.973 71.4551 340.037 72.3105 340.166 72.9785C340.295 73.6348 340.482 74.209 340.729 74.7012V75H335.613C335.367 74.4844 335.18 73.8398 335.051 73.0664C334.934 72.2812 334.875 71.4961 334.875 70.7109ZM335.543 63.416L335.578 66.2812H332.748C332.08 66.2812 331.5 66.3574 331.008 66.5098C330.516 66.6621 330.111 66.8789 329.795 67.1602C329.479 67.4297 329.244 67.7461 329.092 68.1094C328.951 68.4727 328.881 68.8711 328.881 69.3047C328.881 69.7383 328.98 70.1309 329.18 70.4824C329.379 70.8223 329.666 71.0918 330.041 71.291C330.416 71.4785 330.855 71.5723 331.359 71.5723C332.121 71.5723 332.783 71.4199 333.346 71.1152C333.908 70.8105 334.342 70.4355 334.646 69.9902C334.963 69.5449 335.127 69.123 335.139 68.7246L336.475 70.8691C336.287 71.3496 336.029 71.8477 335.701 72.3633C335.385 72.8789 334.98 73.3652 334.488 73.8223C333.996 74.2676 333.404 74.6367 332.713 74.9297C332.021 75.2109 331.201 75.3516 330.252 75.3516C329.045 75.3516 327.949 75.1113 326.965 74.6309C325.992 74.1387 325.219 73.4648 324.645 72.6094C324.082 71.7422 323.801 70.7578 323.801 69.6562C323.801 68.6602 323.988 67.7754 324.363 67.002C324.738 66.2285 325.289 65.5781 326.016 65.0508C326.754 64.5117 327.674 64.1074 328.775 63.8379C329.877 63.5566 331.154 63.416 332.607 63.416H335.543ZM351.732 71.3965C352.354 71.3965 352.904 71.2793 353.385 71.0449C353.865 70.7988 354.24 70.459 354.51 70.0254C354.791 69.5801 354.938 69.0586 354.949 68.4609H359.713C359.701 69.7969 359.344 70.9863 358.641 72.0293C357.938 73.0605 356.994 73.875 355.811 74.4727C354.627 75.0586 353.303 75.3516 351.838 75.3516C350.361 75.3516 349.072 75.1055 347.971 74.6133C346.881 74.1211 345.973 73.4414 345.246 72.5742C344.52 71.6953 343.975 70.6758 343.611 69.5156C343.248 68.3438 343.066 67.0898 343.066 65.7539V65.2441C343.066 63.8965 343.248 62.6426 343.611 61.4824C343.975 60.3105 344.52 59.291 345.246 58.4238C345.973 57.5449 346.881 56.8594 347.971 56.3672C349.061 55.875 350.338 55.6289 351.803 55.6289C353.361 55.6289 354.727 55.9277 355.898 56.5254C357.082 57.123 358.008 57.9785 358.676 59.0918C359.355 60.1934 359.701 61.5 359.713 63.0117H354.949C354.938 62.3789 354.803 61.8047 354.545 61.2891C354.299 60.7734 353.936 60.3633 353.455 60.0586C352.986 59.7422 352.406 59.584 351.715 59.584C350.977 59.584 350.373 59.7422 349.904 60.0586C349.436 60.3633 349.072 60.7852 348.814 61.3242C348.557 61.8516 348.375 62.4551 348.27 63.1348C348.176 63.8027 348.129 64.5059 348.129 65.2441V65.7539C348.129 66.4922 348.176 67.2012 348.27 67.8809C348.363 68.5605 348.539 69.1641 348.797 69.6914C349.066 70.2188 349.436 70.6348 349.904 70.9395C350.373 71.2441 350.982 71.3965 351.732 71.3965ZM367.711 60.1289V75H362.648V55.9805H367.412L367.711 60.1289ZM373.441 55.8574L373.354 60.5508C373.107 60.5156 372.809 60.4863 372.457 60.4629C372.117 60.4277 371.807 60.4102 371.525 60.4102C370.811 60.4102 370.189 60.5039 369.662 60.6914C369.146 60.8672 368.713 61.1309 368.361 61.4824C368.021 61.834 367.764 62.2617 367.588 62.7656C367.424 63.2695 367.33 63.8438 367.307 64.4883L366.287 64.1719C366.287 62.9414 366.41 61.8105 366.656 60.7793C366.902 59.7363 367.26 58.8281 367.729 58.0547C368.209 57.2812 368.795 56.6836 369.486 56.2617C370.178 55.8398 370.969 55.6289 371.859 55.6289C372.141 55.6289 372.428 55.6523 372.721 55.6992C373.014 55.7344 373.254 55.7871 373.441 55.8574ZM385.5 70.7109V62.2383C385.5 61.6289 385.4 61.1074 385.201 60.6738C385.002 60.2285 384.691 59.8828 384.27 59.6367C383.859 59.3906 383.326 59.2676 382.67 59.2676C382.107 59.2676 381.621 59.3672 381.211 59.5664C380.801 59.7539 380.484 60.0293 380.262 60.3926C380.039 60.7441 379.928 61.1602 379.928 61.6406H374.865C374.865 60.832 375.053 60.0645 375.428 59.3379C375.803 58.6113 376.348 57.9727 377.062 57.4219C377.777 56.8594 378.627 56.4199 379.611 56.1035C380.607 55.7871 381.721 55.6289 382.951 55.6289C384.428 55.6289 385.74 55.875 386.889 56.3672C388.037 56.8594 388.939 57.5977 389.596 58.582C390.264 59.5664 390.598 60.7969 390.598 62.2734V70.4121C390.598 71.4551 390.662 72.3105 390.791 72.9785C390.92 73.6348 391.107 74.209 391.354 74.7012V75H386.238C385.992 74.4844 385.805 73.8398 385.676 73.0664C385.559 72.2812 385.5 71.4961 385.5 70.7109ZM386.168 63.416L386.203 66.2812H383.373C382.705 66.2812 382.125 66.3574 381.633 66.5098C381.141 66.6621 380.736 66.8789 380.42 67.1602C380.104 67.4297 379.869 67.7461 379.717 68.1094C379.576 68.4727 379.506 68.8711 379.506 69.3047C379.506 69.7383 379.605 70.1309 379.805 70.4824C380.004 70.8223 380.291 71.0918 380.666 71.291C381.041 71.4785 381.48 71.5723 381.984 71.5723C382.746 71.5723 383.408 71.4199 383.971 71.1152C384.533 70.8105 384.967 70.4355 385.271 69.9902C385.588 69.5449 385.752 69.123 385.764 68.7246L387.1 70.8691C386.912 71.3496 386.654 71.8477 386.326 72.3633C386.01 72.8789 385.605 73.3652 385.113 73.8223C384.621 74.2676 384.029 74.6367 383.338 74.9297C382.646 75.2109 381.826 75.3516 380.877 75.3516C379.67 75.3516 378.574 75.1113 377.59 74.6309C376.617 74.1387 375.844 73.4648 375.27 72.6094C374.707 71.7422 374.426 70.7578 374.426 69.6562C374.426 68.6602 374.613 67.7754 374.988 67.002C375.363 66.2285 375.914 65.5781 376.641 65.0508C377.379 64.5117 378.299 64.1074 379.4 63.8379C380.502 63.5566 381.779 63.416 383.232 63.416H386.168Z" fill="#888888"/>
<path d="M96.0352 100.188H111.703C114.766 100.188 117.427 100.643 119.688 101.555C121.948 102.466 123.689 103.815 124.91 105.602C126.15 107.388 126.77 109.594 126.77 112.219C126.77 114.497 126.414 116.402 125.703 117.934C124.992 119.465 123.999 120.732 122.723 121.734C121.465 122.719 119.997 123.53 118.32 124.168L115.176 125.945H102.023L101.969 118.535H111.703C112.924 118.535 113.936 118.316 114.738 117.879C115.54 117.441 116.142 116.822 116.543 116.02C116.962 115.199 117.172 114.224 117.172 113.094C117.172 111.945 116.962 110.961 116.543 110.141C116.124 109.32 115.504 108.691 114.684 108.254C113.882 107.816 112.888 107.598 111.703 107.598H105.633V140H96.0352V100.188ZM117.828 140L109.023 122.391L119.195 122.336L128.109 139.59V140H117.828ZM146.457 140.547C144.051 140.547 141.9 140.173 140.004 139.426C138.108 138.66 136.504 137.612 135.191 136.281C133.897 134.951 132.904 133.419 132.211 131.688C131.536 129.956 131.199 128.124 131.199 126.191V125.152C131.199 122.983 131.5 120.978 132.102 119.137C132.703 117.277 133.596 115.655 134.781 114.27C135.966 112.884 137.452 111.809 139.238 111.043C141.025 110.259 143.103 109.867 145.473 109.867C147.569 109.867 149.447 110.204 151.105 110.879C152.764 111.553 154.168 112.52 155.316 113.777C156.483 115.035 157.367 116.557 157.969 118.344C158.589 120.13 158.898 122.135 158.898 124.359V128.105H134.727V122.336H149.902V121.625C149.921 120.641 149.747 119.802 149.383 119.109C149.036 118.417 148.526 117.888 147.852 117.523C147.177 117.159 146.357 116.977 145.391 116.977C144.388 116.977 143.559 117.195 142.902 117.633C142.264 118.07 141.763 118.672 141.398 119.438C141.052 120.185 140.806 121.051 140.66 122.035C140.514 123.02 140.441 124.059 140.441 125.152V126.191C140.441 127.285 140.587 128.279 140.879 129.172C141.189 130.065 141.626 130.831 142.191 131.469C142.775 132.089 143.467 132.572 144.27 132.918C145.09 133.264 146.02 133.438 147.059 133.438C148.316 133.438 149.556 133.201 150.777 132.727C151.999 132.253 153.047 131.469 153.922 130.375L158.105 135.352C157.504 136.208 156.647 137.038 155.535 137.84C154.441 138.642 153.129 139.298 151.598 139.809C150.066 140.301 148.353 140.547 146.457 140.547ZM163.328 110.414H172.57V140.957C172.57 143.327 172.115 145.323 171.203 146.945C170.292 148.586 168.988 149.826 167.293 150.664C165.598 151.521 163.574 151.949 161.223 151.949C160.439 151.949 159.719 151.913 159.062 151.84C158.388 151.785 157.65 151.667 156.848 151.484V144.512C157.322 144.585 157.759 144.639 158.16 144.676C158.561 144.73 158.999 144.758 159.473 144.758C160.311 144.758 161.013 144.621 161.578 144.348C162.143 144.074 162.572 143.655 162.863 143.09C163.173 142.525 163.328 141.814 163.328 140.957V110.414ZM162.645 102.785C162.645 101.473 163.118 100.397 164.066 99.5586C165.014 98.7201 166.245 98.3008 167.758 98.3008C169.271 98.3008 170.501 98.7201 171.449 99.5586C172.397 100.397 172.871 101.473 172.871 102.785C172.871 104.098 172.397 105.173 171.449 106.012C170.501 106.85 169.271 107.27 167.758 107.27C166.245 107.27 165.014 106.85 164.066 106.012C163.118 105.173 162.645 104.098 162.645 102.785ZM192.121 140.547C189.715 140.547 187.564 140.173 185.668 139.426C183.772 138.66 182.168 137.612 180.855 136.281C179.561 134.951 178.568 133.419 177.875 131.688C177.201 129.956 176.863 128.124 176.863 126.191V125.152C176.863 122.983 177.164 120.978 177.766 119.137C178.367 117.277 179.26 115.655 180.445 114.27C181.63 112.884 183.116 111.809 184.902 111.043C186.689 110.259 188.767 109.867 191.137 109.867C193.233 109.867 195.111 110.204 196.77 110.879C198.428 111.553 199.832 112.52 200.98 113.777C202.147 115.035 203.031 116.557 203.633 118.344C204.253 120.13 204.562 122.135 204.562 124.359V128.105H180.391V122.336H195.566V121.625C195.585 120.641 195.411 119.802 195.047 119.109C194.701 118.417 194.19 117.888 193.516 117.523C192.841 117.159 192.021 116.977 191.055 116.977C190.052 116.977 189.223 117.195 188.566 117.633C187.928 118.07 187.427 118.672 187.062 119.438C186.716 120.185 186.47 121.051 186.324 122.035C186.178 123.02 186.105 124.059 186.105 125.152V126.191C186.105 127.285 186.251 128.279 186.543 129.172C186.853 130.065 187.29 130.831 187.855 131.469C188.439 132.089 189.132 132.572 189.934 132.918C190.754 133.264 191.684 133.438 192.723 133.438C193.98 133.438 195.22 133.201 196.441 132.727C197.663 132.253 198.711 131.469 199.586 130.375L203.77 135.352C203.168 136.208 202.311 137.038 201.199 137.84C200.105 138.642 198.793 139.298 197.262 139.809C195.73 140.301 194.017 140.547 192.121 140.547ZM220.805 133.438C221.661 133.438 222.391 133.283 222.992 132.973C223.612 132.645 224.077 132.189 224.387 131.605C224.715 131.004 224.87 130.284 224.852 129.445H233.52C233.538 131.669 232.991 133.62 231.879 135.297C230.785 136.956 229.29 138.25 227.395 139.18C225.517 140.091 223.393 140.547 221.023 140.547C218.708 140.547 216.685 140.173 214.953 139.426C213.221 138.66 211.772 137.603 210.605 136.254C209.457 134.887 208.591 133.292 208.008 131.469C207.443 129.646 207.16 127.668 207.16 125.535V124.906C207.16 122.773 207.443 120.796 208.008 118.973C208.591 117.132 209.457 115.536 210.605 114.188C211.772 112.82 213.212 111.763 214.926 111.016C216.658 110.25 218.672 109.867 220.969 109.867C223.43 109.867 225.599 110.332 227.477 111.262C229.372 112.191 230.858 113.54 231.934 115.309C233.009 117.077 233.538 119.219 233.52 121.734H224.852C224.87 120.841 224.733 120.039 224.441 119.328C224.15 118.617 223.694 118.052 223.074 117.633C222.473 117.195 221.698 116.977 220.75 116.977C219.802 116.977 219.036 117.186 218.453 117.605C217.87 118.025 217.423 118.608 217.113 119.355C216.822 120.085 216.621 120.923 216.512 121.871C216.421 122.819 216.375 123.831 216.375 124.906V125.535C216.375 126.629 216.421 127.659 216.512 128.625C216.621 129.573 216.831 130.411 217.141 131.141C217.451 131.852 217.897 132.417 218.48 132.836C219.064 133.237 219.839 133.438 220.805 133.438ZM253.043 110.414V116.812H235.215V110.414H253.043ZM238.961 103.059H248.176V130.348C248.176 131.132 248.267 131.742 248.449 132.18C248.632 132.599 248.941 132.9 249.379 133.082C249.835 133.246 250.436 133.328 251.184 133.328C251.712 133.328 252.15 133.319 252.496 133.301C252.842 133.264 253.171 133.219 253.48 133.164V139.754C252.697 140.009 251.876 140.201 251.02 140.328C250.163 140.474 249.251 140.547 248.285 140.547C246.316 140.547 244.63 140.237 243.227 139.617C241.841 138.997 240.784 138.022 240.055 136.691C239.326 135.361 238.961 133.629 238.961 131.496V103.059ZM271.035 140.547C268.629 140.547 266.478 140.173 264.582 139.426C262.686 138.66 261.082 137.612 259.77 136.281C258.475 134.951 257.482 133.419 256.789 131.688C256.115 129.956 255.777 128.124 255.777 126.191V125.152C255.777 122.983 256.078 120.978 256.68 119.137C257.281 117.277 258.174 115.655 259.359 114.27C260.544 112.884 262.03 111.809 263.816 111.043C265.603 110.259 267.681 109.867 270.051 109.867C272.147 109.867 274.025 110.204 275.684 110.879C277.342 111.553 278.746 112.52 279.895 113.777C281.061 115.035 281.945 116.557 282.547 118.344C283.167 120.13 283.477 122.135 283.477 124.359V128.105H259.305V122.336H274.48V121.625C274.499 120.641 274.326 119.802 273.961 119.109C273.615 118.417 273.104 117.888 272.43 117.523C271.755 117.159 270.935 116.977 269.969 116.977C268.966 116.977 268.137 117.195 267.48 117.633C266.842 118.07 266.341 118.672 265.977 119.438C265.63 120.185 265.384 121.051 265.238 122.035C265.092 123.02 265.02 124.059 265.02 125.152V126.191C265.02 127.285 265.165 128.279 265.457 129.172C265.767 130.065 266.204 130.831 266.77 131.469C267.353 132.089 268.046 132.572 268.848 132.918C269.668 133.264 270.598 133.438 271.637 133.438C272.895 133.438 274.134 133.201 275.355 132.727C276.577 132.253 277.625 131.469 278.5 130.375L282.684 135.352C282.082 136.208 281.225 137.038 280.113 137.84C279.02 138.642 277.707 139.298 276.176 139.809C274.645 140.301 272.931 140.547 271.035 140.547ZM304.23 133.219V98H313.5V140H305.188L304.23 133.219ZM286.074 125.562V124.988C286.074 122.746 286.32 120.704 286.812 118.863C287.305 117.004 288.034 115.409 289 114.078C289.966 112.729 291.169 111.69 292.609 110.961C294.049 110.232 295.708 109.867 297.586 109.867C299.263 109.867 300.73 110.259 301.988 111.043C303.246 111.809 304.322 112.884 305.215 114.27C306.108 115.655 306.837 117.277 307.402 119.137C307.967 120.978 308.396 122.965 308.688 125.098V125.781C308.396 127.786 307.967 129.682 307.402 131.469C306.837 133.237 306.108 134.805 305.215 136.172C304.322 137.539 303.237 138.615 301.961 139.398C300.703 140.164 299.227 140.547 297.531 140.547C295.654 140.547 293.995 140.173 292.555 139.426C291.133 138.678 289.939 137.63 288.973 136.281C288.025 134.932 287.305 133.346 286.812 131.523C286.32 129.701 286.074 127.714 286.074 125.562ZM295.289 124.988V125.562C295.289 126.674 295.362 127.704 295.508 128.652C295.654 129.6 295.9 130.439 296.246 131.168C296.611 131.879 297.085 132.435 297.668 132.836C298.27 133.237 299.008 133.438 299.883 133.438C301.068 133.438 302.043 133.155 302.809 132.59C303.592 132.025 304.167 131.223 304.531 130.184C304.914 129.145 305.078 127.923 305.023 126.52V124.359C305.06 123.156 304.978 122.099 304.777 121.188C304.577 120.258 304.258 119.483 303.82 118.863C303.401 118.243 302.863 117.779 302.207 117.469C301.569 117.141 300.812 116.977 299.938 116.977C299.081 116.977 298.352 117.177 297.75 117.578C297.167 117.979 296.693 118.544 296.328 119.273C295.964 119.984 295.699 120.832 295.535 121.816C295.371 122.783 295.289 123.84 295.289 124.988ZM328.457 98V140H319.215V98H328.457ZM343.223 136.527L350.879 110.414H360.777L348.883 144.402C348.628 145.15 348.29 145.952 347.871 146.809C347.452 147.684 346.878 148.513 346.148 149.297C345.419 150.081 344.48 150.719 343.332 151.211C342.202 151.703 340.798 151.949 339.121 151.949C338.228 151.949 337.572 151.904 337.152 151.812C336.751 151.74 336.132 151.603 335.293 151.402V144.812C335.53 144.812 335.73 144.812 335.895 144.812C336.077 144.812 336.277 144.812 336.496 144.812C337.48 144.812 338.264 144.712 338.848 144.512C339.449 144.311 339.905 144.02 340.215 143.637C340.543 143.254 340.798 142.789 340.98 142.242L343.223 136.527ZM341.281 110.414L347.105 131.113L348.117 140.875H341.938L331.41 110.414H341.281Z" fill="black"/>
<rect x="93" y="178" width="917" height="77" rx="10" fill="#D3D3D3"/>
<rect x="111" y="196" width="115" height="41" rx="3" fill="#424242"/>
<path d="M134.223 210.203H139.259C140.243 210.203 141.099 210.35 141.825 210.643C142.552 210.936 143.111 211.369 143.504 211.943C143.902 212.518 144.102 213.227 144.102 214.07C144.102 214.803 143.987 215.415 143.759 215.907C143.53 216.399 143.211 216.807 142.801 217.129C142.396 217.445 141.925 217.706 141.386 217.911L140.375 218.482H136.147L136.13 216.101H139.259C139.651 216.101 139.977 216.03 140.234 215.89C140.492 215.749 140.686 215.55 140.814 215.292C140.949 215.028 141.017 214.715 141.017 214.352C141.017 213.982 140.949 213.666 140.814 213.402C140.68 213.139 140.48 212.937 140.217 212.796C139.959 212.655 139.64 212.585 139.259 212.585H137.308V223H134.223V210.203ZM141.228 223L138.397 217.34L141.667 217.322L144.532 222.868V223H141.228ZM150.43 223.176C149.656 223.176 148.965 223.056 148.355 222.815C147.746 222.569 147.23 222.232 146.809 221.805C146.393 221.377 146.073 220.885 145.851 220.328C145.634 219.771 145.525 219.183 145.525 218.562V218.228C145.525 217.53 145.622 216.886 145.815 216.294C146.009 215.696 146.296 215.175 146.677 214.729C147.058 214.284 147.535 213.938 148.109 213.692C148.684 213.44 149.352 213.314 150.113 213.314C150.787 213.314 151.391 213.423 151.924 213.64C152.457 213.856 152.908 214.167 153.277 214.571C153.652 214.976 153.937 215.465 154.13 216.039C154.329 216.613 154.429 217.258 154.429 217.973V219.177H146.659V217.322H151.537V217.094C151.543 216.777 151.487 216.508 151.37 216.285C151.259 216.062 151.095 215.893 150.878 215.775C150.661 215.658 150.397 215.6 150.087 215.6C149.765 215.6 149.498 215.67 149.287 215.811C149.082 215.951 148.921 216.145 148.804 216.391C148.692 216.631 148.613 216.909 148.566 217.226C148.52 217.542 148.496 217.876 148.496 218.228V218.562C148.496 218.913 148.543 219.232 148.637 219.52C148.736 219.807 148.877 220.053 149.059 220.258C149.246 220.457 149.469 220.612 149.727 220.724C149.99 220.835 150.289 220.891 150.623 220.891C151.027 220.891 151.426 220.814 151.818 220.662C152.211 220.51 152.548 220.258 152.829 219.906L154.174 221.506C153.98 221.781 153.705 222.048 153.348 222.306C152.996 222.563 152.574 222.774 152.082 222.938C151.59 223.097 151.039 223.176 150.43 223.176ZM160.572 220.609V216.689C160.572 216.42 160.534 216.188 160.458 215.995C160.382 215.802 160.262 215.652 160.098 215.547C159.934 215.436 159.714 215.38 159.438 215.38C159.216 215.38 159.025 215.418 158.867 215.494C158.709 215.57 158.589 215.685 158.507 215.837C158.425 215.989 158.384 216.183 158.384 216.417H155.422C155.422 215.978 155.519 215.57 155.712 215.195C155.911 214.814 156.192 214.483 156.556 214.202C156.925 213.921 157.364 213.704 157.874 213.552C158.39 213.394 158.964 213.314 159.597 213.314C160.353 213.314 161.026 213.44 161.618 213.692C162.216 213.944 162.688 214.322 163.033 214.826C163.379 215.324 163.552 215.951 163.552 216.707V220.601C163.552 221.222 163.587 221.693 163.657 222.016C163.728 222.332 163.827 222.61 163.956 222.851V223H160.985C160.845 222.707 160.739 222.35 160.669 221.928C160.604 221.5 160.572 221.061 160.572 220.609ZM160.933 217.19L160.95 218.772H159.641C159.365 218.772 159.131 218.811 158.938 218.887C158.75 218.963 158.598 219.068 158.48 219.203C158.369 219.332 158.287 219.479 158.234 219.643C158.188 219.807 158.164 219.979 158.164 220.161C158.164 220.337 158.205 220.495 158.287 220.636C158.375 220.771 158.492 220.876 158.639 220.952C158.785 221.028 158.949 221.066 159.131 221.066C159.459 221.066 159.737 221.005 159.966 220.882C160.2 220.753 160.379 220.598 160.502 220.416C160.625 220.234 160.687 220.064 160.687 219.906L161.337 221.119C161.22 221.354 161.085 221.591 160.933 221.831C160.786 222.071 160.602 222.294 160.379 222.499C160.162 222.698 159.896 222.862 159.579 222.991C159.263 223.114 158.879 223.176 158.428 223.176C157.842 223.176 157.303 223.056 156.811 222.815C156.324 222.575 155.935 222.241 155.642 221.813C155.349 221.38 155.202 220.882 155.202 220.319C155.202 219.827 155.29 219.388 155.466 219.001C155.647 218.614 155.92 218.286 156.283 218.017C156.646 217.747 157.109 217.542 157.672 217.401C158.234 217.261 158.896 217.19 159.658 217.19H160.933ZM169.212 220.891C169.487 220.891 169.722 220.841 169.915 220.741C170.114 220.636 170.264 220.489 170.363 220.302C170.469 220.108 170.519 219.877 170.513 219.607H173.299C173.305 220.322 173.129 220.949 172.771 221.488C172.42 222.021 171.939 222.438 171.33 222.736C170.727 223.029 170.044 223.176 169.282 223.176C168.538 223.176 167.888 223.056 167.331 222.815C166.774 222.569 166.309 222.229 165.934 221.796C165.564 221.356 165.286 220.844 165.099 220.258C164.917 219.672 164.826 219.036 164.826 218.351V218.148C164.826 217.463 164.917 216.827 165.099 216.241C165.286 215.649 165.564 215.137 165.934 214.703C166.309 214.264 166.771 213.924 167.322 213.684C167.879 213.438 168.526 213.314 169.265 213.314C170.056 213.314 170.753 213.464 171.356 213.763C171.966 214.062 172.443 214.495 172.789 215.063C173.135 215.632 173.305 216.32 173.299 217.129H170.513C170.519 216.842 170.475 216.584 170.381 216.355C170.287 216.127 170.141 215.945 169.941 215.811C169.748 215.67 169.499 215.6 169.194 215.6C168.89 215.6 168.644 215.667 168.456 215.802C168.269 215.937 168.125 216.124 168.025 216.364C167.932 216.599 167.867 216.868 167.832 217.173C167.803 217.478 167.788 217.803 167.788 218.148V218.351C167.788 218.702 167.803 219.033 167.832 219.344C167.867 219.648 167.935 219.918 168.034 220.152C168.134 220.381 168.277 220.562 168.465 220.697C168.652 220.826 168.901 220.891 169.212 220.891ZM179.574 213.49V215.547H173.844V213.49H179.574ZM175.048 211.126H178.01V219.897C178.01 220.149 178.039 220.346 178.098 220.486C178.156 220.621 178.256 220.718 178.396 220.776C178.543 220.829 178.736 220.855 178.977 220.855C179.146 220.855 179.287 220.853 179.398 220.847C179.51 220.835 179.615 220.82 179.715 220.803V222.921C179.463 223.003 179.199 223.064 178.924 223.105C178.648 223.152 178.355 223.176 178.045 223.176C177.412 223.176 176.87 223.076 176.419 222.877C175.974 222.678 175.634 222.364 175.399 221.937C175.165 221.509 175.048 220.952 175.048 220.267V211.126ZM190.464 218.983V210.203H193.54V218.983C193.54 219.839 193.344 220.58 192.951 221.207C192.564 221.834 192.037 222.32 191.369 222.666C190.707 223.006 189.963 223.176 189.137 223.176C188.281 223.176 187.52 223.032 186.852 222.745C186.189 222.458 185.668 222.016 185.287 221.418C184.912 220.82 184.725 220.059 184.725 219.133H187.818C187.818 219.566 187.868 219.906 187.968 220.152C188.067 220.393 188.214 220.562 188.407 220.662C188.606 220.756 188.85 220.803 189.137 220.803C189.418 220.803 189.655 220.732 189.849 220.592C190.048 220.445 190.2 220.237 190.306 219.968C190.411 219.692 190.464 219.364 190.464 218.983ZM200.343 220.328C200.343 220.164 200.287 220.023 200.176 219.906C200.07 219.783 199.883 219.672 199.613 219.572C199.344 219.467 198.966 219.361 198.479 219.256C198.017 219.156 197.58 219.024 197.17 218.86C196.766 218.696 196.411 218.497 196.106 218.263C195.802 218.028 195.562 217.75 195.386 217.428C195.216 217.105 195.131 216.736 195.131 216.32C195.131 215.916 195.216 215.535 195.386 215.178C195.562 214.814 195.816 214.495 196.15 214.22C196.49 213.938 196.903 213.719 197.39 213.561C197.876 213.396 198.43 213.314 199.051 213.314C199.906 213.314 200.645 213.446 201.266 213.71C201.887 213.968 202.364 214.331 202.698 214.8C203.038 215.263 203.208 215.799 203.208 216.408H200.246C200.246 216.168 200.205 215.963 200.123 215.793C200.047 215.623 199.921 215.494 199.745 215.406C199.569 215.312 199.335 215.266 199.042 215.266C198.837 215.266 198.649 215.304 198.479 215.38C198.315 215.456 198.184 215.562 198.084 215.696C197.984 215.831 197.935 215.989 197.935 216.171C197.935 216.3 197.964 216.417 198.022 216.522C198.087 216.622 198.184 216.716 198.312 216.804C198.441 216.886 198.605 216.962 198.805 217.032C199.004 217.097 199.244 217.155 199.525 217.208C200.164 217.325 200.762 217.492 201.318 217.709C201.875 217.926 202.326 218.233 202.672 218.632C203.023 219.03 203.199 219.566 203.199 220.24C203.199 220.662 203.103 221.052 202.909 221.409C202.716 221.761 202.438 222.071 202.074 222.341C201.711 222.604 201.274 222.81 200.765 222.956C200.255 223.103 199.681 223.176 199.042 223.176C198.134 223.176 197.366 223.015 196.739 222.692C196.112 222.364 195.638 221.954 195.315 221.462C194.999 220.964 194.841 220.46 194.841 219.95H197.601C197.612 220.243 197.683 220.483 197.812 220.671C197.946 220.858 198.125 220.996 198.348 221.084C198.57 221.172 198.828 221.216 199.121 221.216C199.391 221.216 199.613 221.178 199.789 221.102C199.971 221.025 200.108 220.923 200.202 220.794C200.296 220.659 200.343 220.504 200.343 220.328Z" fill="white"/>
<rect x="111" y="196" width="115" height="41" rx="3" stroke="#424242" stroke-width="4"/>
<rect x="246" y="196" width="104" height="41" rx="3" fill="#424242"/>
<path d="M277.812 220.627V223H271.343V220.627H277.812ZM272.441 210.203V223H269.356V210.203H272.441ZM283.911 220.609V216.689C283.911 216.42 283.873 216.188 283.797 215.995C283.721 215.802 283.601 215.652 283.437 215.547C283.272 215.436 283.053 215.38 282.777 215.38C282.555 215.38 282.364 215.418 282.206 215.494C282.048 215.57 281.928 215.685 281.846 215.837C281.764 215.989 281.723 216.183 281.723 216.417H278.761C278.761 215.978 278.857 215.57 279.051 215.195C279.25 214.814 279.531 214.483 279.895 214.202C280.264 213.921 280.703 213.704 281.213 213.552C281.729 213.394 282.303 213.314 282.936 213.314C283.691 213.314 284.365 213.44 284.957 213.692C285.555 213.944 286.026 214.322 286.372 214.826C286.718 215.324 286.891 215.951 286.891 216.707V220.601C286.891 221.222 286.926 221.693 286.996 222.016C287.066 222.332 287.166 222.61 287.295 222.851V223H284.324C284.184 222.707 284.078 222.35 284.008 221.928C283.943 221.5 283.911 221.061 283.911 220.609ZM284.271 217.19L284.289 218.772H282.979C282.704 218.772 282.47 218.811 282.276 218.887C282.089 218.963 281.937 219.068 281.819 219.203C281.708 219.332 281.626 219.479 281.573 219.643C281.526 219.807 281.503 219.979 281.503 220.161C281.503 220.337 281.544 220.495 281.626 220.636C281.714 220.771 281.831 220.876 281.978 220.952C282.124 221.028 282.288 221.066 282.47 221.066C282.798 221.066 283.076 221.005 283.305 220.882C283.539 220.753 283.718 220.598 283.841 220.416C283.964 220.234 284.025 220.064 284.025 219.906L284.676 221.119C284.559 221.354 284.424 221.591 284.271 221.831C284.125 222.071 283.94 222.294 283.718 222.499C283.501 222.698 283.234 222.862 282.918 222.991C282.602 223.114 282.218 223.176 281.767 223.176C281.181 223.176 280.642 223.056 280.149 222.815C279.663 222.575 279.273 222.241 278.98 221.813C278.688 221.38 278.541 220.882 278.541 220.319C278.541 219.827 278.629 219.388 278.805 219.001C278.986 218.614 279.259 218.286 279.622 218.017C279.985 217.747 280.448 217.542 281.011 217.401C281.573 217.261 282.235 217.19 282.997 217.19H284.271ZM291.522 215.846V223H288.561V213.49H291.329L291.522 215.846ZM294.335 213.42L294.282 216.171C294.165 216.159 294.007 216.145 293.808 216.127C293.608 216.109 293.441 216.101 293.307 216.101C292.961 216.101 292.662 216.142 292.41 216.224C292.164 216.3 291.959 216.417 291.795 216.575C291.637 216.728 291.52 216.921 291.443 217.155C291.373 217.39 291.341 217.662 291.347 217.973L290.811 217.621C290.811 216.982 290.872 216.402 290.995 215.881C291.124 215.354 291.306 214.899 291.54 214.519C291.774 214.132 292.059 213.836 292.393 213.631C292.727 213.42 293.102 213.314 293.518 213.314C293.664 213.314 293.808 213.323 293.948 213.341C294.095 213.358 294.224 213.385 294.335 213.42ZM300.03 220.609V216.689C300.03 216.42 299.992 216.188 299.916 215.995C299.84 215.802 299.72 215.652 299.556 215.547C299.392 215.436 299.172 215.38 298.896 215.38C298.674 215.38 298.483 215.418 298.325 215.494C298.167 215.57 298.047 215.685 297.965 215.837C297.883 215.989 297.842 216.183 297.842 216.417H294.88C294.88 215.978 294.977 215.57 295.17 215.195C295.369 214.814 295.65 214.483 296.014 214.202C296.383 213.921 296.822 213.704 297.332 213.552C297.848 213.394 298.422 213.314 299.055 213.314C299.811 213.314 300.484 213.44 301.076 213.692C301.674 213.944 302.146 214.322 302.491 214.826C302.837 215.324 303.01 215.951 303.01 216.707V220.601C303.01 221.222 303.045 221.693 303.115 222.016C303.186 222.332 303.285 222.61 303.414 222.851V223H300.443C300.303 222.707 300.197 222.35 300.127 221.928C300.062 221.5 300.03 221.061 300.03 220.609ZM300.391 217.19L300.408 218.772H299.099C298.823 218.772 298.589 218.811 298.396 218.887C298.208 218.963 298.056 219.068 297.938 219.203C297.827 219.332 297.745 219.479 297.692 219.643C297.646 219.807 297.622 219.979 297.622 220.161C297.622 220.337 297.663 220.495 297.745 220.636C297.833 220.771 297.95 220.876 298.097 220.952C298.243 221.028 298.407 221.066 298.589 221.066C298.917 221.066 299.195 221.005 299.424 220.882C299.658 220.753 299.837 220.598 299.96 220.416C300.083 220.234 300.145 220.064 300.145 219.906L300.795 221.119C300.678 221.354 300.543 221.591 300.391 221.831C300.244 222.071 300.06 222.294 299.837 222.499C299.62 222.698 299.354 222.862 299.037 222.991C298.721 223.114 298.337 223.176 297.886 223.176C297.3 223.176 296.761 223.056 296.269 222.815C295.782 222.575 295.393 222.241 295.1 221.813C294.807 221.38 294.66 220.882 294.66 220.319C294.66 219.827 294.748 219.388 294.924 219.001C295.105 218.614 295.378 218.286 295.741 218.017C296.104 217.747 296.567 217.542 297.13 217.401C297.692 217.261 298.354 217.19 299.116 217.19H300.391ZM307.94 220.97L309.812 213.49H312.933L309.821 223H307.976L307.94 220.97ZM306.833 213.49L308.679 220.97L308.661 223H306.807L303.704 213.49H306.833ZM318.294 223.176C317.521 223.176 316.829 223.056 316.22 222.815C315.61 222.569 315.095 222.232 314.673 221.805C314.257 221.377 313.938 220.885 313.715 220.328C313.498 219.771 313.39 219.183 313.39 218.562V218.228C313.39 217.53 313.486 216.886 313.68 216.294C313.873 215.696 314.16 215.175 314.541 214.729C314.922 214.284 315.399 213.938 315.974 213.692C316.548 213.44 317.216 213.314 317.978 213.314C318.651 213.314 319.255 213.423 319.788 213.64C320.321 213.856 320.772 214.167 321.142 214.571C321.517 214.976 321.801 215.465 321.994 216.039C322.193 216.613 322.293 217.258 322.293 217.973V219.177H314.523V217.322H319.401V217.094C319.407 216.777 319.352 216.508 319.234 216.285C319.123 216.062 318.959 215.893 318.742 215.775C318.525 215.658 318.262 215.6 317.951 215.6C317.629 215.6 317.362 215.67 317.151 215.811C316.946 215.951 316.785 216.145 316.668 216.391C316.557 216.631 316.478 216.909 316.431 217.226C316.384 217.542 316.36 217.876 316.36 218.228V218.562C316.36 218.913 316.407 219.232 316.501 219.52C316.601 219.807 316.741 220.053 316.923 220.258C317.11 220.457 317.333 220.612 317.591 220.724C317.854 220.835 318.153 220.891 318.487 220.891C318.892 220.891 319.29 220.814 319.683 220.662C320.075 220.51 320.412 220.258 320.693 219.906L322.038 221.506C321.845 221.781 321.569 222.048 321.212 222.306C320.86 222.563 320.438 222.774 319.946 222.938C319.454 223.097 318.903 223.176 318.294 223.176ZM326.626 209.5V223H323.655V209.5H326.626Z" fill="white"/>
<rect x="246" y="196" width="104" height="41" rx="3" stroke="#424242" stroke-width="4"/>
<rect x="370" y="196" width="109" height="41" rx="3" fill="#424242"/>
<path d="M404.118 210.203V223H401.042L396.516 215.037V223H393.431V210.203H396.516L401.042 218.166V210.203H404.118ZM405.56 218.342V218.157C405.56 217.46 405.659 216.818 405.858 216.232C406.058 215.641 406.351 215.128 406.737 214.694C407.124 214.261 407.602 213.924 408.17 213.684C408.738 213.438 409.395 213.314 410.139 213.314C410.889 213.314 411.548 213.438 412.116 213.684C412.69 213.924 413.171 214.261 413.558 214.694C413.944 215.128 414.237 215.641 414.437 216.232C414.636 216.818 414.735 217.46 414.735 218.157V218.342C414.735 219.033 414.636 219.675 414.437 220.267C414.237 220.853 413.944 221.365 413.558 221.805C413.171 222.238 412.693 222.575 412.125 222.815C411.557 223.056 410.9 223.176 410.156 223.176C409.412 223.176 408.753 223.056 408.179 222.815C407.604 222.575 407.124 222.238 406.737 221.805C406.351 221.365 406.058 220.853 405.858 220.267C405.659 219.675 405.56 219.033 405.56 218.342ZM408.521 218.157V218.342C408.521 218.699 408.548 219.033 408.601 219.344C408.653 219.654 408.741 219.927 408.864 220.161C408.987 220.39 409.154 220.568 409.365 220.697C409.576 220.826 409.84 220.891 410.156 220.891C410.467 220.891 410.725 220.826 410.93 220.697C411.141 220.568 411.308 220.39 411.431 220.161C411.554 219.927 411.642 219.654 411.694 219.344C411.747 219.033 411.773 218.699 411.773 218.342V218.157C411.773 217.812 411.747 217.486 411.694 217.182C411.642 216.871 411.554 216.599 411.431 216.364C411.308 216.124 411.141 215.937 410.93 215.802C410.719 215.667 410.455 215.6 410.139 215.6C409.828 215.6 409.567 215.667 409.356 215.802C409.151 215.937 408.987 216.124 408.864 216.364C408.741 216.599 408.653 216.871 408.601 217.182C408.548 217.486 408.521 217.812 408.521 218.157ZM421.521 220.82V209.5H424.5V223H421.828L421.521 220.82ZM415.685 218.359V218.175C415.685 217.454 415.764 216.798 415.922 216.206C416.08 215.608 416.314 215.096 416.625 214.668C416.936 214.234 417.322 213.9 417.785 213.666C418.248 213.432 418.781 213.314 419.385 213.314C419.924 213.314 420.396 213.44 420.8 213.692C421.204 213.938 421.55 214.284 421.837 214.729C422.124 215.175 422.358 215.696 422.54 216.294C422.722 216.886 422.859 217.524 422.953 218.21V218.43C422.859 219.074 422.722 219.684 422.54 220.258C422.358 220.826 422.124 221.33 421.837 221.77C421.55 222.209 421.201 222.555 420.791 222.807C420.387 223.053 419.912 223.176 419.367 223.176C418.764 223.176 418.23 223.056 417.768 222.815C417.311 222.575 416.927 222.238 416.616 221.805C416.312 221.371 416.08 220.861 415.922 220.275C415.764 219.689 415.685 219.051 415.685 218.359ZM418.646 218.175V218.359C418.646 218.717 418.67 219.048 418.717 219.353C418.764 219.657 418.843 219.927 418.954 220.161C419.071 220.39 419.224 220.568 419.411 220.697C419.604 220.826 419.842 220.891 420.123 220.891C420.504 220.891 420.817 220.8 421.063 220.618C421.315 220.437 421.5 220.179 421.617 219.845C421.74 219.511 421.793 219.118 421.775 218.667V217.973C421.787 217.586 421.761 217.246 421.696 216.953C421.632 216.654 421.529 216.405 421.389 216.206C421.254 216.007 421.081 215.857 420.87 215.758C420.665 215.652 420.422 215.6 420.141 215.6C419.865 215.6 419.631 215.664 419.438 215.793C419.25 215.922 419.098 216.104 418.98 216.338C418.863 216.566 418.778 216.839 418.726 217.155C418.673 217.466 418.646 217.806 418.646 218.175ZM430.784 223.176C430.011 223.176 429.319 223.056 428.71 222.815C428.101 222.569 427.585 222.232 427.163 221.805C426.747 221.377 426.428 220.885 426.205 220.328C425.988 219.771 425.88 219.183 425.88 218.562V218.228C425.88 217.53 425.977 216.886 426.17 216.294C426.363 215.696 426.65 215.175 427.031 214.729C427.412 214.284 427.89 213.938 428.464 213.692C429.038 213.44 429.706 213.314 430.468 213.314C431.142 213.314 431.745 213.423 432.278 213.64C432.812 213.856 433.263 214.167 433.632 214.571C434.007 214.976 434.291 215.465 434.484 216.039C434.684 216.613 434.783 217.258 434.783 217.973V219.177H427.014V217.322H431.892V217.094C431.897 216.777 431.842 216.508 431.725 216.285C431.613 216.062 431.449 215.893 431.232 215.775C431.016 215.658 430.752 215.6 430.441 215.6C430.119 215.6 429.853 215.67 429.642 215.811C429.437 215.951 429.275 216.145 429.158 216.391C429.047 216.631 428.968 216.909 428.921 217.226C428.874 217.542 428.851 217.876 428.851 218.228V218.562C428.851 218.913 428.897 219.232 428.991 219.52C429.091 219.807 429.231 220.053 429.413 220.258C429.601 220.457 429.823 220.612 430.081 220.724C430.345 220.835 430.644 220.891 430.978 220.891C431.382 220.891 431.78 220.814 432.173 220.662C432.565 220.51 432.902 220.258 433.184 219.906L434.528 221.506C434.335 221.781 434.06 222.048 433.702 222.306C433.351 222.563 432.929 222.774 432.437 222.938C431.944 223.097 431.394 223.176 430.784 223.176ZM441.217 218.983V210.203H444.293V218.983C444.293 219.839 444.097 220.58 443.704 221.207C443.317 221.834 442.79 222.32 442.122 222.666C441.46 223.006 440.716 223.176 439.89 223.176C439.034 223.176 438.272 223.032 437.604 222.745C436.942 222.458 436.421 222.016 436.04 221.418C435.665 220.82 435.478 220.059 435.478 219.133H438.571C438.571 219.566 438.621 219.906 438.721 220.152C438.82 220.393 438.967 220.562 439.16 220.662C439.359 220.756 439.603 220.803 439.89 220.803C440.171 220.803 440.408 220.732 440.602 220.592C440.801 220.445 440.953 220.237 441.059 219.968C441.164 219.692 441.217 219.364 441.217 218.983ZM452.845 219.599C452.845 219.399 452.815 219.221 452.757 219.062C452.698 218.898 452.59 218.746 452.432 218.605C452.273 218.465 452.045 218.324 451.746 218.184C451.453 218.037 451.066 217.885 450.586 217.727C450.023 217.539 449.481 217.328 448.96 217.094C448.438 216.854 447.973 216.575 447.562 216.259C447.152 215.937 446.827 215.562 446.587 215.134C446.347 214.7 446.227 214.196 446.227 213.622C446.227 213.071 446.35 212.576 446.596 212.137C446.842 211.691 447.185 211.313 447.624 211.003C448.069 210.687 448.591 210.446 449.188 210.282C449.786 210.112 450.439 210.027 451.148 210.027C452.086 210.027 452.912 210.191 453.627 210.52C454.348 210.842 454.91 211.302 455.314 211.899C455.725 212.491 455.93 213.191 455.93 214H452.862C452.862 213.678 452.795 213.394 452.66 213.147C452.531 212.901 452.335 212.708 452.071 212.567C451.808 212.427 451.477 212.356 451.078 212.356C450.691 212.356 450.366 212.415 450.103 212.532C449.839 212.649 449.64 212.808 449.505 213.007C449.37 213.2 449.303 213.414 449.303 213.648C449.303 213.842 449.355 214.018 449.461 214.176C449.572 214.328 449.728 214.472 449.927 214.606C450.132 214.741 450.378 214.87 450.665 214.993C450.958 215.116 451.286 215.236 451.649 215.354C452.329 215.57 452.933 215.813 453.46 216.083C453.993 216.347 454.441 216.648 454.805 216.988C455.174 217.322 455.452 217.703 455.64 218.131C455.833 218.559 455.93 219.042 455.93 219.581C455.93 220.155 455.818 220.665 455.596 221.11C455.373 221.556 455.054 221.934 454.638 222.244C454.222 222.549 453.724 222.78 453.144 222.938C452.563 223.097 451.916 223.176 451.201 223.176C450.545 223.176 449.897 223.094 449.259 222.93C448.626 222.76 448.052 222.502 447.536 222.156C447.021 221.805 446.607 221.356 446.297 220.812C445.992 220.261 445.84 219.607 445.84 218.852H448.934C448.934 219.227 448.983 219.543 449.083 219.801C449.183 220.059 449.329 220.267 449.522 220.425C449.716 220.577 449.953 220.688 450.234 220.759C450.516 220.823 450.838 220.855 451.201 220.855C451.594 220.855 451.91 220.8 452.15 220.688C452.391 220.571 452.566 220.419 452.678 220.231C452.789 220.038 452.845 219.827 452.845 219.599Z" fill="white"/>
<rect x="370" y="196" width="109" height="41" rx="3" stroke="#424242" stroke-width="4"/>
<rect x="499" y="196" width="102" height="41" rx="3" fill="#424242"/>
<path d="M527.166 218.658H523.984V216.276H527.166C527.6 216.276 527.951 216.203 528.221 216.057C528.49 215.91 528.687 215.708 528.81 215.45C528.938 215.187 529.003 214.891 529.003 214.562C529.003 214.211 528.938 213.886 528.81 213.587C528.687 213.288 528.49 213.048 528.221 212.866C527.951 212.679 527.6 212.585 527.166 212.585H525.145V223H522.06V210.203H527.166C528.191 210.203 529.073 210.391 529.812 210.766C530.556 211.141 531.127 211.656 531.525 212.312C531.924 212.963 532.123 213.707 532.123 214.545C532.123 215.371 531.924 216.092 531.525 216.707C531.127 217.322 530.556 217.803 529.812 218.148C529.073 218.488 528.191 218.658 527.166 218.658ZM536.702 221.884L539.163 213.49H542.345L538.521 224.415C538.439 224.655 538.331 224.913 538.196 225.188C538.062 225.47 537.877 225.736 537.643 225.988C537.408 226.24 537.106 226.445 536.737 226.604C536.374 226.762 535.923 226.841 535.384 226.841C535.097 226.841 534.886 226.826 534.751 226.797C534.622 226.773 534.423 226.729 534.153 226.665V224.547C534.229 224.547 534.294 224.547 534.347 224.547C534.405 224.547 534.47 224.547 534.54 224.547C534.856 224.547 535.108 224.515 535.296 224.45C535.489 224.386 535.636 224.292 535.735 224.169C535.841 224.046 535.923 223.896 535.981 223.721L536.702 221.884ZM536.078 213.49L537.95 220.144L538.275 223.281H536.289L532.905 213.49H536.078ZM548.128 213.49V215.547H542.397V213.49H548.128ZM543.602 211.126H546.563V219.897C546.563 220.149 546.593 220.346 546.651 220.486C546.71 220.621 546.81 220.718 546.95 220.776C547.097 220.829 547.29 220.855 547.53 220.855C547.7 220.855 547.841 220.853 547.952 220.847C548.063 220.835 548.169 220.82 548.269 220.803V222.921C548.017 223.003 547.753 223.064 547.478 223.105C547.202 223.152 546.909 223.176 546.599 223.176C545.966 223.176 545.424 223.076 544.973 222.877C544.527 222.678 544.188 222.364 543.953 221.937C543.719 221.509 543.602 220.952 543.602 220.267V211.126ZM552.206 209.5V223H549.244V209.5H552.206ZM551.854 217.92L551.16 217.938C551.16 217.27 551.242 216.654 551.406 216.092C551.57 215.529 551.805 215.04 552.109 214.624C552.414 214.208 552.78 213.886 553.208 213.657C553.636 213.429 554.11 213.314 554.632 213.314C555.101 213.314 555.528 213.382 555.915 213.517C556.308 213.651 556.645 213.868 556.926 214.167C557.213 214.466 557.433 214.855 557.585 215.336C557.743 215.816 557.822 216.402 557.822 217.094V223H554.843V217.076C554.843 216.689 554.787 216.391 554.676 216.18C554.57 215.963 554.418 215.813 554.219 215.731C554.02 215.644 553.776 215.6 553.489 215.6C553.144 215.6 552.862 215.658 552.646 215.775C552.429 215.893 552.262 216.057 552.145 216.268C552.033 216.473 551.957 216.716 551.916 216.997C551.875 217.278 551.854 217.586 551.854 217.92ZM559.097 218.342V218.157C559.097 217.46 559.196 216.818 559.396 216.232C559.595 215.641 559.888 215.128 560.274 214.694C560.661 214.261 561.139 213.924 561.707 213.684C562.275 213.438 562.932 213.314 563.676 213.314C564.426 213.314 565.085 213.438 565.653 213.684C566.228 213.924 566.708 214.261 567.095 214.694C567.481 215.128 567.774 215.641 567.974 216.232C568.173 216.818 568.272 217.46 568.272 218.157V218.342C568.272 219.033 568.173 219.675 567.974 220.267C567.774 220.853 567.481 221.365 567.095 221.805C566.708 222.238 566.23 222.575 565.662 222.815C565.094 223.056 564.438 223.176 563.693 223.176C562.949 223.176 562.29 223.056 561.716 222.815C561.142 222.575 560.661 222.238 560.274 221.805C559.888 221.365 559.595 220.853 559.396 220.267C559.196 219.675 559.097 219.033 559.097 218.342ZM562.059 218.157V218.342C562.059 218.699 562.085 219.033 562.138 219.344C562.19 219.654 562.278 219.927 562.401 220.161C562.524 220.39 562.691 220.568 562.902 220.697C563.113 220.826 563.377 220.891 563.693 220.891C564.004 220.891 564.262 220.826 564.467 220.697C564.678 220.568 564.845 220.39 564.968 220.161C565.091 219.927 565.179 219.654 565.231 219.344C565.284 219.033 565.311 218.699 565.311 218.342V218.157C565.311 217.812 565.284 217.486 565.231 217.182C565.179 216.871 565.091 216.599 564.968 216.364C564.845 216.124 564.678 215.937 564.467 215.802C564.256 215.667 563.992 215.6 563.676 215.6C563.365 215.6 563.104 215.667 562.894 215.802C562.688 215.937 562.524 216.124 562.401 216.364C562.278 216.599 562.19 216.871 562.138 217.182C562.085 217.486 562.059 217.812 562.059 218.157ZM572.5 215.521V223H569.538V213.49H572.315L572.5 215.521ZM572.148 217.92L571.454 217.938C571.454 217.211 571.542 216.563 571.718 215.995C571.894 215.421 572.143 214.935 572.465 214.536C572.787 214.138 573.171 213.836 573.616 213.631C574.067 213.42 574.568 213.314 575.119 213.314C575.559 213.314 575.96 213.379 576.323 213.508C576.692 213.637 577.009 213.845 577.272 214.132C577.542 214.419 577.747 214.8 577.888 215.274C578.034 215.743 578.107 216.323 578.107 217.015V223H575.128V217.006C575.128 216.625 575.075 216.335 574.97 216.136C574.864 215.931 574.712 215.79 574.513 215.714C574.313 215.638 574.07 215.6 573.783 215.6C573.479 215.6 573.221 215.658 573.01 215.775C572.799 215.893 572.629 216.057 572.5 216.268C572.377 216.473 572.286 216.716 572.228 216.997C572.175 217.278 572.148 217.586 572.148 217.92Z" fill="white"/>
<rect x="499" y="196" width="102" height="41" rx="3" stroke="#424242" stroke-width="4"/>
<rect x="621" y="196" width="129" height="41" rx="3" fill="#424242"/>
<path d="M649.078 218.983V210.203H652.154V218.983C652.154 219.839 651.958 220.58 651.565 221.207C651.179 221.834 650.651 222.32 649.983 222.666C649.321 223.006 648.577 223.176 647.751 223.176C646.896 223.176 646.134 223.032 645.466 222.745C644.804 222.458 644.282 222.016 643.901 221.418C643.526 220.82 643.339 220.059 643.339 219.133H646.433C646.433 219.566 646.482 219.906 646.582 220.152C646.682 220.393 646.828 220.562 647.021 220.662C647.221 220.756 647.464 220.803 647.751 220.803C648.032 220.803 648.27 220.732 648.463 220.592C648.662 220.445 648.814 220.237 648.92 219.968C649.025 219.692 649.078 219.364 649.078 218.983ZM658.913 220.609V216.689C658.913 216.42 658.875 216.188 658.799 215.995C658.723 215.802 658.603 215.652 658.438 215.547C658.274 215.436 658.055 215.38 657.779 215.38C657.557 215.38 657.366 215.418 657.208 215.494C657.05 215.57 656.93 215.685 656.848 215.837C656.766 215.989 656.725 216.183 656.725 216.417H653.763C653.763 215.978 653.859 215.57 654.053 215.195C654.252 214.814 654.533 214.483 654.896 214.202C655.266 213.921 655.705 213.704 656.215 213.552C656.73 213.394 657.305 213.314 657.938 213.314C658.693 213.314 659.367 213.44 659.959 213.692C660.557 213.944 661.028 214.322 661.374 214.826C661.72 215.324 661.893 215.951 661.893 216.707V220.601C661.893 221.222 661.928 221.693 661.998 222.016C662.068 222.332 662.168 222.61 662.297 222.851V223H659.326C659.186 222.707 659.08 222.35 659.01 221.928C658.945 221.5 658.913 221.061 658.913 220.609ZM659.273 217.19L659.291 218.772H657.981C657.706 218.772 657.472 218.811 657.278 218.887C657.091 218.963 656.938 219.068 656.821 219.203C656.71 219.332 656.628 219.479 656.575 219.643C656.528 219.807 656.505 219.979 656.505 220.161C656.505 220.337 656.546 220.495 656.628 220.636C656.716 220.771 656.833 220.876 656.979 220.952C657.126 221.028 657.29 221.066 657.472 221.066C657.8 221.066 658.078 221.005 658.307 220.882C658.541 220.753 658.72 220.598 658.843 220.416C658.966 220.234 659.027 220.064 659.027 219.906L659.678 221.119C659.561 221.354 659.426 221.591 659.273 221.831C659.127 222.071 658.942 222.294 658.72 222.499C658.503 222.698 658.236 222.862 657.92 222.991C657.604 223.114 657.22 223.176 656.769 223.176C656.183 223.176 655.644 223.056 655.151 222.815C654.665 222.575 654.275 222.241 653.982 221.813C653.689 221.38 653.543 220.882 653.543 220.319C653.543 219.827 653.631 219.388 653.807 219.001C653.988 218.614 654.261 218.286 654.624 218.017C654.987 217.747 655.45 217.542 656.013 217.401C656.575 217.261 657.237 217.19 657.999 217.19H659.273ZM666.823 220.97L668.695 213.49H671.815L668.704 223H666.858L666.823 220.97ZM665.716 213.49L667.562 220.97L667.544 223H665.689L662.587 213.49H665.716ZM677.493 220.609V216.689C677.493 216.42 677.455 216.188 677.379 215.995C677.303 215.802 677.183 215.652 677.019 215.547C676.854 215.436 676.635 215.38 676.359 215.38C676.137 215.38 675.946 215.418 675.788 215.494C675.63 215.57 675.51 215.685 675.428 215.837C675.346 215.989 675.305 216.183 675.305 216.417H672.343C672.343 215.978 672.439 215.57 672.633 215.195C672.832 214.814 673.113 214.483 673.477 214.202C673.846 213.921 674.285 213.704 674.795 213.552C675.311 213.394 675.885 213.314 676.518 213.314C677.273 213.314 677.947 213.44 678.539 213.692C679.137 213.944 679.608 214.322 679.954 214.826C680.3 215.324 680.473 215.951 680.473 216.707V220.601C680.473 221.222 680.508 221.693 680.578 222.016C680.648 222.332 680.748 222.61 680.877 222.851V223H677.906C677.766 222.707 677.66 222.35 677.59 221.928C677.525 221.5 677.493 221.061 677.493 220.609ZM677.854 217.19L677.871 218.772H676.562C676.286 218.772 676.052 218.811 675.858 218.887C675.671 218.963 675.519 219.068 675.401 219.203C675.29 219.332 675.208 219.479 675.155 219.643C675.108 219.807 675.085 219.979 675.085 220.161C675.085 220.337 675.126 220.495 675.208 220.636C675.296 220.771 675.413 220.876 675.56 220.952C675.706 221.028 675.87 221.066 676.052 221.066C676.38 221.066 676.658 221.005 676.887 220.882C677.121 220.753 677.3 220.598 677.423 220.416C677.546 220.234 677.607 220.064 677.607 219.906L678.258 221.119C678.141 221.354 678.006 221.591 677.854 221.831C677.707 222.071 677.522 222.294 677.3 222.499C677.083 222.698 676.816 222.862 676.5 222.991C676.184 223.114 675.8 223.176 675.349 223.176C674.763 223.176 674.224 223.056 673.731 222.815C673.245 222.575 672.855 222.241 672.562 221.813C672.27 221.38 672.123 220.882 672.123 220.319C672.123 219.827 672.211 219.388 672.387 219.001C672.568 218.614 672.841 218.286 673.204 218.017C673.567 217.747 674.03 217.542 674.593 217.401C675.155 217.261 675.817 217.19 676.579 217.19H677.854ZM687.1 220.328C687.1 220.164 687.044 220.023 686.933 219.906C686.827 219.783 686.64 219.672 686.37 219.572C686.101 219.467 685.723 219.361 685.236 219.256C684.773 219.156 684.337 219.024 683.927 218.86C683.522 218.696 683.168 218.497 682.863 218.263C682.559 218.028 682.318 217.75 682.143 217.428C681.973 217.105 681.888 216.736 681.888 216.32C681.888 215.916 681.973 215.535 682.143 215.178C682.318 214.814 682.573 214.495 682.907 214.22C683.247 213.938 683.66 213.719 684.146 213.561C684.633 213.396 685.187 213.314 685.808 213.314C686.663 213.314 687.401 213.446 688.022 213.71C688.644 213.968 689.121 214.331 689.455 214.8C689.795 215.263 689.965 215.799 689.965 216.408H687.003C687.003 216.168 686.962 215.963 686.88 215.793C686.804 215.623 686.678 215.494 686.502 215.406C686.326 215.312 686.092 215.266 685.799 215.266C685.594 215.266 685.406 215.304 685.236 215.38C685.072 215.456 684.94 215.562 684.841 215.696C684.741 215.831 684.691 215.989 684.691 216.171C684.691 216.3 684.721 216.417 684.779 216.522C684.844 216.622 684.94 216.716 685.069 216.804C685.198 216.886 685.362 216.962 685.562 217.032C685.761 217.097 686.001 217.155 686.282 217.208C686.921 217.325 687.519 217.492 688.075 217.709C688.632 217.926 689.083 218.233 689.429 218.632C689.78 219.03 689.956 219.566 689.956 220.24C689.956 220.662 689.859 221.052 689.666 221.409C689.473 221.761 689.194 222.071 688.831 222.341C688.468 222.604 688.031 222.81 687.521 222.956C687.012 223.103 686.438 223.176 685.799 223.176C684.891 223.176 684.123 223.015 683.496 222.692C682.869 222.364 682.395 221.954 682.072 221.462C681.756 220.964 681.598 220.46 681.598 219.95H684.357C684.369 220.243 684.439 220.483 684.568 220.671C684.703 220.858 684.882 220.996 685.104 221.084C685.327 221.172 685.585 221.216 685.878 221.216C686.147 221.216 686.37 221.178 686.546 221.102C686.728 221.025 686.865 220.923 686.959 220.794C687.053 220.659 687.1 220.504 687.1 220.328ZM695.361 220.891C695.637 220.891 695.871 220.841 696.064 220.741C696.264 220.636 696.413 220.489 696.513 220.302C696.618 220.108 696.668 219.877 696.662 219.607H699.448C699.454 220.322 699.278 220.949 698.921 221.488C698.569 222.021 698.089 222.438 697.479 222.736C696.876 223.029 696.193 223.176 695.432 223.176C694.688 223.176 694.037 223.056 693.48 222.815C692.924 222.569 692.458 222.229 692.083 221.796C691.714 221.356 691.436 220.844 691.248 220.258C691.066 219.672 690.976 219.036 690.976 218.351V218.148C690.976 217.463 691.066 216.827 691.248 216.241C691.436 215.649 691.714 215.137 692.083 214.703C692.458 214.264 692.921 213.924 693.472 213.684C694.028 213.438 694.676 213.314 695.414 213.314C696.205 213.314 696.902 213.464 697.506 213.763C698.115 214.062 698.593 214.495 698.938 215.063C699.284 215.632 699.454 216.32 699.448 217.129H696.662C696.668 216.842 696.624 216.584 696.53 216.355C696.437 216.127 696.29 215.945 696.091 215.811C695.897 215.67 695.648 215.6 695.344 215.6C695.039 215.6 694.793 215.667 694.605 215.802C694.418 215.937 694.274 216.124 694.175 216.364C694.081 216.599 694.017 216.868 693.981 217.173C693.952 217.478 693.938 217.803 693.938 218.148V218.351C693.938 218.702 693.952 219.033 693.981 219.344C694.017 219.648 694.084 219.918 694.184 220.152C694.283 220.381 694.427 220.562 694.614 220.697C694.802 220.826 695.051 220.891 695.361 220.891ZM703.702 215.846V223H700.74V213.49H703.509L703.702 215.846ZM706.515 213.42L706.462 216.171C706.345 216.159 706.187 216.145 705.987 216.127C705.788 216.109 705.621 216.101 705.486 216.101C705.141 216.101 704.842 216.142 704.59 216.224C704.344 216.3 704.139 216.417 703.975 216.575C703.816 216.728 703.699 216.921 703.623 217.155C703.553 217.39 703.521 217.662 703.526 217.973L702.99 217.621C702.99 216.982 703.052 216.402 703.175 215.881C703.304 215.354 703.485 214.899 703.72 214.519C703.954 214.132 704.238 213.836 704.572 213.631C704.906 213.42 705.281 213.314 705.697 213.314C705.844 213.314 705.987 213.323 706.128 213.341C706.274 213.358 706.403 213.385 706.515 213.42ZM710.663 213.49V223H707.692V213.49H710.663ZM707.517 211.038C707.517 210.616 707.669 210.271 707.974 210.001C708.278 209.731 708.674 209.597 709.16 209.597C709.646 209.597 710.042 209.731 710.347 210.001C710.651 210.271 710.804 210.616 710.804 211.038C710.804 211.46 710.651 211.806 710.347 212.075C710.042 212.345 709.646 212.479 709.16 212.479C708.674 212.479 708.278 212.345 707.974 212.075C707.669 211.806 707.517 211.46 707.517 211.038ZM715.479 215.318V226.656H712.518V213.49H715.277L715.479 215.318ZM721.315 218.131V218.315C721.315 219.007 721.236 219.648 721.078 220.24C720.92 220.832 720.686 221.348 720.375 221.787C720.064 222.227 719.678 222.569 719.215 222.815C718.758 223.056 718.228 223.176 717.624 223.176C717.056 223.176 716.566 223.05 716.156 222.798C715.746 222.546 715.403 222.197 715.128 221.752C714.853 221.307 714.63 220.797 714.46 220.223C714.29 219.648 714.155 219.042 714.056 218.403V218.166C714.155 217.48 714.29 216.845 714.46 216.259C714.63 215.667 714.853 215.151 715.128 214.712C715.403 214.272 715.743 213.93 716.147 213.684C716.558 213.438 717.047 213.314 717.615 213.314C718.219 213.314 718.749 213.429 719.206 213.657C719.669 213.886 720.056 214.214 720.366 214.642C720.683 215.063 720.92 215.57 721.078 216.162C721.236 216.754 721.315 217.41 721.315 218.131ZM718.354 218.315V218.131C718.354 217.762 718.327 217.425 718.274 217.12C718.222 216.81 718.137 216.54 718.02 216.312C717.908 216.083 717.759 215.907 717.571 215.784C717.384 215.661 717.152 215.6 716.877 215.6C716.561 215.6 716.294 215.649 716.077 215.749C715.866 215.843 715.696 215.989 715.567 216.188C715.444 216.382 715.356 216.625 715.304 216.918C715.257 217.205 715.236 217.542 715.242 217.929V218.649C715.23 219.095 715.274 219.487 715.374 219.827C715.474 220.161 715.646 220.422 715.893 220.609C716.139 220.797 716.473 220.891 716.895 220.891C717.176 220.891 717.41 220.826 717.598 220.697C717.785 220.562 717.935 220.378 718.046 220.144C718.157 219.903 718.236 219.628 718.283 219.317C718.33 219.007 718.354 218.673 718.354 218.315ZM727.644 213.49V215.547H721.913V213.49H727.644ZM723.117 211.126H726.079V219.897C726.079 220.149 726.108 220.346 726.167 220.486C726.226 220.621 726.325 220.718 726.466 220.776C726.612 220.829 726.806 220.855 727.046 220.855C727.216 220.855 727.356 220.853 727.468 220.847C727.579 220.835 727.685 220.82 727.784 220.803V222.921C727.532 223.003 727.269 223.064 726.993 223.105C726.718 223.152 726.425 223.176 726.114 223.176C725.481 223.176 724.939 223.076 724.488 222.877C724.043 222.678 723.703 222.364 723.469 221.937C723.234 221.509 723.117 220.952 723.117 220.267V211.126Z" fill="white"/>
<rect x="621" y="196" width="129" height="41" rx="3" stroke="#424242" stroke-width="4"/>
<path d="M1066 0H1348C1356.28 0 1363 6.71573 1363 15V282C1363 290.284 1356.28 297 1348 297H1066V0Z" fill="white"/>
<path fill-rule="evenodd" clip-rule="evenodd" d="M1270.61 51.7486C1272.67 49.6921 1276 49.6921 1278.06 51.7486L1310.74 84.4358C1312.8 86.4923 1312.8 89.8264 1310.74 91.8828L1272.98 129.645L1152.71 129.645L1115.22 92.1613C1113.17 90.1049 1113.17 86.7708 1115.22 84.7143L1147.91 52.027C1149.97 49.9706 1153.3 49.9706 1155.36 52.027L1212.84 109.513L1270.61 51.7486ZM1153.22 169.139L1117.52 204.839C1115.46 206.895 1115.46 210.229 1117.52 212.286L1150.21 244.973C1152.26 247.029 1155.6 247.029 1157.65 244.973L1212.84 189.782L1268.31 245.251C1270.37 247.308 1273.7 247.308 1275.76 245.251L1308.45 212.564C1310.5 210.508 1310.5 207.174 1308.45 205.117L1272.47 169.139L1153.22 169.139Z" fill="#2BC55F"/>
<path d="M1112.98 160.544V137.566H1122.9C1124.6 137.566 1126.1 137.876 1127.38 138.497C1128.66 139.118 1129.65 140.012 1130.36 141.179C1131.07 142.346 1131.43 143.744 1131.43 145.375C1131.43 147.02 1131.06 148.408 1130.33 149.537C1129.6 150.667 1128.58 151.52 1127.26 152.096C1125.95 152.672 1124.43 152.959 1122.67 152.959H1116.75V148.113H1121.42C1122.15 148.113 1122.78 148.023 1123.29 147.843C1123.82 147.656 1124.22 147.361 1124.49 146.957C1124.78 146.553 1124.92 146.026 1124.92 145.375C1124.92 144.717 1124.78 144.182 1124.49 143.77C1124.22 143.352 1123.82 143.045 1123.29 142.85C1122.78 142.648 1122.15 142.548 1121.42 142.548H1119.22V160.544H1112.98ZM1126.44 149.997L1132.19 160.544H1125.41L1119.8 149.997H1126.44ZM1134.09 160.544V137.566H1150.65V142.592H1140.32V146.542H1149.79V151.568H1140.32V155.518H1150.6V160.544H1134.09ZM1163.21 137.566H1169.36V153.319C1169.35 154.814 1168.97 156.131 1168.22 157.268C1167.48 158.397 1166.46 159.28 1165.15 159.916C1163.85 160.544 1162.35 160.858 1160.65 160.858C1159.18 160.858 1157.83 160.604 1156.61 160.095C1155.39 159.579 1154.42 158.771 1153.69 157.672C1152.97 156.565 1152.61 155.129 1152.62 153.363H1158.86C1158.88 153.939 1158.98 154.426 1159.15 154.822C1159.33 155.218 1159.57 155.518 1159.89 155.72C1160.21 155.914 1160.6 156.011 1161.06 156.011C1161.52 156.011 1161.91 155.91 1162.22 155.708C1162.54 155.506 1162.79 155.207 1162.95 154.811C1163.12 154.407 1163.2 153.909 1163.21 153.319V137.566ZM1172.31 160.544V137.566H1188.87V142.592H1178.55V146.542H1188.02V151.568H1178.55V155.518H1188.83V160.544H1172.31ZM1213.42 146.183H1207.09C1207.05 145.659 1206.93 145.184 1206.73 144.758C1206.55 144.331 1206.28 143.965 1205.95 143.658C1205.62 143.344 1205.22 143.105 1204.75 142.94C1204.28 142.768 1203.74 142.682 1203.14 142.682C1202.1 142.682 1201.21 142.936 1200.48 143.445C1199.77 143.954 1199.22 144.683 1198.85 145.633C1198.48 146.583 1198.3 147.724 1198.3 149.055C1198.3 150.461 1198.48 151.639 1198.86 152.589C1199.24 153.532 1199.79 154.242 1200.51 154.721C1201.22 155.192 1202.09 155.428 1203.1 155.428C1203.67 155.428 1204.19 155.357 1204.65 155.215C1205.1 155.065 1205.5 154.852 1205.84 154.575C1206.17 154.298 1206.45 153.966 1206.66 153.577C1206.87 153.18 1207.02 152.735 1207.09 152.241L1213.42 152.286C1213.35 153.259 1213.07 154.25 1212.6 155.26C1212.13 156.262 1211.46 157.189 1210.59 158.042C1209.73 158.887 1208.67 159.568 1207.4 160.084C1206.12 160.6 1204.65 160.858 1202.96 160.858C1200.85 160.858 1198.96 160.406 1197.29 159.501C1195.62 158.596 1194.3 157.264 1193.33 155.506C1192.36 153.749 1191.88 151.598 1191.88 149.055C1191.88 146.497 1192.37 144.343 1193.36 142.592C1194.35 140.835 1195.68 139.507 1197.35 138.609C1199.03 137.704 1200.9 137.252 1202.96 137.252C1204.41 137.252 1205.75 137.45 1206.97 137.846C1208.19 138.243 1209.26 138.823 1210.18 139.585C1211.1 140.341 1211.84 141.272 1212.4 142.379C1212.96 143.486 1213.3 144.754 1213.42 146.183ZM1215.62 142.592V137.566H1235.59V142.592H1228.68V160.544H1222.53V142.592H1215.62ZM1237.94 160.544V137.566H1254.5V142.592H1244.18V146.542H1253.65V151.568H1244.18V155.518H1254.46V160.544H1237.94ZM1266.44 160.544H1257.6V137.566H1266.35C1268.71 137.566 1270.75 138.026 1272.47 138.946C1274.2 139.859 1275.53 141.175 1276.47 142.895C1277.41 144.608 1277.88 146.661 1277.88 149.055C1277.88 151.449 1277.41 153.506 1276.48 155.226C1275.54 156.939 1274.22 158.255 1272.51 159.175C1270.79 160.088 1268.77 160.544 1266.44 160.544ZM1263.83 155.248H1266.21C1267.35 155.248 1268.32 155.065 1269.12 154.699C1269.93 154.332 1270.54 153.7 1270.96 152.802C1271.38 151.905 1271.6 150.656 1271.6 149.055C1271.6 147.454 1271.38 146.205 1270.95 145.308C1270.52 144.41 1269.89 143.778 1269.06 143.411C1268.24 143.045 1267.23 142.862 1266.03 142.862H1263.83V155.248ZM1280.77 160.544V137.566H1287.01V155.518H1296.3V160.544H1280.77ZM1293.71 137.566H1300.67L1305.15 146.901H1305.33L1309.82 137.566H1316.78L1308.34 153.319V160.544H1302.15V153.319L1293.71 137.566Z" fill="black"/>
</svg>
