<svg width="1363" height="163" viewBox="0 0 1363 163" fill="none" xmlns="http://www.w3.org/2000/svg">
<path d="M0 15C0 6.71573 6.71573 0 15 0H37V163H15C6.71573 163 0 156.284 0 148V15Z" fill="#424242"/>
<rect width="1097" height="163" transform="translate(37)" fill="#F0F0F0"/>
<path d="M101.906 53.9219L94.3945 51.2383V48.0859L104.602 52.375V54.6367L101.906 53.9219ZM94.3945 56.1719L101.918 53.4297L104.602 52.7852V55.0352L94.3945 59.3242V56.1719ZM112.898 43.9375H119.262C120.566 43.9375 121.688 44.1328 122.625 44.5234C123.57 44.9141 124.297 45.4922 124.805 46.2578C125.312 47.0234 125.566 47.9648 125.566 49.082C125.566 49.9961 125.41 50.7812 125.098 51.4375C124.793 52.0859 124.359 52.6289 123.797 53.0664C123.242 53.4961 122.59 53.8398 121.84 54.0977L120.727 54.6836H115.195L115.172 51.9414H119.285C119.902 51.9414 120.414 51.832 120.82 51.6133C121.227 51.3945 121.531 51.0898 121.734 50.6992C121.945 50.3086 122.051 49.8555 122.051 49.3398C122.051 48.793 121.949 48.3203 121.746 47.9219C121.543 47.5234 121.234 47.2188 120.82 47.0078C120.406 46.7969 119.887 46.6914 119.262 46.6914H116.414V61H112.898V43.9375ZM122.438 61L118.547 53.3945L122.262 53.3711L126.199 60.8359V61H122.438ZM133.898 61.2344C132.914 61.2344 132.031 61.0781 131.25 60.7656C130.469 60.4453 129.805 60.0039 129.258 59.4414C128.719 58.8789 128.305 58.2266 128.016 57.4844C127.727 56.7344 127.582 55.9375 127.582 55.0938V54.625C127.582 53.6641 127.719 52.7852 127.992 51.9883C128.266 51.1914 128.656 50.5 129.164 49.9141C129.68 49.3281 130.305 48.8789 131.039 48.5664C131.773 48.2461 132.602 48.0859 133.523 48.0859C134.422 48.0859 135.219 48.2344 135.914 48.5312C136.609 48.8281 137.191 49.25 137.66 49.7969C138.137 50.3438 138.496 51 138.738 51.7656C138.98 52.5234 139.102 53.3672 139.102 54.2969V55.7031H129.023V53.4531H135.785V53.1953C135.785 52.7266 135.699 52.3086 135.527 51.9414C135.363 51.5664 135.113 51.2695 134.777 51.0508C134.441 50.832 134.012 50.7227 133.488 50.7227C133.043 50.7227 132.66 50.8203 132.34 51.0156C132.02 51.2109 131.758 51.4844 131.555 51.8359C131.359 52.1875 131.211 52.6016 131.109 53.0781C131.016 53.5469 130.969 54.0625 130.969 54.625V55.0938C130.969 55.6016 131.039 56.0703 131.18 56.5C131.328 56.9297 131.535 57.3008 131.801 57.6133C132.074 57.9258 132.402 58.168 132.785 58.3398C133.176 58.5117 133.617 58.5977 134.109 58.5977C134.719 58.5977 135.285 58.4805 135.809 58.2461C136.34 58.0039 136.797 57.6406 137.18 57.1562L138.82 58.9375C138.555 59.3203 138.191 59.6875 137.73 60.0391C137.277 60.3906 136.73 60.6797 136.09 60.9062C135.449 61.125 134.719 61.2344 133.898 61.2344ZM141.211 48.3203H144.598V61.7617C144.598 62.6992 144.426 63.4922 144.082 64.1406C143.738 64.7891 143.242 65.2812 142.594 65.6172C141.945 65.9531 141.16 66.1211 140.238 66.1211C139.949 66.1211 139.668 66.1055 139.395 66.0742C139.113 66.043 138.824 65.9922 138.527 65.9219L138.539 63.332C138.727 63.3633 138.91 63.3867 139.09 63.4023C139.262 63.4258 139.438 63.4375 139.617 63.4375C139.969 63.4375 140.262 63.3789 140.496 63.2617C140.73 63.1445 140.906 62.9609 141.023 62.7109C141.148 62.4688 141.211 62.1523 141.211 61.7617V48.3203ZM140.941 45.0156C140.941 44.5234 141.113 44.1172 141.457 43.7969C141.809 43.4766 142.27 43.3164 142.84 43.3164C143.418 43.3164 143.879 43.4766 144.223 43.7969C144.566 44.1172 144.738 44.5234 144.738 45.0156C144.738 45.5078 144.566 45.9141 144.223 46.2344C143.879 46.5547 143.418 46.7148 142.84 46.7148C142.27 46.7148 141.809 46.5547 141.457 46.2344C141.113 45.9141 140.941 45.5078 140.941 45.0156ZM153.117 61.2344C152.133 61.2344 151.25 61.0781 150.469 60.7656C149.688 60.4453 149.023 60.0039 148.477 59.4414C147.938 58.8789 147.523 58.2266 147.234 57.4844C146.945 56.7344 146.801 55.9375 146.801 55.0938V54.625C146.801 53.6641 146.938 52.7852 147.211 51.9883C147.484 51.1914 147.875 50.5 148.383 49.9141C148.898 49.3281 149.523 48.8789 150.258 48.5664C150.992 48.2461 151.82 48.0859 152.742 48.0859C153.641 48.0859 154.438 48.2344 155.133 48.5312C155.828 48.8281 156.41 49.25 156.879 49.7969C157.355 50.3438 157.715 51 157.957 51.7656C158.199 52.5234 158.32 53.3672 158.32 54.2969V55.7031H148.242V53.4531H155.004V53.1953C155.004 52.7266 154.918 52.3086 154.746 51.9414C154.582 51.5664 154.332 51.2695 153.996 51.0508C153.66 50.832 153.23 50.7227 152.707 50.7227C152.262 50.7227 151.879 50.8203 151.559 51.0156C151.238 51.2109 150.977 51.4844 150.773 51.8359C150.578 52.1875 150.43 52.6016 150.328 53.0781C150.234 53.5469 150.188 54.0625 150.188 54.625V55.0938C150.188 55.6016 150.258 56.0703 150.398 56.5C150.547 56.9297 150.754 57.3008 151.02 57.6133C151.293 57.9258 151.621 58.168 152.004 58.3398C152.395 58.5117 152.836 58.5977 153.328 58.5977C153.938 58.5977 154.504 58.4805 155.027 58.2461C155.559 58.0039 156.016 57.6406 156.398 57.1562L158.039 58.9375C157.773 59.3203 157.41 59.6875 156.949 60.0391C156.496 60.3906 155.949 60.6797 155.309 60.9062C154.668 61.125 153.938 61.2344 153.117 61.2344ZM165.48 58.5977C165.895 58.5977 166.262 58.5195 166.582 58.3633C166.902 58.1992 167.152 57.9727 167.332 57.6836C167.52 57.3867 167.617 57.0391 167.625 56.6406H170.801C170.793 57.5312 170.555 58.3242 170.086 59.0195C169.617 59.707 168.988 60.25 168.199 60.6484C167.41 61.0391 166.527 61.2344 165.551 61.2344C164.566 61.2344 163.707 61.0703 162.973 60.7422C162.246 60.4141 161.641 59.9609 161.156 59.3828C160.672 58.7969 160.309 58.1172 160.066 57.3438C159.824 56.5625 159.703 55.7266 159.703 54.8359V54.4961C159.703 53.5977 159.824 52.7617 160.066 51.9883C160.309 51.207 160.672 50.5273 161.156 49.9492C161.641 49.3633 162.246 48.9062 162.973 48.5781C163.699 48.25 164.551 48.0859 165.527 48.0859C166.566 48.0859 167.477 48.2852 168.258 48.6836C169.047 49.082 169.664 49.6523 170.109 50.3945C170.562 51.1289 170.793 52 170.801 53.0078H167.625C167.617 52.5859 167.527 52.2031 167.355 51.8594C167.191 51.5156 166.949 51.2422 166.629 51.0391C166.316 50.8281 165.93 50.7227 165.469 50.7227C164.977 50.7227 164.574 50.8281 164.262 51.0391C163.949 51.2422 163.707 51.5234 163.535 51.8828C163.363 52.2344 163.242 52.6367 163.172 53.0898C163.109 53.5352 163.078 54.0039 163.078 54.4961V54.8359C163.078 55.3281 163.109 55.8008 163.172 56.2539C163.234 56.707 163.352 57.1094 163.523 57.4609C163.703 57.8125 163.949 58.0898 164.262 58.293C164.574 58.4961 164.98 58.5977 165.48 58.5977ZM178.969 48.3203V50.7109H171.586V48.3203H178.969ZM173.414 45.1914H176.789V57.1797C176.789 57.5469 176.836 57.8281 176.93 58.0234C177.031 58.2188 177.18 58.3555 177.375 58.4336C177.57 58.5039 177.816 58.5391 178.113 58.5391C178.324 58.5391 178.512 58.5312 178.676 58.5156C178.848 58.4922 178.992 58.4688 179.109 58.4453L179.121 60.9297C178.832 61.0234 178.52 61.0977 178.184 61.1523C177.848 61.207 177.477 61.2344 177.07 61.2344C176.328 61.2344 175.68 61.1133 175.125 60.8711C174.578 60.6211 174.156 60.2227 173.859 59.6758C173.562 59.1289 173.414 58.4102 173.414 57.5195V45.1914ZM186.727 61.2344C185.742 61.2344 184.859 61.0781 184.078 60.7656C183.297 60.4453 182.633 60.0039 182.086 59.4414C181.547 58.8789 181.133 58.2266 180.844 57.4844C180.555 56.7344 180.41 55.9375 180.41 55.0938V54.625C180.41 53.6641 180.547 52.7852 180.82 51.9883C181.094 51.1914 181.484 50.5 181.992 49.9141C182.508 49.3281 183.133 48.8789 183.867 48.5664C184.602 48.2461 185.43 48.0859 186.352 48.0859C187.25 48.0859 188.047 48.2344 188.742 48.5312C189.438 48.8281 190.02 49.25 190.488 49.7969C190.965 50.3438 191.324 51 191.566 51.7656C191.809 52.5234 191.93 53.3672 191.93 54.2969V55.7031H181.852V53.4531H188.613V53.1953C188.613 52.7266 188.527 52.3086 188.355 51.9414C188.191 51.5664 187.941 51.2695 187.605 51.0508C187.27 50.832 186.84 50.7227 186.316 50.7227C185.871 50.7227 185.488 50.8203 185.168 51.0156C184.848 51.2109 184.586 51.4844 184.383 51.8359C184.188 52.1875 184.039 52.6016 183.938 53.0781C183.844 53.5469 183.797 54.0625 183.797 54.625V55.0938C183.797 55.6016 183.867 56.0703 184.008 56.5C184.156 56.9297 184.363 57.3008 184.629 57.6133C184.902 57.9258 185.23 58.168 185.613 58.3398C186.004 58.5117 186.445 58.5977 186.938 58.5977C187.547 58.5977 188.113 58.4805 188.637 58.2461C189.168 58.0039 189.625 57.6406 190.008 57.1562L191.648 58.9375C191.383 59.3203 191.02 59.6875 190.559 60.0391C190.105 60.3906 189.559 60.6797 188.918 60.9062C188.277 61.125 187.547 61.2344 186.727 61.2344ZM201.34 58.2344V43H204.738V61H201.68L201.34 58.2344ZM193.324 54.8125V54.5664C193.324 53.5977 193.434 52.7188 193.652 51.9297C193.871 51.1328 194.191 50.4492 194.613 49.8789C195.035 49.3086 195.555 48.8672 196.172 48.5547C196.789 48.2422 197.492 48.0859 198.281 48.0859C199.023 48.0859 199.672 48.2422 200.227 48.5547C200.789 48.8672 201.266 49.3125 201.656 49.8906C202.055 50.4609 202.375 51.1367 202.617 51.918C202.859 52.6914 203.035 53.5391 203.145 54.4609V55C203.035 55.8828 202.859 56.7031 202.617 57.4609C202.375 58.2188 202.055 58.8828 201.656 59.4531C201.266 60.0156 200.789 60.4531 200.227 60.7656C199.664 61.0781 199.008 61.2344 198.258 61.2344C197.469 61.2344 196.766 61.0742 196.148 60.7539C195.539 60.4336 195.023 59.9844 194.602 59.4062C194.188 58.8281 193.871 58.1484 193.652 57.3672C193.434 56.5859 193.324 55.7344 193.324 54.8125ZM196.699 54.5664V54.8125C196.699 55.3359 196.738 55.8242 196.816 56.2773C196.902 56.7305 197.039 57.1328 197.227 57.4844C197.422 57.8281 197.672 58.0977 197.977 58.293C198.289 58.4805 198.668 58.5742 199.113 58.5742C199.691 58.5742 200.168 58.4453 200.543 58.1875C200.918 57.9219 201.203 57.5586 201.398 57.0977C201.602 56.6367 201.719 56.1055 201.75 55.5039V53.9688C201.727 53.4766 201.656 53.0352 201.539 52.6445C201.43 52.2461 201.266 51.9062 201.047 51.625C200.836 51.3438 200.57 51.125 200.25 50.9688C199.938 50.8125 199.566 50.7344 199.137 50.7344C198.699 50.7344 198.324 50.8359 198.012 51.0391C197.699 51.2344 197.445 51.5039 197.25 51.8477C197.062 52.1914 196.922 52.5977 196.828 53.0664C196.742 53.5273 196.699 54.0273 196.699 54.5664ZM210.938 43V61H207.551V43H210.938ZM217.488 59.5703L220.852 48.3203H224.473L219.375 62.9102C219.266 63.2305 219.117 63.5742 218.93 63.9414C218.75 64.3086 218.504 64.6562 218.191 64.9844C217.887 65.3203 217.5 65.5938 217.031 65.8047C216.57 66.0156 216.004 66.1211 215.332 66.1211C215.012 66.1211 214.75 66.1016 214.547 66.0625C214.344 66.0234 214.102 65.9688 213.82 65.8984V63.4258C213.906 63.4258 213.996 63.4258 214.09 63.4258C214.184 63.4336 214.273 63.4375 214.359 63.4375C214.805 63.4375 215.168 63.3867 215.449 63.2852C215.73 63.1836 215.957 63.0273 216.129 62.8164C216.301 62.6133 216.438 62.3477 216.539 62.0195L217.488 59.5703ZM216.082 48.3203L218.836 57.5078L219.316 61.082L217.02 61.3281L212.461 48.3203H216.082Z" fill="#888888"/>
<path d="M104.344 84.875V119H96.1406V84.875H104.344ZM117.727 99.0078V119H109.828V93.6406H117.234L117.727 99.0078ZM116.766 105.453L114.961 105.5C114.961 103.719 115.172 102.078 115.594 100.578C116.016 99.0781 116.641 97.7734 117.469 96.6641C118.297 95.5547 119.312 94.6953 120.516 94.0859C121.734 93.4766 123.141 93.1719 124.734 93.1719C125.844 93.1719 126.852 93.3438 127.758 93.6875C128.664 94.0156 129.445 94.5391 130.102 95.2578C130.758 95.9609 131.258 96.8828 131.602 98.0234C131.961 99.1484 132.141 100.5 132.141 102.078V119H124.242V103.086C124.242 102.008 124.117 101.195 123.867 100.648C123.633 100.102 123.289 99.7344 122.836 99.5469C122.383 99.3594 121.828 99.2656 121.172 99.2656C120.484 99.2656 119.867 99.4219 119.32 99.7344C118.773 100.047 118.305 100.484 117.914 101.047C117.539 101.594 117.25 102.242 117.047 102.992C116.859 103.742 116.766 104.562 116.766 105.453ZM131.25 105.453L129.047 105.5C129.047 103.719 129.242 102.078 129.633 100.578C130.039 99.0781 130.641 97.7734 131.438 96.6641C132.25 95.5547 133.258 94.6953 134.461 94.0859C135.664 93.4766 137.062 93.1719 138.656 93.1719C139.812 93.1719 140.875 93.3438 141.844 93.6875C142.812 94.0312 143.648 94.5859 144.352 95.3516C145.055 96.1172 145.602 97.1328 145.992 98.3984C146.383 99.6484 146.578 101.195 146.578 103.039V119H138.656V103.039C138.656 101.992 138.531 101.203 138.281 100.672C138.047 100.125 137.703 99.7578 137.25 99.5703C136.797 99.3672 136.258 99.2656 135.633 99.2656C134.883 99.2656 134.234 99.4219 133.688 99.7344C133.141 100.047 132.68 100.484 132.305 101.047C131.945 101.594 131.68 102.242 131.508 102.992C131.336 103.742 131.25 104.562 131.25 105.453ZM159.07 98.5156V128.75H151.172V93.6406H158.531L159.07 98.5156ZM174.633 106.016V106.508C174.633 108.352 174.422 110.062 174 111.641C173.578 113.219 172.953 114.594 172.125 115.766C171.297 116.938 170.266 117.852 169.031 118.508C167.812 119.148 166.398 119.469 164.789 119.469C163.273 119.469 161.969 119.133 160.875 118.461C159.781 117.789 158.867 116.859 158.133 115.672C157.398 114.484 156.805 113.125 156.352 111.594C155.898 110.062 155.539 108.445 155.273 106.742V106.109C155.539 104.281 155.898 102.586 156.352 101.023C156.805 99.4453 157.398 98.0703 158.133 96.8984C158.867 95.7266 159.773 94.8125 160.852 94.1562C161.945 93.5 163.25 93.1719 164.766 93.1719C166.375 93.1719 167.789 93.4766 169.008 94.0859C170.242 94.6953 171.273 95.5703 172.102 96.7109C172.945 97.8359 173.578 99.1875 174 100.766C174.422 102.344 174.633 104.094 174.633 106.016ZM166.734 106.508V106.016C166.734 105.031 166.664 104.133 166.523 103.32C166.383 102.492 166.156 101.773 165.844 101.164C165.547 100.555 165.148 100.086 164.648 99.7578C164.148 99.4297 163.531 99.2656 162.797 99.2656C161.953 99.2656 161.242 99.3984 160.664 99.6641C160.102 99.9141 159.648 100.305 159.305 100.836C158.977 101.352 158.742 102 158.602 102.781C158.477 103.547 158.422 104.445 158.438 105.477V107.398C158.406 108.586 158.523 109.633 158.789 110.539C159.055 111.43 159.516 112.125 160.172 112.625C160.828 113.125 161.719 113.375 162.844 113.375C163.594 113.375 164.219 113.203 164.719 112.859C165.219 112.5 165.617 112.008 165.914 111.383C166.211 110.742 166.422 110.008 166.547 109.18C166.672 108.352 166.734 107.461 166.734 106.508ZM186.492 83V119H178.57V83H186.492ZM203.648 119.469C201.586 119.469 199.742 119.148 198.117 118.508C196.492 117.852 195.117 116.953 193.992 115.812C192.883 114.672 192.031 113.359 191.438 111.875C190.859 110.391 190.57 108.82 190.57 107.164V106.273C190.57 104.414 190.828 102.695 191.344 101.117C191.859 99.5234 192.625 98.1328 193.641 96.9453C194.656 95.7578 195.93 94.8359 197.461 94.1797C198.992 93.5078 200.773 93.1719 202.805 93.1719C204.602 93.1719 206.211 93.4609 207.633 94.0391C209.055 94.6172 210.258 95.4453 211.242 96.5234C212.242 97.6016 213 98.9062 213.516 100.438C214.047 101.969 214.312 103.688 214.312 105.594V108.805H193.594V103.859H206.602V103.25C206.617 102.406 206.469 101.688 206.156 101.094C205.859 100.5 205.422 100.047 204.844 99.7344C204.266 99.4219 203.562 99.2656 202.734 99.2656C201.875 99.2656 201.164 99.4531 200.602 99.8281C200.055 100.203 199.625 100.719 199.312 101.375C199.016 102.016 198.805 102.758 198.68 103.602C198.555 104.445 198.492 105.336 198.492 106.273V107.164C198.492 108.102 198.617 108.953 198.867 109.719C199.133 110.484 199.508 111.141 199.992 111.688C200.492 112.219 201.086 112.633 201.773 112.93C202.477 113.227 203.273 113.375 204.164 113.375C205.242 113.375 206.305 113.172 207.352 112.766C208.398 112.359 209.297 111.688 210.047 110.75L213.633 115.016C213.117 115.75 212.383 116.461 211.43 117.148C210.492 117.836 209.367 118.398 208.055 118.836C206.742 119.258 205.273 119.469 203.648 119.469ZM225.492 99.0078V119H217.594V93.6406H225L225.492 99.0078ZM224.531 105.453L222.727 105.5C222.727 103.719 222.938 102.078 223.359 100.578C223.781 99.0781 224.406 97.7734 225.234 96.6641C226.062 95.5547 227.078 94.6953 228.281 94.0859C229.5 93.4766 230.906 93.1719 232.5 93.1719C233.609 93.1719 234.617 93.3438 235.523 93.6875C236.43 94.0156 237.211 94.5391 237.867 95.2578C238.523 95.9609 239.023 96.8828 239.367 98.0234C239.727 99.1484 239.906 100.5 239.906 102.078V119H232.008V103.086C232.008 102.008 231.883 101.195 231.633 100.648C231.398 100.102 231.055 99.7344 230.602 99.5469C230.148 99.3594 229.594 99.2656 228.938 99.2656C228.25 99.2656 227.633 99.4219 227.086 99.7344C226.539 100.047 226.07 100.484 225.68 101.047C225.305 101.594 225.016 102.242 224.812 102.992C224.625 103.742 224.531 104.562 224.531 105.453ZM239.016 105.453L236.812 105.5C236.812 103.719 237.008 102.078 237.398 100.578C237.805 99.0781 238.406 97.7734 239.203 96.6641C240.016 95.5547 241.023 94.6953 242.227 94.0859C243.43 93.4766 244.828 93.1719 246.422 93.1719C247.578 93.1719 248.641 93.3438 249.609 93.6875C250.578 94.0312 251.414 94.5859 252.117 95.3516C252.82 96.1172 253.367 97.1328 253.758 98.3984C254.148 99.6484 254.344 101.195 254.344 103.039V119H246.422V103.039C246.422 101.992 246.297 101.203 246.047 100.672C245.812 100.125 245.469 99.7578 245.016 99.5703C244.562 99.3672 244.023 99.2656 243.398 99.2656C242.648 99.2656 242 99.4219 241.453 99.7344C240.906 100.047 240.445 100.484 240.07 101.047C239.711 101.594 239.445 102.242 239.273 102.992C239.102 103.742 239.016 104.562 239.016 105.453ZM271.148 119.469C269.086 119.469 267.242 119.148 265.617 118.508C263.992 117.852 262.617 116.953 261.492 115.812C260.383 114.672 259.531 113.359 258.938 111.875C258.359 110.391 258.07 108.82 258.07 107.164V106.273C258.07 104.414 258.328 102.695 258.844 101.117C259.359 99.5234 260.125 98.1328 261.141 96.9453C262.156 95.7578 263.43 94.8359 264.961 94.1797C266.492 93.5078 268.273 93.1719 270.305 93.1719C272.102 93.1719 273.711 93.4609 275.133 94.0391C276.555 94.6172 277.758 95.4453 278.742 96.5234C279.742 97.6016 280.5 98.9062 281.016 100.438C281.547 101.969 281.812 103.688 281.812 105.594V108.805H261.094V103.859H274.102V103.25C274.117 102.406 273.969 101.688 273.656 101.094C273.359 100.5 272.922 100.047 272.344 99.7344C271.766 99.4219 271.062 99.2656 270.234 99.2656C269.375 99.2656 268.664 99.4531 268.102 99.8281C267.555 100.203 267.125 100.719 266.812 101.375C266.516 102.016 266.305 102.758 266.18 103.602C266.055 104.445 265.992 105.336 265.992 106.273V107.164C265.992 108.102 266.117 108.953 266.367 109.719C266.633 110.484 267.008 111.141 267.492 111.688C267.992 112.219 268.586 112.633 269.273 112.93C269.977 113.227 270.773 113.375 271.664 113.375C272.742 113.375 273.805 113.172 274.852 112.766C275.898 112.359 276.797 111.688 277.547 110.75L281.133 115.016C280.617 115.75 279.883 116.461 278.93 117.148C277.992 117.836 276.867 118.398 275.555 118.836C274.242 119.258 272.773 119.469 271.148 119.469ZM292.781 99.0547V119H284.883V93.6406H292.289L292.781 99.0547ZM291.844 105.453L289.992 105.5C289.992 103.562 290.227 101.836 290.695 100.32C291.164 98.7891 291.828 97.4922 292.688 96.4297C293.547 95.3672 294.57 94.5625 295.758 94.0156C296.961 93.4531 298.297 93.1719 299.766 93.1719C300.938 93.1719 302.008 93.3438 302.977 93.6875C303.961 94.0312 304.805 94.5859 305.508 95.3516C306.227 96.1172 306.773 97.1328 307.148 98.3984C307.539 99.6484 307.734 101.195 307.734 103.039V119H299.789V103.016C299.789 102 299.648 101.227 299.367 100.695C299.086 100.148 298.68 99.7734 298.148 99.5703C297.617 99.3672 296.969 99.2656 296.203 99.2656C295.391 99.2656 294.703 99.4219 294.141 99.7344C293.578 100.047 293.125 100.484 292.781 101.047C292.453 101.594 292.211 102.242 292.055 102.992C291.914 103.742 291.844 104.562 291.844 105.453ZM325.477 93.6406V99.125H310.195V93.6406H325.477ZM313.406 87.3359H321.305V110.727C321.305 111.398 321.383 111.922 321.539 112.297C321.695 112.656 321.961 112.914 322.336 113.07C322.727 113.211 323.242 113.281 323.883 113.281C324.336 113.281 324.711 113.273 325.008 113.258C325.305 113.227 325.586 113.188 325.852 113.141V118.789C325.18 119.008 324.477 119.172 323.742 119.281C323.008 119.406 322.227 119.469 321.398 119.469C319.711 119.469 318.266 119.203 317.062 118.672C315.875 118.141 314.969 117.305 314.344 116.164C313.719 115.023 313.406 113.539 313.406 111.711V87.3359ZM341.789 112.625V102.172C341.789 101.453 341.688 100.836 341.484 100.32C341.281 99.8047 340.961 99.4062 340.523 99.125C340.086 98.8281 339.5 98.6797 338.766 98.6797C338.172 98.6797 337.664 98.7812 337.242 98.9844C336.82 99.1875 336.5 99.4922 336.281 99.8984C336.062 100.305 335.953 100.82 335.953 101.445H328.055C328.055 100.273 328.312 99.1875 328.828 98.1875C329.359 97.1719 330.109 96.2891 331.078 95.5391C332.062 94.7891 333.234 94.2109 334.594 93.8047C335.969 93.3828 337.5 93.1719 339.188 93.1719C341.203 93.1719 343 93.5078 344.578 94.1797C346.172 94.8516 347.43 95.8594 348.352 97.2031C349.273 98.5312 349.734 100.203 349.734 102.219V112.602C349.734 114.258 349.828 115.516 350.016 116.375C350.203 117.219 350.469 117.961 350.812 118.602V119H342.891C342.516 118.219 342.234 117.266 342.047 116.141C341.875 115 341.789 113.828 341.789 112.625ZM342.75 103.508L342.797 107.727H339.305C338.57 107.727 337.945 107.828 337.43 108.031C336.93 108.234 336.523 108.516 336.211 108.875C335.914 109.219 335.695 109.609 335.555 110.047C335.43 110.484 335.367 110.945 335.367 111.43C335.367 111.898 335.477 112.32 335.695 112.695C335.93 113.055 336.242 113.336 336.633 113.539C337.023 113.742 337.461 113.844 337.945 113.844C338.82 113.844 339.562 113.68 340.172 113.352C340.797 113.008 341.273 112.594 341.602 112.109C341.93 111.625 342.094 111.172 342.094 110.75L343.828 113.984C343.516 114.609 343.156 115.242 342.75 115.883C342.359 116.523 341.867 117.117 341.273 117.664C340.695 118.195 339.984 118.633 339.141 118.977C338.297 119.305 337.273 119.469 336.07 119.469C334.508 119.469 333.07 119.148 331.758 118.508C330.461 117.867 329.422 116.977 328.641 115.836C327.859 114.68 327.469 113.352 327.469 111.852C327.469 110.539 327.703 109.367 328.172 108.336C328.656 107.305 329.383 106.43 330.352 105.711C331.32 104.992 332.555 104.445 334.055 104.07C335.555 103.695 337.32 103.508 339.352 103.508H342.75ZM367.477 93.6406V99.125H352.195V93.6406H367.477ZM355.406 87.3359H363.305V110.727C363.305 111.398 363.383 111.922 363.539 112.297C363.695 112.656 363.961 112.914 364.336 113.07C364.727 113.211 365.242 113.281 365.883 113.281C366.336 113.281 366.711 113.273 367.008 113.258C367.305 113.227 367.586 113.188 367.852 113.141V118.789C367.18 119.008 366.477 119.172 365.742 119.281C365.008 119.406 364.227 119.469 363.398 119.469C361.711 119.469 360.266 119.203 359.062 118.672C357.875 118.141 356.969 117.305 356.344 116.164C355.719 115.023 355.406 113.539 355.406 111.711V87.3359ZM378.961 93.6406V119H371.039V93.6406H378.961ZM370.57 87.1016C370.57 85.9766 370.977 85.0547 371.789 84.3359C372.602 83.6172 373.656 83.2578 374.953 83.2578C376.25 83.2578 377.305 83.6172 378.117 84.3359C378.93 85.0547 379.336 85.9766 379.336 87.1016C379.336 88.2266 378.93 89.1484 378.117 89.8672C377.305 90.5859 376.25 90.9453 374.953 90.9453C373.656 90.9453 372.602 90.5859 371.789 89.8672C370.977 89.1484 370.57 88.2266 370.57 87.1016ZM382.852 106.578V106.086C382.852 104.227 383.117 102.516 383.648 100.953C384.18 99.375 384.961 98.0078 385.992 96.8516C387.023 95.6953 388.297 94.7969 389.812 94.1562C391.328 93.5 393.078 93.1719 395.062 93.1719C397.062 93.1719 398.82 93.5 400.336 94.1562C401.867 94.7969 403.148 95.6953 404.18 96.8516C405.211 98.0078 405.992 99.375 406.523 100.953C407.055 102.516 407.32 104.227 407.32 106.086V106.578C407.32 108.422 407.055 110.133 406.523 111.711C405.992 113.273 405.211 114.641 404.18 115.812C403.148 116.969 401.875 117.867 400.359 118.508C398.844 119.148 397.094 119.469 395.109 119.469C393.125 119.469 391.367 119.148 389.836 118.508C388.305 117.867 387.023 116.969 385.992 115.812C384.961 114.641 384.18 113.273 383.648 111.711C383.117 110.133 382.852 108.422 382.852 106.578ZM390.75 106.086V106.578C390.75 107.531 390.82 108.422 390.961 109.25C391.102 110.078 391.336 110.805 391.664 111.43C391.992 112.039 392.438 112.516 393 112.859C393.562 113.203 394.266 113.375 395.109 113.375C395.938 113.375 396.625 113.203 397.172 112.859C397.734 112.516 398.18 112.039 398.508 111.43C398.836 110.805 399.07 110.078 399.211 109.25C399.352 108.422 399.422 107.531 399.422 106.578V106.086C399.422 105.164 399.352 104.297 399.211 103.484C399.07 102.656 398.836 101.93 398.508 101.305C398.18 100.664 397.734 100.164 397.172 99.8047C396.609 99.4453 395.906 99.2656 395.062 99.2656C394.234 99.2656 393.539 99.4453 392.977 99.8047C392.43 100.164 391.992 100.664 391.664 101.305C391.336 101.93 391.102 102.656 390.961 103.484C390.82 104.297 390.75 105.164 390.75 106.086ZM418.594 99.0547V119H410.695V93.6406H418.102L418.594 99.0547ZM417.656 105.453L415.805 105.5C415.805 103.562 416.039 101.836 416.508 100.32C416.977 98.7891 417.641 97.4922 418.5 96.4297C419.359 95.3672 420.383 94.5625 421.57 94.0156C422.773 93.4531 424.109 93.1719 425.578 93.1719C426.75 93.1719 427.82 93.3438 428.789 93.6875C429.773 94.0312 430.617 94.5859 431.32 95.3516C432.039 96.1172 432.586 97.1328 432.961 98.3984C433.352 99.6484 433.547 101.195 433.547 103.039V119H425.602V103.016C425.602 102 425.461 101.227 425.18 100.695C424.898 100.148 424.492 99.7734 423.961 99.5703C423.43 99.3672 422.781 99.2656 422.016 99.2656C421.203 99.2656 420.516 99.4219 419.953 99.7344C419.391 100.047 418.938 100.484 418.594 101.047C418.266 101.594 418.023 102.242 417.867 102.992C417.727 103.742 417.656 104.562 417.656 105.453Z" fill="black"/>
<path d="M1134 0H1348C1356.28 0 1363 6.71573 1363 15V148C1363 156.284 1356.28 163 1348 163H1134V0Z" fill="#2BC55F"/>
<path d="M1281 46.5H1216L1213.5 49V114L1216 116.5H1281L1283.5 114V49L1281 46.5ZM1278.5 111.5H1233.5V101.5H1245C1246.5 104.5 1250 106.5 1253.5 106.5C1259 106.5 1263.5 102 1263.5 96.5C1263.5 91 1259 86.5 1253.5 86.5C1248 86.5 1243.5 91 1243.5 96.5H1228.5V111.5H1218.5V51.5H1228.5V63C1225.5 64.5 1223.5 68 1223.5 71.5C1223.5 77 1228 81.5 1233.5 81.5C1239 81.5 1243.5 77 1243.5 71.5H1253.5C1253.5 77 1258 81.5 1263.5 81.5C1269 81.5 1273.5 77 1273.5 71.5C1273.5 66 1269 61.5 1263.5 61.5C1260 61.5 1256.5 63.5 1255 66.5H1242C1240.5 63.5 1237 61.5 1233.5 61.5V51.5H1278.5V111.5ZM1248.5 96.5C1248.5 93.5 1250.5 91.5 1253.5 91.5C1256.5 91.5 1258.5 93.5 1258.5 96.5C1258.5 99.5 1256.5 101.5 1253.5 101.5C1250.5 101.5 1248.5 99.5 1248.5 96.5ZM1233.5 66.5C1236.5 66.5 1238.5 68.5 1238.5 71.5C1238.5 74.5 1236.5 76.5 1233.5 76.5C1230.5 76.5 1228.5 74.5 1228.5 71.5C1228.5 68.5 1230.5 66.5 1233.5 66.5ZM1263.5 66.5C1266.5 66.5 1268.5 68.5 1268.5 71.5C1268.5 74.5 1266.5 76.5 1263.5 76.5C1260.5 76.5 1258.5 74.5 1258.5 71.5C1258.5 68.5 1260.5 66.5 1263.5 66.5Z" fill="white"/>
</svg>
