<svg width="1363" height="163" viewBox="0 0 1363 163" fill="none" xmlns="http://www.w3.org/2000/svg">
<path d="M0 15C0 6.71573 6.71573 0 15 0H37V163H15C6.71573 163 0 156.284 0 148V15Z" fill="#424242"/>
<rect width="1097" height="163" transform="translate(37)" fill="#F0F0F0"/>
<path d="M101.906 53.9219L94.3945 51.2383V48.0859L104.602 52.375V54.6367L101.906 53.9219ZM94.3945 56.1719L101.918 53.4297L104.602 52.7852V55.0352L94.3945 59.3242V56.1719ZM112.898 43.9375H119.262C120.566 43.9375 121.688 44.1328 122.625 44.5234C123.57 44.9141 124.297 45.4922 124.805 46.2578C125.312 47.0234 125.566 47.9648 125.566 49.082C125.566 49.9961 125.41 50.7812 125.098 51.4375C124.793 52.0859 124.359 52.6289 123.797 53.0664C123.242 53.4961 122.59 53.8398 121.84 54.0977L120.727 54.6836H115.195L115.172 51.9414H119.285C119.902 51.9414 120.414 51.832 120.82 51.6133C121.227 51.3945 121.531 51.0898 121.734 50.6992C121.945 50.3086 122.051 49.8555 122.051 49.3398C122.051 48.793 121.949 48.3203 121.746 47.9219C121.543 47.5234 121.234 47.2188 120.82 47.0078C120.406 46.7969 119.887 46.6914 119.262 46.6914H116.414V61H112.898V43.9375ZM122.438 61L118.547 53.3945L122.262 53.3711L126.199 60.8359V61H122.438ZM133.898 61.2344C132.914 61.2344 132.031 61.0781 131.25 60.7656C130.469 60.4453 129.805 60.0039 129.258 59.4414C128.719 58.8789 128.305 58.2266 128.016 57.4844C127.727 56.7344 127.582 55.9375 127.582 55.0938V54.625C127.582 53.6641 127.719 52.7852 127.992 51.9883C128.266 51.1914 128.656 50.5 129.164 49.9141C129.68 49.3281 130.305 48.8789 131.039 48.5664C131.773 48.2461 132.602 48.0859 133.523 48.0859C134.422 48.0859 135.219 48.2344 135.914 48.5312C136.609 48.8281 137.191 49.25 137.66 49.7969C138.137 50.3438 138.496 51 138.738 51.7656C138.98 52.5234 139.102 53.3672 139.102 54.2969V55.7031H129.023V53.4531H135.785V53.1953C135.785 52.7266 135.699 52.3086 135.527 51.9414C135.363 51.5664 135.113 51.2695 134.777 51.0508C134.441 50.832 134.012 50.7227 133.488 50.7227C133.043 50.7227 132.66 50.8203 132.34 51.0156C132.02 51.2109 131.758 51.4844 131.555 51.8359C131.359 52.1875 131.211 52.6016 131.109 53.0781C131.016 53.5469 130.969 54.0625 130.969 54.625V55.0938C130.969 55.6016 131.039 56.0703 131.18 56.5C131.328 56.9297 131.535 57.3008 131.801 57.6133C132.074 57.9258 132.402 58.168 132.785 58.3398C133.176 58.5117 133.617 58.5977 134.109 58.5977C134.719 58.5977 135.285 58.4805 135.809 58.2461C136.34 58.0039 136.797 57.6406 137.18 57.1562L138.82 58.9375C138.555 59.3203 138.191 59.6875 137.73 60.0391C137.277 60.3906 136.73 60.6797 136.09 60.9062C135.449 61.125 134.719 61.2344 133.898 61.2344ZM141.211 48.3203H144.598V61.7617C144.598 62.6992 144.426 63.4922 144.082 64.1406C143.738 64.7891 143.242 65.2812 142.594 65.6172C141.945 65.9531 141.16 66.1211 140.238 66.1211C139.949 66.1211 139.668 66.1055 139.395 66.0742C139.113 66.043 138.824 65.9922 138.527 65.9219L138.539 63.332C138.727 63.3633 138.91 63.3867 139.09 63.4023C139.262 63.4258 139.438 63.4375 139.617 63.4375C139.969 63.4375 140.262 63.3789 140.496 63.2617C140.73 63.1445 140.906 62.9609 141.023 62.7109C141.148 62.4688 141.211 62.1523 141.211 61.7617V48.3203ZM140.941 45.0156C140.941 44.5234 141.113 44.1172 141.457 43.7969C141.809 43.4766 142.27 43.3164 142.84 43.3164C143.418 43.3164 143.879 43.4766 144.223 43.7969C144.566 44.1172 144.738 44.5234 144.738 45.0156C144.738 45.5078 144.566 45.9141 144.223 46.2344C143.879 46.5547 143.418 46.7148 142.84 46.7148C142.27 46.7148 141.809 46.5547 141.457 46.2344C141.113 45.9141 140.941 45.5078 140.941 45.0156ZM153.117 61.2344C152.133 61.2344 151.25 61.0781 150.469 60.7656C149.688 60.4453 149.023 60.0039 148.477 59.4414C147.938 58.8789 147.523 58.2266 147.234 57.4844C146.945 56.7344 146.801 55.9375 146.801 55.0938V54.625C146.801 53.6641 146.938 52.7852 147.211 51.9883C147.484 51.1914 147.875 50.5 148.383 49.9141C148.898 49.3281 149.523 48.8789 150.258 48.5664C150.992 48.2461 151.82 48.0859 152.742 48.0859C153.641 48.0859 154.438 48.2344 155.133 48.5312C155.828 48.8281 156.41 49.25 156.879 49.7969C157.355 50.3438 157.715 51 157.957 51.7656C158.199 52.5234 158.32 53.3672 158.32 54.2969V55.7031H148.242V53.4531H155.004V53.1953C155.004 52.7266 154.918 52.3086 154.746 51.9414C154.582 51.5664 154.332 51.2695 153.996 51.0508C153.66 50.832 153.23 50.7227 152.707 50.7227C152.262 50.7227 151.879 50.8203 151.559 51.0156C151.238 51.2109 150.977 51.4844 150.773 51.8359C150.578 52.1875 150.43 52.6016 150.328 53.0781C150.234 53.5469 150.188 54.0625 150.188 54.625V55.0938C150.188 55.6016 150.258 56.0703 150.398 56.5C150.547 56.9297 150.754 57.3008 151.02 57.6133C151.293 57.9258 151.621 58.168 152.004 58.3398C152.395 58.5117 152.836 58.5977 153.328 58.5977C153.938 58.5977 154.504 58.4805 155.027 58.2461C155.559 58.0039 156.016 57.6406 156.398 57.1562L158.039 58.9375C157.773 59.3203 157.41 59.6875 156.949 60.0391C156.496 60.3906 155.949 60.6797 155.309 60.9062C154.668 61.125 153.938 61.2344 153.117 61.2344ZM165.48 58.5977C165.895 58.5977 166.262 58.5195 166.582 58.3633C166.902 58.1992 167.152 57.9727 167.332 57.6836C167.52 57.3867 167.617 57.0391 167.625 56.6406H170.801C170.793 57.5312 170.555 58.3242 170.086 59.0195C169.617 59.707 168.988 60.25 168.199 60.6484C167.41 61.0391 166.527 61.2344 165.551 61.2344C164.566 61.2344 163.707 61.0703 162.973 60.7422C162.246 60.4141 161.641 59.9609 161.156 59.3828C160.672 58.7969 160.309 58.1172 160.066 57.3438C159.824 56.5625 159.703 55.7266 159.703 54.8359V54.4961C159.703 53.5977 159.824 52.7617 160.066 51.9883C160.309 51.207 160.672 50.5273 161.156 49.9492C161.641 49.3633 162.246 48.9062 162.973 48.5781C163.699 48.25 164.551 48.0859 165.527 48.0859C166.566 48.0859 167.477 48.2852 168.258 48.6836C169.047 49.082 169.664 49.6523 170.109 50.3945C170.562 51.1289 170.793 52 170.801 53.0078H167.625C167.617 52.5859 167.527 52.2031 167.355 51.8594C167.191 51.5156 166.949 51.2422 166.629 51.0391C166.316 50.8281 165.93 50.7227 165.469 50.7227C164.977 50.7227 164.574 50.8281 164.262 51.0391C163.949 51.2422 163.707 51.5234 163.535 51.8828C163.363 52.2344 163.242 52.6367 163.172 53.0898C163.109 53.5352 163.078 54.0039 163.078 54.4961V54.8359C163.078 55.3281 163.109 55.8008 163.172 56.2539C163.234 56.707 163.352 57.1094 163.523 57.4609C163.703 57.8125 163.949 58.0898 164.262 58.293C164.574 58.4961 164.98 58.5977 165.48 58.5977ZM178.969 48.3203V50.7109H171.586V48.3203H178.969ZM173.414 45.1914H176.789V57.1797C176.789 57.5469 176.836 57.8281 176.93 58.0234C177.031 58.2188 177.18 58.3555 177.375 58.4336C177.57 58.5039 177.816 58.5391 178.113 58.5391C178.324 58.5391 178.512 58.5312 178.676 58.5156C178.848 58.4922 178.992 58.4688 179.109 58.4453L179.121 60.9297C178.832 61.0234 178.52 61.0977 178.184 61.1523C177.848 61.207 177.477 61.2344 177.07 61.2344C176.328 61.2344 175.68 61.1133 175.125 60.8711C174.578 60.6211 174.156 60.2227 173.859 59.6758C173.562 59.1289 173.414 58.4102 173.414 57.5195V45.1914ZM186.727 61.2344C185.742 61.2344 184.859 61.0781 184.078 60.7656C183.297 60.4453 182.633 60.0039 182.086 59.4414C181.547 58.8789 181.133 58.2266 180.844 57.4844C180.555 56.7344 180.41 55.9375 180.41 55.0938V54.625C180.41 53.6641 180.547 52.7852 180.82 51.9883C181.094 51.1914 181.484 50.5 181.992 49.9141C182.508 49.3281 183.133 48.8789 183.867 48.5664C184.602 48.2461 185.43 48.0859 186.352 48.0859C187.25 48.0859 188.047 48.2344 188.742 48.5312C189.438 48.8281 190.02 49.25 190.488 49.7969C190.965 50.3438 191.324 51 191.566 51.7656C191.809 52.5234 191.93 53.3672 191.93 54.2969V55.7031H181.852V53.4531H188.613V53.1953C188.613 52.7266 188.527 52.3086 188.355 51.9414C188.191 51.5664 187.941 51.2695 187.605 51.0508C187.27 50.832 186.84 50.7227 186.316 50.7227C185.871 50.7227 185.488 50.8203 185.168 51.0156C184.848 51.2109 184.586 51.4844 184.383 51.8359C184.188 52.1875 184.039 52.6016 183.938 53.0781C183.844 53.5469 183.797 54.0625 183.797 54.625V55.0938C183.797 55.6016 183.867 56.0703 184.008 56.5C184.156 56.9297 184.363 57.3008 184.629 57.6133C184.902 57.9258 185.23 58.168 185.613 58.3398C186.004 58.5117 186.445 58.5977 186.938 58.5977C187.547 58.5977 188.113 58.4805 188.637 58.2461C189.168 58.0039 189.625 57.6406 190.008 57.1562L191.648 58.9375C191.383 59.3203 191.02 59.6875 190.559 60.0391C190.105 60.3906 189.559 60.6797 188.918 60.9062C188.277 61.125 187.547 61.2344 186.727 61.2344ZM201.34 58.2344V43H204.738V61H201.68L201.34 58.2344ZM193.324 54.8125V54.5664C193.324 53.5977 193.434 52.7188 193.652 51.9297C193.871 51.1328 194.191 50.4492 194.613 49.8789C195.035 49.3086 195.555 48.8672 196.172 48.5547C196.789 48.2422 197.492 48.0859 198.281 48.0859C199.023 48.0859 199.672 48.2422 200.227 48.5547C200.789 48.8672 201.266 49.3125 201.656 49.8906C202.055 50.4609 202.375 51.1367 202.617 51.918C202.859 52.6914 203.035 53.5391 203.145 54.4609V55C203.035 55.8828 202.859 56.7031 202.617 57.4609C202.375 58.2188 202.055 58.8828 201.656 59.4531C201.266 60.0156 200.789 60.4531 200.227 60.7656C199.664 61.0781 199.008 61.2344 198.258 61.2344C197.469 61.2344 196.766 61.0742 196.148 60.7539C195.539 60.4336 195.023 59.9844 194.602 59.4062C194.188 58.8281 193.871 58.1484 193.652 57.3672C193.434 56.5859 193.324 55.7344 193.324 54.8125ZM196.699 54.5664V54.8125C196.699 55.3359 196.738 55.8242 196.816 56.2773C196.902 56.7305 197.039 57.1328 197.227 57.4844C197.422 57.8281 197.672 58.0977 197.977 58.293C198.289 58.4805 198.668 58.5742 199.113 58.5742C199.691 58.5742 200.168 58.4453 200.543 58.1875C200.918 57.9219 201.203 57.5586 201.398 57.0977C201.602 56.6367 201.719 56.1055 201.75 55.5039V53.9688C201.727 53.4766 201.656 53.0352 201.539 52.6445C201.43 52.2461 201.266 51.9062 201.047 51.625C200.836 51.3438 200.57 51.125 200.25 50.9688C199.938 50.8125 199.566 50.7344 199.137 50.7344C198.699 50.7344 198.324 50.8359 198.012 51.0391C197.699 51.2344 197.445 51.5039 197.25 51.8477C197.062 52.1914 196.922 52.5977 196.828 53.0664C196.742 53.5273 196.699 54.0273 196.699 54.5664ZM210.938 43V61H207.551V43H210.938ZM217.488 59.5703L220.852 48.3203H224.473L219.375 62.9102C219.266 63.2305 219.117 63.5742 218.93 63.9414C218.75 64.3086 218.504 64.6562 218.191 64.9844C217.887 65.3203 217.5 65.5938 217.031 65.8047C216.57 66.0156 216.004 66.1211 215.332 66.1211C215.012 66.1211 214.75 66.1016 214.547 66.0625C214.344 66.0234 214.102 65.9688 213.82 65.8984V63.4258C213.906 63.4258 213.996 63.4258 214.09 63.4258C214.184 63.4336 214.273 63.4375 214.359 63.4375C214.805 63.4375 215.168 63.3867 215.449 63.2852C215.73 63.1836 215.957 63.0273 216.129 62.8164C216.301 62.6133 216.438 62.3477 216.539 62.0195L217.488 59.5703ZM216.082 48.3203L218.836 57.5078L219.316 61.082L217.02 61.3281L212.461 48.3203H216.082Z" fill="#888888"/>
<path d="M112.125 84.875V119H103.898V84.875H112.125ZM122.391 84.875V91.2266H93.8672V84.875H122.391ZM135.68 119.469C133.617 119.469 131.773 119.148 130.148 118.508C128.523 117.852 127.148 116.953 126.023 115.812C124.914 114.672 124.062 113.359 123.469 111.875C122.891 110.391 122.602 108.82 122.602 107.164V106.273C122.602 104.414 122.859 102.695 123.375 101.117C123.891 99.5234 124.656 98.1328 125.672 96.9453C126.688 95.7578 127.961 94.8359 129.492 94.1797C131.023 93.5078 132.805 93.1719 134.836 93.1719C136.633 93.1719 138.242 93.4609 139.664 94.0391C141.086 94.6172 142.289 95.4453 143.273 96.5234C144.273 97.6016 145.031 98.9062 145.547 100.438C146.078 101.969 146.344 103.688 146.344 105.594V108.805H125.625V103.859H138.633V103.25C138.648 102.406 138.5 101.688 138.188 101.094C137.891 100.5 137.453 100.047 136.875 99.7344C136.297 99.4219 135.594 99.2656 134.766 99.2656C133.906 99.2656 133.195 99.4531 132.633 99.8281C132.086 100.203 131.656 100.719 131.344 101.375C131.047 102.016 130.836 102.758 130.711 103.602C130.586 104.445 130.523 105.336 130.523 106.273V107.164C130.523 108.102 130.648 108.953 130.898 109.719C131.164 110.484 131.539 111.141 132.023 111.688C132.523 112.219 133.117 112.633 133.805 112.93C134.508 113.227 135.305 113.375 136.195 113.375C137.273 113.375 138.336 113.172 139.383 112.766C140.43 112.359 141.328 111.688 142.078 110.75L145.664 115.016C145.148 115.75 144.414 116.461 143.461 117.148C142.523 117.836 141.398 118.398 140.086 118.836C138.773 119.258 137.305 119.469 135.68 119.469ZM160.266 113.375C161 113.375 161.625 113.242 162.141 112.977C162.672 112.695 163.07 112.305 163.336 111.805C163.617 111.289 163.75 110.672 163.734 109.953H171.164C171.18 111.859 170.711 113.531 169.758 114.969C168.82 116.391 167.539 117.5 165.914 118.297C164.305 119.078 162.484 119.469 160.453 119.469C158.469 119.469 156.734 119.148 155.25 118.508C153.766 117.852 152.523 116.945 151.523 115.789C150.539 114.617 149.797 113.25 149.297 111.688C148.812 110.125 148.57 108.43 148.57 106.602V106.062C148.57 104.234 148.812 102.539 149.297 100.977C149.797 99.3984 150.539 98.0312 151.523 96.875C152.523 95.7031 153.758 94.7969 155.227 94.1562C156.711 93.5 158.438 93.1719 160.406 93.1719C162.516 93.1719 164.375 93.5703 165.984 94.3672C167.609 95.1641 168.883 96.3203 169.805 97.8359C170.727 99.3516 171.18 101.188 171.164 103.344H163.734C163.75 102.578 163.633 101.891 163.383 101.281C163.133 100.672 162.742 100.188 162.211 99.8281C161.695 99.4531 161.031 99.2656 160.219 99.2656C159.406 99.2656 158.75 99.4453 158.25 99.8047C157.75 100.164 157.367 100.664 157.102 101.305C156.852 101.93 156.68 102.648 156.586 103.461C156.508 104.273 156.469 105.141 156.469 106.062V106.602C156.469 107.539 156.508 108.422 156.586 109.25C156.68 110.062 156.859 110.781 157.125 111.406C157.391 112.016 157.773 112.5 158.273 112.859C158.773 113.203 159.438 113.375 160.266 113.375ZM182.273 83V119H174.375V83H182.273ZM181.336 105.453L179.484 105.5C179.484 103.719 179.703 102.078 180.141 100.578C180.578 99.0781 181.203 97.7734 182.016 96.6641C182.828 95.5547 183.805 94.6953 184.945 94.0859C186.086 93.4766 187.352 93.1719 188.742 93.1719C189.992 93.1719 191.133 93.3516 192.164 93.7109C193.211 94.0703 194.109 94.6484 194.859 95.4453C195.625 96.2422 196.211 97.2812 196.617 98.5625C197.039 99.8438 197.25 101.406 197.25 103.25V119H189.305V103.203C189.305 102.172 189.156 101.375 188.859 100.812C188.578 100.234 188.172 99.8359 187.641 99.6172C187.109 99.3828 186.461 99.2656 185.695 99.2656C184.773 99.2656 184.023 99.4219 183.445 99.7344C182.867 100.047 182.422 100.484 182.109 101.047C181.812 101.594 181.609 102.242 181.5 102.992C181.391 103.742 181.336 104.562 181.336 105.453ZM231.539 109.93C231.539 109.398 231.461 108.922 231.305 108.5C231.148 108.062 230.859 107.656 230.438 107.281C230.016 106.906 229.406 106.531 228.609 106.156C227.828 105.766 226.797 105.359 225.516 104.938C224.016 104.438 222.57 103.875 221.18 103.25C219.789 102.609 218.547 101.867 217.453 101.023C216.359 100.164 215.492 99.1641 214.852 98.0234C214.211 96.8672 213.891 95.5234 213.891 93.9922C213.891 92.5234 214.219 91.2031 214.875 90.0312C215.531 88.8438 216.445 87.8359 217.617 87.0078C218.805 86.1641 220.195 85.5234 221.789 85.0859C223.383 84.6328 225.125 84.4062 227.016 84.4062C229.516 84.4062 231.719 84.8438 233.625 85.7188C235.547 86.5781 237.047 87.8047 238.125 89.3984C239.219 90.9766 239.766 92.8438 239.766 95H231.586C231.586 94.1406 231.406 93.3828 231.047 92.7266C230.703 92.0703 230.18 91.5547 229.477 91.1797C228.773 90.8047 227.891 90.6172 226.828 90.6172C225.797 90.6172 224.93 90.7734 224.227 91.0859C223.523 91.3984 222.992 91.8203 222.633 92.3516C222.273 92.8672 222.094 93.4375 222.094 94.0625C222.094 94.5781 222.234 95.0469 222.516 95.4688C222.812 95.875 223.227 96.2578 223.758 96.6172C224.305 96.9766 224.961 97.3203 225.727 97.6484C226.508 97.9766 227.383 98.2969 228.352 98.6094C230.164 99.1875 231.773 99.8359 233.18 100.555C234.602 101.258 235.797 102.062 236.766 102.969C237.75 103.859 238.492 104.875 238.992 106.016C239.508 107.156 239.766 108.445 239.766 109.883C239.766 111.414 239.469 112.773 238.875 113.961C238.281 115.148 237.43 116.156 236.32 116.984C235.211 117.797 233.883 118.414 232.336 118.836C230.789 119.258 229.062 119.469 227.156 119.469C225.406 119.469 223.68 119.25 221.977 118.812C220.289 118.359 218.758 117.672 217.383 116.75C216.008 115.812 214.906 114.617 214.078 113.164C213.266 111.695 212.859 109.953 212.859 107.938H221.109C221.109 108.938 221.242 109.781 221.508 110.469C221.773 111.156 222.164 111.711 222.68 112.133C223.195 112.539 223.828 112.836 224.578 113.023C225.328 113.195 226.188 113.281 227.156 113.281C228.203 113.281 229.047 113.133 229.688 112.836C230.328 112.523 230.797 112.117 231.094 111.617C231.391 111.102 231.539 110.539 231.539 109.93ZM256.992 93.6406V99.125H241.711V93.6406H256.992ZM244.922 87.3359H252.82V110.727C252.82 111.398 252.898 111.922 253.055 112.297C253.211 112.656 253.477 112.914 253.852 113.07C254.242 113.211 254.758 113.281 255.398 113.281C255.852 113.281 256.227 113.273 256.523 113.258C256.82 113.227 257.102 113.188 257.367 113.141V118.789C256.695 119.008 255.992 119.172 255.258 119.281C254.523 119.406 253.742 119.469 252.914 119.469C251.227 119.469 249.781 119.203 248.578 118.672C247.391 118.141 246.484 117.305 245.859 116.164C245.234 115.023 244.922 113.539 244.922 111.711V87.3359ZM273.305 112.625V102.172C273.305 101.453 273.203 100.836 273 100.32C272.797 99.8047 272.477 99.4062 272.039 99.125C271.602 98.8281 271.016 98.6797 270.281 98.6797C269.688 98.6797 269.18 98.7812 268.758 98.9844C268.336 99.1875 268.016 99.4922 267.797 99.8984C267.578 100.305 267.469 100.82 267.469 101.445H259.57C259.57 100.273 259.828 99.1875 260.344 98.1875C260.875 97.1719 261.625 96.2891 262.594 95.5391C263.578 94.7891 264.75 94.2109 266.109 93.8047C267.484 93.3828 269.016 93.1719 270.703 93.1719C272.719 93.1719 274.516 93.5078 276.094 94.1797C277.688 94.8516 278.945 95.8594 279.867 97.2031C280.789 98.5312 281.25 100.203 281.25 102.219V112.602C281.25 114.258 281.344 115.516 281.531 116.375C281.719 117.219 281.984 117.961 282.328 118.602V119H274.406C274.031 118.219 273.75 117.266 273.562 116.141C273.391 115 273.305 113.828 273.305 112.625ZM274.266 103.508L274.312 107.727H270.82C270.086 107.727 269.461 107.828 268.945 108.031C268.445 108.234 268.039 108.516 267.727 108.875C267.43 109.219 267.211 109.609 267.07 110.047C266.945 110.484 266.883 110.945 266.883 111.43C266.883 111.898 266.992 112.32 267.211 112.695C267.445 113.055 267.758 113.336 268.148 113.539C268.539 113.742 268.977 113.844 269.461 113.844C270.336 113.844 271.078 113.68 271.688 113.352C272.312 113.008 272.789 112.594 273.117 112.109C273.445 111.625 273.609 111.172 273.609 110.75L275.344 113.984C275.031 114.609 274.672 115.242 274.266 115.883C273.875 116.523 273.383 117.117 272.789 117.664C272.211 118.195 271.5 118.633 270.656 118.977C269.812 119.305 268.789 119.469 267.586 119.469C266.023 119.469 264.586 119.148 263.273 118.508C261.977 117.867 260.938 116.977 260.156 115.836C259.375 114.68 258.984 113.352 258.984 111.852C258.984 110.539 259.219 109.367 259.688 108.336C260.172 107.305 260.898 106.43 261.867 105.711C262.836 104.992 264.07 104.445 265.57 104.07C267.07 103.695 268.836 103.508 270.867 103.508H274.266ZM296.344 113.375C297.078 113.375 297.703 113.242 298.219 112.977C298.75 112.695 299.148 112.305 299.414 111.805C299.695 111.289 299.828 110.672 299.812 109.953H307.242C307.258 111.859 306.789 113.531 305.836 114.969C304.898 116.391 303.617 117.5 301.992 118.297C300.383 119.078 298.562 119.469 296.531 119.469C294.547 119.469 292.812 119.148 291.328 118.508C289.844 117.852 288.602 116.945 287.602 115.789C286.617 114.617 285.875 113.25 285.375 111.688C284.891 110.125 284.648 108.43 284.648 106.602V106.062C284.648 104.234 284.891 102.539 285.375 100.977C285.875 99.3984 286.617 98.0312 287.602 96.875C288.602 95.7031 289.836 94.7969 291.305 94.1562C292.789 93.5 294.516 93.1719 296.484 93.1719C298.594 93.1719 300.453 93.5703 302.062 94.3672C303.688 95.1641 304.961 96.3203 305.883 97.8359C306.805 99.3516 307.258 101.188 307.242 103.344H299.812C299.828 102.578 299.711 101.891 299.461 101.281C299.211 100.672 298.82 100.188 298.289 99.8281C297.773 99.4531 297.109 99.2656 296.297 99.2656C295.484 99.2656 294.828 99.4453 294.328 99.8047C293.828 100.164 293.445 100.664 293.18 101.305C292.93 101.93 292.758 102.648 292.664 103.461C292.586 104.273 292.547 105.141 292.547 106.062V106.602C292.547 107.539 292.586 108.422 292.664 109.25C292.758 110.062 292.938 110.781 293.203 111.406C293.469 112.016 293.852 112.5 294.352 112.859C294.852 113.203 295.516 113.375 296.344 113.375ZM318.586 82.9766V119H310.688V82.9766H318.586ZM334.805 93.6406L323.789 106.555L318.023 112.32L314.578 107.305L319.383 101.047L325.336 93.6406H334.805ZM326.344 119L319.57 107.445L325.406 103.297L335.391 119H326.344Z" fill="black"/>
<path d="M1134 0H1348C1356.28 0 1363 6.71573 1363 15V148C1363 156.284 1356.28 163 1348 163H1134V0Z" fill="#2BC55F"/>
<path fill-rule="evenodd" clip-rule="evenodd" d="M1218.75 53C1218.62 53 1218.49 53.0527 1218.4 53.1464C1218.3 53.2402 1218.25 53.3674 1218.25 53.5V109.5C1218.25 109.633 1218.3 109.76 1218.4 109.854C1218.49 109.947 1218.62 110 1218.75 110H1278.25C1278.38 110 1278.51 109.947 1278.6 109.854C1278.7 109.76 1278.75 109.633 1278.75 109.5V64C1278.75 63.8674 1278.7 63.7402 1278.6 63.6464C1278.51 63.5527 1278.38 63.5 1278.25 63.5H1248.5C1247.61 63.5 1246.77 63.1045 1246.2 62.4206L1238.34 53H1218.75ZM1214.15 48.9038C1215.37 47.6848 1217.03 47 1218.75 47H1239.75C1240.64 47 1241.48 47.3955 1242.05 48.0794L1249.91 57.5H1278.25C1279.97 57.5 1281.63 58.1848 1282.85 59.4038C1284.07 60.6228 1284.75 62.2761 1284.75 64V109.5C1284.75 111.224 1284.07 112.877 1282.85 114.096C1281.63 115.315 1279.97 116 1278.25 116H1218.75C1217.03 116 1215.37 115.315 1214.15 114.096C1212.93 112.877 1212.25 111.224 1212.25 109.5V53.5C1212.25 51.7761 1212.93 50.1228 1214.15 48.9038Z" fill="white"/>
<path fill-rule="evenodd" clip-rule="evenodd" d="M1243.97 75.5251C1245.34 76.892 1245.34 79.108 1243.97 80.4749L1237.7 86.75L1243.97 93.0251C1245.34 94.392 1245.34 96.608 1243.97 97.9749C1242.61 99.3417 1240.39 99.3417 1239.03 97.9749L1230.28 89.2249C1228.91 87.858 1228.91 85.642 1230.28 84.2751L1239.03 75.5251C1240.39 74.1583 1242.61 74.1583 1243.97 75.5251Z" fill="white"/>
<path fill-rule="evenodd" clip-rule="evenodd" d="M1252.28 97.9749C1250.91 96.608 1250.91 94.392 1252.28 93.0251L1258.55 86.75L1252.28 80.4749C1250.91 79.108 1250.91 76.892 1252.28 75.5251C1253.64 74.1583 1255.86 74.1583 1257.22 75.5251L1265.97 84.2751C1267.34 85.642 1267.34 87.858 1265.97 89.2249L1257.22 97.9749C1255.86 99.3417 1253.64 99.3417 1252.28 97.9749Z" fill="white"/>
</svg>
